Kumimoji-Medium.sfdir
StartChar: uF1D97
Encoding: 990615 990615 0
Width: 1000
Flags: MW
LayerCount: 2
Fore
SplineSet
455 0 m 5
 455 694 l 5
 545 694 l 5
 545 0 l 5
 455 0 l 5
EndSplineSet
EndChar
StartChar: uF1D98
Encoding: 990616 990616 1
Width: 1000
Flags: MW
LayerCount: 2
Fore
SplineSet
316 0 m 5
 316 694 l 5
 406 694 l 5
 406 0 l 5
 316 0 l 5
594 0 m 5
 594 694 l 5
 684 694 l 5
 684 0 l 5
 594 0 l 5
EndSplineSet
EndChar
StartChar: uF1D99
Encoding: 990617 990617 2
Width: 1000
VWidth: 0
Flags: MW
LayerCount: 2
Fore
SplineSet
177 0 m 5
 177 694 l 5
 267 694 l 5
 267 0 l 5
 177 0 l 5
455 0 m 5
 455 694 l 5
 545 694 l 5
 545 0 l 5
 455 0 l 5
733 0 m 5
 733 694 l 5
 823 694 l 5
 823 0 l 5
 733 0 l 5
EndSplineSet
EndChar
StartChar: uF1D9A
Encoding: 990618 990618 3
Width: 1000
Flags: MW
LayerCount: 2
Fore
SplineSet
82 0 m 5
 82 694 l 5
 172 694 l 5
 172 0 l 5
 82 0 l 5
280 694 m 5
 373 694 l 5
 526 300 l 6
 577 163 595 117 607 70 c 5
 613 112 674 260 685 295 c 6
 840 694 l 5
 918 694 l 5
 645 0 l 5
 553 0 l 5
 280 694 l 5
EndSplineSet
EndChar
StartChar: uF1D9B
Encoding: 990619 990619 4
Width: 1000
VWidth: 0
Flags: MW
LayerCount: 2
Fore
SplineSet
181 694 m 5
 274 694 l 5
 427 300 l 6
 478 163 496 117 508 70 c 5
 514 112 575 260 586 295 c 6
 741 694 l 5
 819 694 l 5
 546 0 l 5
 454 0 l 5
 181 694 l 5
EndSplineSet
EndChar
StartChar: uF1D9C
Encoding: 990620 990620 5
Width: 1000
Flags: MW
LayerCount: 2
Fore
SplineSet
82 694 m 5
 174 694 l 5
 328 300 l 6
 379 163 396 117 408 70 c 5
 414 112 475 260 486 295 c 6
 642 694 l 5
 720 694 l 5
 446 0 l 5
 354 0 l 5
 82 694 l 5
828 0 m 5
 828 694 l 5
 918 694 l 5
 918 0 l 5
 828 0 l 5
EndSplineSet
EndChar
StartChar: uF1D9D
Encoding: 990621 990621 6
Width: 1000
VWidth: 0
Flags: MW
LayerCount: 2
Fore
SplineSet
606 0 m 1
 606 694 l 1
 696 694 l 1
 696 0 l 1
 606 0 l 1
859 0 m 1
 859 694 l 1
 949 694 l 1
 949 0 l 1
 859 0 l 1
51 694 m 1
 144 694 l 1
 189 521 255 210 291 70 c 1
 411 694 l 1
 489 694 l 1
 329 0 l 1
 237 0 l 1
 51 694 l 1
EndSplineSet
EndChar
StartChar: uF1D9E
Encoding: 990622 990622 7
Width: 1000
VWidth: 0
Flags: MW
LayerCount: 2
Fore
SplineSet
859 0 m 1
 859 694 l 1
 949 694 l 1
 949 0 l 1
 859 0 l 1
456 0 m 1
 456 694 l 1
 546 694 l 1
 546 0 l 1
 456 0 l 1
659 0 m 1
 659 694 l 1
 749 694 l 1
 749 0 l 1
 659 0 l 1
51 694 m 1
 144 694 l 1
 178 521 222 210 241 70 c 1
 311 694 l 1
 389 694 l 1
 279 0 l 1
 187 0 l 1
 51 694 l 1
EndSplineSet
EndChar
StartChar: uF1D9F
Encoding: 990623 990623 8
Width: 1000
VWidth: 0
Flags: MW
LayerCount: 2
Fore
SplineSet
82 0 m 5
 82 694 l 5
 172 694 l 5
 172 0 l 5
 82 0 l 5
280 0 m 5
 548 365 l 5
 548 366 l 5
 294 694 l 5
 399 694 l 5
 592 433 l 5
 780 694 l 5
 876 694 l 5
 635 366 l 5
 635 365 l 5
 918 0 l 5
 813 0 l 5
 593 305 l 5
 591 305 l 5
 376 0 l 5
 280 0 l 5
EndSplineSet
EndChar
StartChar: uF1DA0
Encoding: 990624 990624 9
Width: 1000
Flags: MW
LayerCount: 2
Fore
SplineSet
181 0 m 5
 449 365 l 5
 449 366 l 5
 195 694 l 5
 300 694 l 5
 493 433 l 5
 681 694 l 5
 777 694 l 5
 536 366 l 5
 536 365 l 5
 819 0 l 5
 714 0 l 5
 494 305 l 5
 492 305 l 5
 277 0 l 5
 181 0 l 5
EndSplineSet
EndChar
StartChar: uF1DB1
Encoding: 990641 990641 30
Width: 1000
Flags: MW
LayerCount: 2
Fore
SplineSet
33 0 m 5xdc
 33 450 l 5
 86 450 l 5
 86 404 l 5
 86 380 l 5
 96 398 132 455 176 455 c 4
 230 455 260 412 274 374 c 5
 282 394 308 455 354 455 c 4
 374 455 398 445 418 429 c 4
 448 405 461 368 465 334 c 4
 467 317 467 302 467 288 c 6
 467 0 l 5
 408 0 l 5
 408 281 l 6
 408 340 389 394 345 394 c 4
 307 394 284 314 284 240 c 6
 284 0 l 5
 226 0 l 5
 226 281 l 6
 226 340 201 394 157 394 c 4xec
 119 394 91 314 91 240 c 6
 91 0 l 5
 33 0 l 5xdc
533 0 m 5xdc
 533 450 l 5
 586 450 l 5
 586 404 l 5
 586 380 l 5
 596 398 632 455 676 455 c 4
 730 455 760 412 774 374 c 5
 782 394 808 455 854 455 c 4
 874 455 898 445 918 429 c 4
 948 405 961 368 965 334 c 4
 967 317 967 302 967 288 c 6
 967 0 l 5
 908 0 l 5
 908 281 l 6
 908 340 889 394 845 394 c 4
 807 394 784 314 784 240 c 6
 784 0 l 5
 726 0 l 5
 726 281 l 6
 726 340 701 394 657 394 c 4xec
 619 394 591 314 591 240 c 6
 591 0 l 5
 533 0 l 5xdc
EndSplineSet
EndChar
StartChar: uF1DB2
Encoding: 990642 990642 31
Width: 1000
Flags: W
LayerCount: 2
Fore
SplineSet
48 223 m 0
 48 339 128 461 268 461 c 0
 330 461 362 452 423 417 c 1
 411 351 l 1
 372 375 346 397 267 397 c 0
 183 397 138 330 128 255 c 0
 127 244 126 234 126 223 c 0
 126 126 182 53 266 53 c 0
 344 53 391 85 423 107 c 1
 428 40 l 1
 383 10 334 -11 265 -11 c 0
 142 -11 48 94 48 223 c 0
477 0 m 1xdc
 477 450 l 1
 550 450 l 1
 550 404 l 1
 550 380 l 1
 560 398 587 455 640 455 c 0
 700 455 729 412 743 374 c 1
 756 394 783 455 838 455 c 0
 863 455 885 445 905 429 c 0
 935 405 946 368 950 334 c 0
 952 317 952 302 952 288 c 2
 952 0 l 1
 873 0 l 1
 873 281 l 2
 873 340 866 394 814 394 c 0
 768 394 753 314 753 240 c 2
 753 0 l 1
 675 0 l 1
 675 281 l 2
 675 340 668 394 616 394 c 0xec
 570 394 555 314 555 240 c 2
 555 0 l 1
 477 0 l 1xdc
EndSplineSet
EndChar
StartChar: uF1DB3
Encoding: 990643 990643 32
Width: 1000
Flags: W
LayerCount: 2
Fore
SplineSet
27 0 m 1
 27 722 l 1
 98 722 l 1
 98 236 l 1
 282 445 l 1
 369 445 l 1
 212 273 l 1
 391 0 l 1
 309 0 l 1
 169 224 l 1
 97 142 l 1
 97 0 l 1
 27 0 l 1
419 0 m 1xdc
 419 450 l 1
 492 450 l 1
 492 404 l 1
 492 380 l 1
 505 398 535 455 614 455 c 0
 692 455 711 412 725 374 c 1
 739 394 770 455 852 455 c 0
 889 455 916 445 936 429 c 0
 966 405 967 368 971 334 c 0
 973 317 973 302 973 288 c 2
 973 0 l 1
 894 0 l 1
 894 281 l 2
 894 340 895 394 817 394 c 0
 749 394 735 314 735 240 c 2
 735 0 l 1
 657 0 l 1
 657 281 l 2
 657 340 657 394 579 394 c 0xec
 511 394 497 314 497 240 c 2
 497 0 l 1
 419 0 l 1xdc
EndSplineSet
EndChar
StartChar: uF1DB4
Encoding: 990644 990644 33
Width: 1000
VWidth: 0
Flags: W
LayerCount: 2
Fore
SplineSet
30 0 m 1xdc
 30 450 l 1
 103 450 l 1
 103 404 l 1
 103 380 l 1
 113 398 140 455 193 455 c 0
 253 455 282 412 296 374 c 1
 309 394 336 455 391 455 c 0
 416 455 438 445 458 429 c 0
 488 405 499 368 503 334 c 0
 505 317 505 302 505 288 c 2
 505 0 l 1
 426 0 l 1
 426 281 l 2
 426 340 420 394 368 394 c 0
 322 394 306 314 306 240 c 2
 306 0 l 1
 228 0 l 1
 228 281 l 2
 228 340 222 394 170 394 c 0xec
 124 394 108 314 108 240 c 2
 108 0 l 1
 30 0 l 1xdc
617 292 m 0
 617 263 624 240 636 222 c 0
 652 199 677 187 707 187 c 0
 727 187 753 194 772 216 c 0
 786 232 796 257 796 293 c 0
 796 301 795 309 794 316 c 0
 790 343 779 364 763 378 c 0
 748 391 729 398 706 398 c 0
 688 398 665 393 647 376 c 0
 633 363 622 344 618 315 c 0
 617 308 617 300 617 292 c 0
582 -71 m 0
 582 -94 598 -112 621 -124 c 0
 648 -138 683 -146 713 -148 c 0
 720 -149 726 -149 732 -149 c 0
 779 -149 824 -138 853 -120 c 0
 873 -107 886 -91 886 -72 c 0
 886 -31 845 -3 737 -3 c 2
 674 -3 l 1
 645 -4 l 2
 604 -7 582 -43 582 -71 c 0
512 -71 m 0
 512 -30 537 9 576 32 c 1
 560 55 551 76 551 108 c 0
 551 140 562 168 580 192 c 1
 580 193 l 1
 550 233 547 272 547 292 c 0
 547 340 569 387 605 418 c 0
 632 441 666 455 706 455 c 0
 711 455 716 454 721 454 c 0
 750 451 774 442 801 424 c 1
 850 444 907 455 959 455 c 1
 970 392 l 1
 950 394 931 395 911 395 c 0
 888 395 853 392 833 391 c 1
 856 359 866 332 866 292 c 0
 866 248 848 206 818 176 c 0
 790 147 751 129 706 129 c 0
 650 129 618 158 615 159 c 0
 605 139 604 129 604 122 c 0
 604 98 616 69 660 69 c 2
 735 69 l 2
 773 69 829 68 875 49 c 0
 909 35 939 10 951 -33 c 0
 954 -45 956 -57 956 -70 c 0
 956 -115 923 -154 871 -178 c 0
 833 -196 786 -206 734 -206 c 0
 688 -206 645 -197 609 -183 c 0
 576 -170 550 -152 533 -130 c 0
 520 -112 512 -92 512 -71 c 0
EndSplineSet
EndChar
StartChar: uF1DB5
Encoding: 990645 990645 34
Width: 1000
VWidth: 0
Flags: MW
LayerCount: 2
Fore
SplineSet
54 0 m 5
 54 722 l 5
 126 722 l 5
 126 236 l 5
 330 445 l 5
 420 445 l 5
 252 273 l 5
 442 0 l 5
 360 0 l 5
 204 224 l 5
 124 142 l 5
 124 0 l 5
 54 0 l 5
592 292 m 4
 592 263 600 240 612 222 c 4
 628 199 652 187 682 187 c 4
 702 187 729 194 748 216 c 4
 762 232 772 257 772 293 c 4
 772 301 771 309 770 316 c 4
 766 343 754 364 738 378 c 4
 723 391 705 398 682 398 c 4
 664 398 640 393 622 376 c 4
 608 363 598 344 594 315 c 4
 593 308 592 300 592 292 c 4
558 -71 m 4
 558 -94 573 -112 596 -124 c 4
 623 -138 658 -146 688 -148 c 4
 695 -149 702 -149 708 -149 c 4
 755 -149 799 -138 828 -120 c 4
 848 -107 862 -91 862 -72 c 4
 862 -31 820 -3 712 -3 c 6
 650 -3 l 5
 620 -4 l 6
 579 -7 558 -43 558 -71 c 4
488 -71 m 4
 488 -30 513 9 552 32 c 5
 536 55 526 76 526 108 c 4
 526 140 538 168 556 192 c 5
 556 193 l 5
 526 233 522 272 522 292 c 4
 522 340 544 387 580 418 c 4
 607 441 642 455 682 455 c 4
 687 455 691 454 696 454 c 4
 725 451 749 442 776 424 c 5
 825 444 882 455 934 455 c 5
 946 392 l 5
 926 394 906 395 886 395 c 4
 863 395 828 392 808 391 c 5
 831 359 842 332 842 292 c 4
 842 248 824 206 794 176 c 4
 766 147 727 129 682 129 c 4
 626 129 593 158 590 159 c 4
 580 139 580 129 580 122 c 4
 580 98 592 69 636 69 c 6
 710 69 l 6
 748 69 804 68 850 49 c 4
 884 35 914 10 926 -33 c 4
 929 -45 932 -57 932 -70 c 4
 932 -115 898 -154 846 -178 c 4
 808 -196 762 -206 710 -206 c 4
 664 -206 620 -197 584 -183 c 4
 551 -170 525 -152 508 -130 c 4
 495 -112 488 -92 488 -71 c 4
EndSplineSet
EndChar
StartChar: uF1DB6
Encoding: 990646 990646 35
Width: 1000
VWidth: 0
Flags: MW
LayerCount: 2
Fore
SplineSet
88 223 m 4
 88 339 168 461 308 461 c 4
 370 461 402 452 463 417 c 5
 451 351 l 5
 412 375 386 397 307 397 c 4
 223 397 178 330 168 255 c 4
 167 244 166 234 166 223 c 4
 166 126 222 53 306 53 c 4
 384 53 431 85 463 107 c 5
 468 40 l 5
 423 10 374 -11 305 -11 c 4
 182 -11 88 94 88 223 c 4
532 223 m 4
 532 339 612 461 752 461 c 4
 814 461 846 452 907 417 c 5
 895 351 l 5
 856 375 830 397 751 397 c 4
 667 397 622 330 612 255 c 4
 611 244 610 234 610 223 c 4
 610 126 666 53 750 53 c 4
 828 53 875 85 907 107 c 5
 912 40 l 5
 867 10 818 -11 749 -11 c 4
 626 -11 532 94 532 223 c 4
EndSplineSet
EndChar
StartChar: uF1DB7
Encoding: 990647 990647 36
Width: 1000
Flags: MW
LayerCount: 2
Fore
SplineSet
106 0 m 1xdc
 106 450 l 1
 179 450 l 1
 179 404 l 1
 179 380 l 1
 193 398 237 455 325 455 c 0
 409 455 438 412 452 374 c 1
 467 394 512 455 603 455 c 0
 644 455 673 445 693 429 c 0
 723 405 734 368 738 334 c 0
 740 317 740 302 740 288 c 2
 740 0 l 1
 661 0 l 1
 661 281 l 2
 661 340 651 394 564 394 c 0
 488 394 462 314 462 240 c 2
 462 0 l 1
 384 0 l 1
 384 281 l 2
 384 340 373 394 286 394 c 0xec
 210 394 184 314 184 240 c 2
 184 0 l 1
 106 0 l 1xdc
630 724 m 1
 664 767 699 785 754 785 c 0
 836 785 894 738 894 674 c 0
 894 615 826 604 773 578 c 0
 764 574 756 569 686 530 c 1
 798 530 l 1
 817 530 l 1
 894 530 l 1
 894 477 l 1
 636 477 l 1
 636 530 l 1
 703 570 712 575 720 579 c 0
 766 602 832 619 832 673 c 0
 832 711 796 737 745 737 c 0
 691 737 673 707 659 681 c 1
 630 724 l 1
EndSplineSet
EndChar
StartChar: uF1DBA
Encoding: 990650 990650 37
Width: 1000
Flags: W
LayerCount: 2
Fore
SplineSet
80 0 m 1
 80 694 l 1
 186 694 l 1
 186 694 362 224 392 70 c 1
 392 694 l 1
 470 694 l 1
 470 0 l 1
 346 0 l 1
 346 0 192 442 158 624 c 1
 158 0 l 1
 80 0 l 1
547 221 m 0
 547 336 597 461 678 461 c 0
 749 461 810 355 810 220 c 0
 810 84 746 -11 678 -11 c 0
 610 -11 547 84 547 221 c 0
610 231 m 0
 610 119 641 53 678 53 c 0
 710 53 746 106 746 231 c 0
 746 337 716 399 678 399 c 0
 647 399 610 352 610 231 c 0
836 0 m 1
 836 84 l 1
 920 84 l 1
 920 0 l 1
 836 0 l 1
EndSplineSet
EndChar
StartChar: uF1DBB
Encoding: 990651 990651 38
Width: 1000
VWidth: 0
Flags: W
LayerCount: 2
Fore
SplineSet
47 0 m 5
 47 694 l 5
 116 694 l 5
 116 323 l 5
 290 694 l 5
 360 694 l 5
 213 413 l 5
 372 0 l 5
 296 0 l 5
 173 341 l 5
 116 228 l 5
 116 0 l 5
 47 0 l 5
406 0 m 5
 406 84 l 5
 473 84 l 5
 473 0 l 5
 406 0 l 5
527 0 m 5
 527 694 l 5
 596 694 l 5
 596 323 l 5
 770 694 l 5
 840 694 l 5
 693 413 l 5
 852 0 l 5
 776 0 l 5
 653 341 l 5
 596 228 l 5
 596 0 l 5
 527 0 l 5
886 0 m 5
 886 84 l 5
 953 84 l 5
 953 0 l 5
 886 0 l 5
EndSplineSet
EndChar
StartChar: uF1DBC
Encoding: 990652 990652 39
Width: 1000
VWidth: 0
Flags: W
LayerCount: 2
Fore
SplineSet
50 623 m 1
 50 689 l 1
 318 689 l 1
 318 623 l 1
 228 624 l 1
 228 0 l 1
 140 0 l 1
 140 624 l 1
 50 623 l 1
368 0 m 1
 368 691 l 1
 626 691 l 1
 626 625 l 1
 458 627 l 1
 458 390 l 1
 598 390 l 1
 598 329 l 1
 458 329 l 1
 458 70 l 1
 640 72 l 1
 640 0 l 1
 368 0 l 1
696 0 m 1
 696 694 l 1
 786 694 l 1
 786 65 l 1
 950 66 l 1
 950 0 l 1
 696 0 l 1
EndSplineSet
EndChar
StartChar: uF1F54
Encoding: 991060 991060 40
Width: 1000
VWidth: 0
Flags: MW
LayerCount: 2
Fore
SplineSet
39 223 m 0
 39 339 119 461 259 461 c 0
 321 461 353 452 414 417 c 1
 402 351 l 1
 363 375 337 397 258 397 c 0
 174 397 129 330 119 255 c 0
 118 244 117 234 117 223 c 0
 117 126 173 53 257 53 c 0
 335 53 382 85 414 107 c 1
 419 40 l 1
 374 10 325 -11 256 -11 c 0
 133 -11 39 94 39 223 c 0
468 0 m 1xdc
 468 450 l 1
 541 450 l 1
 541 404 l 1
 541 380 l 1
 551 398 577 455 630 455 c 0
 690 455 720 412 734 374 c 1
 747 394 773 455 828 455 c 0
 853 455 875 445 895 429 c 0
 925 405 936 368 940 334 c 0
 942 317 942 302 942 288 c 2
 942 0 l 1
 863 0 l 1
 863 281 l 2
 863 340 857 394 805 394 c 0
 759 394 744 314 744 240 c 2
 744 0 l 1
 666 0 l 1
 666 281 l 2
 666 340 659 394 607 394 c 0xec
 561 394 546 314 546 240 c 2
 546 0 l 1
 468 0 l 1xdc
697 724 m 5
 731 767 767 785 822 785 c 4
 904 785 961 738 961 674 c 4
 961 615 894 604 841 578 c 4
 832 574 824 569 754 530 c 5
 865 530 l 5
 884 530 l 5
 961 530 l 5
 961 477 l 5
 703 477 l 5
 703 530 l 5
 770 570 779 575 787 579 c 4
 833 602 899 619 899 673 c 4
 899 711 863 737 812 737 c 4
 758 737 741 707 727 681 c 5
 697 724 l 5
EndSplineSet
EndChar
StartChar: uF1F55
Encoding: 991061 991061 41
Width: 1000
Flags: MW
LayerCount: 2
Fore
SplineSet
27 0 m 1
 27 722 l 1
 98 722 l 1
 98 236 l 1
 282 445 l 1
 369 445 l 1
 212 273 l 1
 391 0 l 1
 309 0 l 1
 169 224 l 1
 97 142 l 1
 97 0 l 1
 27 0 l 1
419 0 m 1xdc
 419 450 l 1
 492 450 l 1
 492 404 l 1
 492 380 l 1
 505 398 535 455 614 455 c 0
 692 455 711 412 725 374 c 1
 739 394 770 455 852 455 c 0
 889 455 916 445 936 429 c 0
 966 405 967 368 971 334 c 0
 973 317 973 302 973 288 c 2
 973 0 l 1
 894 0 l 1
 894 281 l 2
 894 340 895 394 817 394 c 0
 749 394 735 314 735 240 c 2
 735 0 l 1
 657 0 l 1
 657 281 l 2
 657 340 657 394 579 394 c 0xec
 511 394 497 314 497 240 c 2
 497 0 l 1
 419 0 l 1xdc
707 724 m 5
 741 767 777 785 832 785 c 4
 914 785 971 738 971 674 c 4
 971 615 903 604 850 578 c 4
 841 574 833 569 763 530 c 5
 875 530 l 5
 894 530 l 5
 971 530 l 5
 971 477 l 5
 713 477 l 5
 713 530 l 5
 780 570 789 575 797 579 c 4
 843 602 909 619 909 673 c 4
 909 711 873 737 822 737 c 4
 768 737 750 707 736 681 c 5
 707 724 l 5
EndSplineSet
EndChar
StartChar: uF1F56
Encoding: 991062 991062 42
Width: 1000
VWidth: 0
Flags: MW
LayerCount: 2
Fore
SplineSet
38 223 m 0
 38 339 118 461 258 461 c 0
 320 461 352 452 413 417 c 1
 401 351 l 1
 362 375 336 397 257 397 c 0
 173 397 128 330 118 255 c 0
 117 244 116 234 116 223 c 0
 116 126 172 53 256 53 c 0
 334 53 381 85 413 107 c 1
 418 40 l 1
 373 10 324 -11 255 -11 c 0
 132 -11 38 94 38 223 c 0
467 0 m 1xdc
 467 450 l 1
 540 450 l 1
 540 404 l 1
 540 380 l 1
 550 398 576 455 629 455 c 0
 689 455 719 412 733 374 c 1
 746 394 772 455 827 455 c 0
 852 455 874 445 894 429 c 0
 924 405 935 368 939 334 c 0
 941 317 941 302 941 288 c 2
 941 0 l 1
 862 0 l 1
 862 281 l 2
 862 340 856 394 804 394 c 0
 758 394 743 314 743 240 c 2
 743 0 l 1
 665 0 l 1
 665 281 l 2
 665 340 658 394 606 394 c 0xec
 560 394 545 314 545 240 c 2
 545 0 l 1
 467 0 l 1xdc
692 489 m 5
 699 535 l 5
 723 528 749 522 778 518 c 4
 792 516 808 515 824 515 c 4xe8
 853 515 871 522 881 531 c 4
 892 541 896 553 896 561 c 4xe8
 896 577 882 590 872 596 c 4
 856 606 837 607 817 607 c 6
 786 607 l 5
 786 654 l 5
 817 657 844 655 866 675 c 4
 874 683 880 694 880 706 c 4
 880 720 870 740 826 740 c 4
 782 740 753 722 728 702 c 5
 703 744 l 5
 737 769 777 785 826 785 c 4
 890 785 942 750 942 706 c 4xf0
 942 654 891 632 889 630 c 5
 915 622 962 600 962 560 c 4
 962 537 946 509 914 490 c 4
 892 477 863 468 825 468 c 4
 810 468 795 468 779 470 c 4
 753 473 724 479 692 489 c 5
EndSplineSet
EndChar
StartChar: uF1F57
Encoding: 991063 991063 43
Width: 1000
Flags: MW
LayerCount: 2
Fore
SplineSet
105 0 m 1xdc
 105 450 l 1
 178 450 l 1
 178 404 l 1
 178 380 l 1
 192 398 236 455 324 455 c 0
 408 455 437 412 451 374 c 1
 466 394 511 455 602 455 c 0
 643 455 672 445 692 429 c 0
 722 405 733 368 737 334 c 0
 739 317 739 302 739 288 c 2
 739 0 l 1
 660 0 l 1
 660 281 l 2
 660 340 650 394 563 394 c 0
 487 394 461 314 461 240 c 2
 461 0 l 1
 383 0 l 1
 383 281 l 2
 383 340 372 394 285 394 c 0xec
 209 394 183 314 183 240 c 2
 183 0 l 1
 105 0 l 1xdc
625 489 m 1
 632 535 l 1
 656 528 682 522 711 518 c 0
 725 516 740 515 756 515 c 0xe8
 785 515 804 522 814 531 c 0
 825 541 828 553 828 561 c 0xe8
 828 577 815 590 805 596 c 0
 789 606 770 607 750 607 c 2
 719 607 l 1
 719 654 l 1
 750 657 776 655 798 675 c 0
 806 683 813 694 813 706 c 0
 813 720 803 740 759 740 c 0
 715 740 685 722 660 702 c 1
 636 744 l 1
 670 769 710 785 759 785 c 0
 823 785 875 750 875 706 c 0xf0
 875 654 824 632 822 630 c 1
 848 622 895 600 895 560 c 0
 895 537 879 509 847 490 c 0
 825 477 796 468 758 468 c 0
 743 468 728 468 712 470 c 0
 686 473 657 479 625 489 c 1
EndSplineSet
EndChar
StartChar: uF1F58
Encoding: 991064 991064 44
Width: 1000
Flags: MW
LayerCount: 2
Fore
SplineSet
124 221 m 0
 124 303 154 374 201 416 c 0
 229 441 264 456 302 456 c 0
 364 456 412 429 447 401 c 1
 447 722 l 1
 523 722 l 1
 523 0 l 1
 444 0 l 1
 444 52 l 1
 410 20 362 -11 296 -11 c 0
 260 -11 227 3 200 28 c 0
 154 70 124 142 124 221 c 0
202 222 m 0
 202 150 226 105 257 80 c 0
 282 59 313 51 337 51 c 0
 396 51 444 101 444 134 c 2
 444 325 l 2
 444 341 442 347 423 364 c 0
 393 393 360 394 349 394 c 2
 347 394 l 2
 289 394 202 353 202 222 c 0
663 148 m 2
 760 695 l 1
 835 695 l 1
 740 160 l 1
 735 126 l 2
 733 109 735 88 743 71 c 0
 750 56 763 45 783 45 c 0
 833 45 858 90 864 100 c 1
 876 38 l 1
 858 17 828 -17 770 -17 c 0
 740 -17 705 -5 682 26 c 0
 664 52 653 91 663 148 c 2
EndSplineSet
EndChar
StartChar: uF1F59
Encoding: 991065 991065 45
Width: 1000
Flags: MW
LayerCount: 2
Fore
SplineSet
396 148 m 2
 492 695 l 1
 567 695 l 1
 473 160 l 1
 468 126 l 2
 466 109 467 88 475 71 c 0
 482 56 496 45 516 45 c 0
 566 45 590 90 596 100 c 1
 608 38 l 1
 590 17 561 -17 503 -17 c 0
 473 -17 437 -5 414 26 c 0
 396 52 386 91 396 148 c 2
EndSplineSet
EndChar
StartChar: uF1F5A
Encoding: 991066 991066 46
Width: 1000
Flags: MW
LayerCount: 2
Fore
SplineSet
162 0 m 1
 162 722 l 1
 234 722 l 1
 234 236 l 1
 438 445 l 1
 528 445 l 1
 360 273 l 1
 550 0 l 1
 468 0 l 1
 312 224 l 1
 232 142 l 1
 232 0 l 1
 162 0 l 1
625 148 m 6
 722 695 l 5
 797 695 l 5
 702 160 l 5
 697 126 l 6
 695 109 697 88 705 71 c 4
 712 56 725 45 745 45 c 4
 795 45 820 90 826 100 c 5
 838 38 l 5
 820 17 790 -17 732 -17 c 4
 702 -17 667 -5 644 26 c 4
 626 52 615 91 625 148 c 6
EndSplineSet
EndChar
StartChar: uF1F5B
Encoding: 991067 991067 47
Width: 1000
Flags: W
LayerCount: 2
Fore
SplineSet
76 0 m 1xdc
 76 450 l 1
 149 450 l 1
 149 404 l 1
 149 380 l 1
 159 398 184 455 233 455 c 0
 291 455 320 412 334 374 c 1
 347 394 372 455 423 455 c 0
 446 455 467 445 487 429 c 0
 517 405 528 368 532 334 c 0
 534 317 534 302 534 288 c 2
 534 0 l 1
 455 0 l 1
 455 281 l 2
 455 340 450 394 401 394 c 0
 358 394 344 314 344 240 c 2
 344 0 l 1
 266 0 l 1
 266 281 l 2
 266 340 260 394 211 394 c 0xec
 168 394 154 314 154 240 c 2
 154 0 l 1
 76 0 l 1xdc
591 34 m 1
 603 102 l 1
 646 77 685 52 760 52 c 0
 835 52 853 93 853 120 c 0
 853 159 817 178 797 184 c 0
 775 191 732 196 701 206 c 0
 674 214 642 232 620 260 c 0
 606 278 597 301 597 329 c 0
 597 363 608 407 652 435 c 0
 677 451 712 461 761 461 c 0
 817 461 853 453 907 430 c 1
 896 364 l 1
 856 383 824 401 752 401 c 0
 683 401 668 364 668 340 c 0
 668 267 780 278 837 252 c 0
 878 233 924 192 924 127 c 0
 924 93 913 49 874 20 c 0
 849 1 813 -11 761 -11 c 0
 727 -11 666 -7 591 34 c 1
EndSplineSet
EndChar
StartChar: uF1F5C
Encoding: 991068 991068 48
Width: 1000
Flags: MW
LayerCount: 2
Fore
SplineSet
63 -195 m 5
 63 445 l 5
 141 445 l 5
 141 195 l 6
 141 149 178 67 254 67 c 4
 324 67 368 119 368 195 c 6
 368 445 l 5
 446 445 l 5
 446 127 l 6
 446 104 446 63 477 63 c 4
 487 63 509 73 509 98 c 4
 508 107 l 5
 563 107 l 5
 563 100 564 94 564 87 c 4
 564 32 517 -11 465 -11 c 4
 436 -11 395 5 375 60 c 5
 327 -8 278 -11 254 -11 c 4
 199 -11 168 17 141 49 c 5
 141 -195 l 5
 63 -195 l 5
604 34 m 5
 616 102 l 5
 659 77 698 52 773 52 c 4
 848 52 866 93 866 120 c 4
 866 159 830 178 810 184 c 4
 788 191 745 196 714 206 c 4
 687 214 655 232 633 260 c 4
 619 278 610 301 610 329 c 4
 610 363 621 407 665 435 c 4
 690 451 725 461 774 461 c 4
 830 461 866 453 920 430 c 5
 909 364 l 5
 869 383 837 401 765 401 c 4
 696 401 681 364 681 340 c 4
 681 267 793 278 850 252 c 4
 891 233 937 192 937 127 c 4
 937 93 926 49 887 20 c 4
 862 1 826 -11 774 -11 c 4
 740 -11 679 -7 604 34 c 5
EndSplineSet
EndChar
StartChar: uF1F5D
Encoding: 991069 991069 49
Width: 1000
VWidth: 0
Flags: MW
LayerCount: 2
Fore
SplineSet
102 0 m 5xd8
 102 450 l 5
 174 450 l 5
 174 408 l 5
 174 380 l 5
 188 398 232 455 320 455 c 4
 371 455 404 440 424 417 c 4
 445 393 453 360 456 328 c 4
 457 314 458 301 458 288 c 6
 458 0 l 5
 380 0 l 5
 380 281 l 6
 380 340 369 394 282 394 c 4xe8
 206 394 180 314 180 240 c 6
 180 0 l 5
 102 0 l 5xd8
566 34 m 5
 578 102 l 5
 621 77 659 52 734 52 c 4
 809 52 828 93 828 120 c 4
 828 159 792 178 772 184 c 4
 750 191 707 196 676 206 c 4
 649 214 616 232 594 260 c 4
 580 278 572 301 572 329 c 4
 572 363 582 407 626 435 c 4
 651 451 687 461 736 461 c 4
 792 461 828 453 882 430 c 5
 870 364 l 5
 830 383 798 401 726 401 c 4
 657 401 642 364 642 340 c 4
 642 267 755 278 812 252 c 4
 853 233 898 192 898 127 c 4
 898 93 887 49 848 20 c 4
 823 1 788 -11 736 -11 c 4
 702 -11 641 -7 566 34 c 5
EndSplineSet
EndChar
StartChar: uF1F5E
Encoding: 991070 991070 50
Width: 1000
Flags: MW
LayerCount: 2
Fore
SplineSet
102 -195 m 5
 102 445 l 5
 177 445 l 5
 177 396 l 5
 199 414 222 426 243 435 c 4
 284 452 321 455 343 455 c 4
 389 455 428 428 456 386 c 4
 484 343 501 285 501 224 c 4
 501 157 479 94 441 50 c 4
 409 13 366 -11 315 -11 c 4
 279 -11 249 -1 223 14 c 4
 207 23 193 34 180 46 c 5
 180 -195 l 5
 102 -195 l 5
180 126 m 6
 180 112 193 89 215 72 c 4
 231 60 252 50 277 50 c 4
 313 50 351 68 379 100 c 4
 405 130 422 171 422 222 c 4
 422 233 422 244 420 254 c 4
 414 291 399 325 376 350 c 4
 353 375 322 391 286 391 c 4
 257 391 234 381 217 370 c 4
 193 354 181 334 180 334 c 5
 180 126 l 6
565 34 m 5
 577 102 l 5
 620 77 659 52 734 52 c 4
 809 52 827 93 827 120 c 4
 827 159 791 178 771 184 c 4
 749 191 706 196 675 206 c 4
 648 214 616 232 594 260 c 4
 580 278 571 301 571 329 c 4
 571 363 582 407 626 435 c 4
 651 451 686 461 735 461 c 4
 791 461 827 453 881 430 c 5
 870 364 l 5
 830 383 798 401 726 401 c 4
 657 401 642 364 642 340 c 4
 642 267 754 278 811 252 c 4
 852 233 898 192 898 127 c 4
 898 93 887 49 848 20 c 4
 823 1 787 -11 735 -11 c 4
 701 -11 640 -7 565 34 c 5
EndSplineSet
EndChar
StartChar: uF1F5F
Encoding: 991071 991071 51
Width: 1000
Flags: MW
LayerCount: 2
Fore
SplineSet
571 0 m 1
 571 694 l 1
 737 694 l 2
 839 694 927 591 927 520 c 0xf8
 927 457 874 392 795 363 c 1
 860 347 945 282 945 188 c 0
 945 97 853 0 753 0 c 6
 571 0 l 1
655 56 m 1
 740 56 l 2
 816 56 863 114 863 189 c 4xf4
 863 263 815 330 727 330 c 2
 655 330 l 1
 655 293 l 1
 655 56 l 1
655 392 m 1
 727 392 l 2
 798 392 848 449 848 519 c 0xf8
 848 567 816 638 724 638 c 2
 655 638 l 1
 655 603 l 1
 655 392 l 1
55 0 m 1
 55 694 l 1
 141 694 l 1
 141 323 l 1
 359 694 l 1
 447 694 l 1
 263 413 l 1
 461 0 l 1
 367 0 l 1
 213 341 l 1
 141 228 l 1
 141 0 l 1
 55 0 l 1
EndSplineSet
EndChar
StartChar: uF1F60
Encoding: 991072 991072 52
Width: 1000
Flags: MW
LayerCount: 2
Fore
SplineSet
586 0 m 1
 586 694 l 1
 752 694 l 2
 854 694 942 591 942 520 c 0xf8
 942 457 889 392 810 363 c 1
 875 347 960 282 960 188 c 0
 960 97 868 0 768 0 c 6
 586 0 l 1
670 56 m 1
 756 56 l 2
 832 56 878 114 878 189 c 4xf4
 878 263 830 330 742 330 c 2
 670 330 l 1
 670 293 l 1
 670 56 l 1
670 392 m 1
 742 392 l 2
 813 392 864 449 864 519 c 0xf8
 864 567 832 638 740 638 c 2
 670 638 l 1
 670 603 l 1
 670 392 l 1
40 0 m 1
 40 694 l 1
 140 694 l 1
 178 529 259 246 274 92 c 1
 274 92 l 1
 293 305 362 495 408 694 c 1
 508 694 l 1
 508 0 l 1
 430 0 l 1
 430 592 l 6
 430 612 428 624 428 624 c 1
 428 624 426 606 422 587 c 4
 381 397 337 210 294 22 c 1
 252 22 l 1
 212 197 139 456 118 624 c 1
 118 0 l 1
 40 0 l 1
EndSplineSet
EndChar
StartChar: uF1F61
Encoding: 991073 991073 53
Width: 1000
Flags: MW
LayerCount: 2
Fore
SplineSet
566 0 m 1
 566 694 l 1
 732 694 l 2
 834 694 922 591 922 520 c 0xf8
 922 457 869 392 790 363 c 1
 855 347 940 282 940 188 c 0
 940 97 848 0 748 0 c 6
 566 0 l 1
650 56 m 1
 736 56 l 2
 812 56 858 114 858 189 c 4xf4
 858 263 810 330 722 330 c 2
 650 330 l 1
 650 293 l 1
 650 56 l 1
650 392 m 1
 722 392 l 2
 793 392 844 449 844 519 c 0xf8
 844 567 812 638 720 638 c 2
 650 638 l 1
 650 603 l 1
 650 392 l 1
60 347 m 0
 60 541 177 716 292 716 c 0
 344 716 382 697 440 668 c 1
 424 585 l 1
 368 627 342 652 292 652 c 0
 207 652 150 506 150 348 c 0
 150 176 213 42 292 42 c 0
 336 42 366 62 370 63 c 1
 370 237 l 1
 290 237 l 1
 290 299 l 1
 448 299 l 1
 448 26 l 1
 372 -9 330 -22 292 -22 c 0
 182 -22 60 144 60 347 c 0
EndSplineSet
EndChar
StartChar: uF1F62
Encoding: 991074 991074 54
Width: 1000
Flags: W
LayerCount: 2
Fore
SplineSet
58 0 m 1
 58 694 l 1
 148 694 l 1
 148 392 l 1
 454 392 l 1
 454 694 l 1
 690 694 l 2
 744 694 793 688 844 655 c 0
 905 618 942 558 942 493 c 0
 942 409 872 288 694 288 c 0
 683 288 673 289 662 289 c 2
 544 289 l 1
 544 0 l 1
 454 0 l 1
 454 330 l 1
 148 330 l 1
 148 0 l 1
 58 0 l 1
544 347 m 1
 674 347 l 2
 823 347 860 434 860 493 c 0
 860 550 823 638 674 638 c 2
 544 638 l 1
 544 347 l 1
EndSplineSet
EndChar
StartChar: uF1F63
Encoding: 991075 991075 55
Width: 1000
VWidth: 0
Flags: W
LayerCount: 2
Fore
SplineSet
52 0 m 1
 52 694 l 1
 142 694 l 1
 142 392 l 1
 414 392 l 1
 414 694 l 1
 504 694 l 1
 504 0 l 1
 414 0 l 1
 414 330 l 1
 142 330 l 1
 142 0 l 1
 52 0 l 1
574 0 m 1
 574 41 l 1
 840 386 l 1
 588 385 l 1
 588 445 l 1
 946 445 l 1
 946 405 l 1
 680 62 l 1
 948 63 l 1
 948 0 l 1
 574 0 l 1
EndSplineSet
EndChar
StartChar: uF1F64
Encoding: 991076 991076 56
Width: 1000
Flags: W
LayerCount: 2
Fore
SplineSet
40 0 m 1xdc
 40 450 l 1
 113 450 l 1
 113 404 l 1
 113 380 l 1
 123 398 150 455 203 455 c 0
 263 455 292 412 306 374 c 1
 319 394 346 455 401 455 c 0
 426 455 447 445 467 429 c 0
 497 405 508 368 512 334 c 0
 514 317 514 302 514 288 c 2
 514 0 l 1
 435 0 l 1
 435 281 l 2
 435 340 429 394 377 394 c 0
 331 394 316 314 316 240 c 2
 316 0 l 1
 238 0 l 1
 238 281 l 2
 238 340 231 394 179 394 c 0xec
 133 394 118 314 118 240 c 2
 118 0 l 1
 40 0 l 1xdc
561 0 m 1
 561 722 l 1
 636 722 l 1
 636 397 l 1
 701 448 765 455 796 455 c 0
 895 455 960 344 960 224 c 0
 960 93 878 -11 773 -11 c 0
 714 -11 673 16 639 46 c 1
 639 0 l 1
 561 0 l 1
639 133 m 2
 639 107 643 108 656 90 c 0
 679 61 709 50 738 50 c 0
 795 50 881 92 881 223 c 0
 881 356 800 394 746 394 c 0
 695 394 639 357 639 320 c 2
 639 133 l 2
EndSplineSet
EndChar
StartChar: uF1F65
Encoding: 991077 991077 57
Width: 1000
Flags: W
LayerCount: 2
Fore
SplineSet
73 0 m 1xdc
 73 450 l 1
 146 450 l 1
 146 404 l 1
 146 380 l 1
 158 398 194 455 264 455 c 0
 336 455 365 412 379 374 c 1
 393 394 429 455 502 455 c 0
 535 455 560 445 580 429 c 0
 610 405 621 368 625 334 c 0
 627 317 627 302 627 288 c 2
 627 0 l 1
 548 0 l 1
 548 281 l 2
 548 340 541 394 471 394 c 0
 410 394 389 314 389 240 c 2
 389 0 l 1
 311 0 l 1
 311 281 l 2
 311 340 303 394 233 394 c 0xec
 172 394 151 314 151 240 c 2
 151 0 l 1
 73 0 l 1xdc
714 148 m 2
 811 695 l 1
 886 695 l 1
 791 160 l 1
 786 126 l 2
 784 109 786 88 794 71 c 0
 801 56 814 45 834 45 c 0
 884 45 909 90 915 100 c 1
 927 38 l 1
 909 17 879 -17 821 -17 c 0
 791 -17 756 -5 733 26 c 0
 715 52 704 91 714 148 c 2
EndSplineSet
EndChar
StartChar: uF1F75
Encoding: 991093 991093 58
Width: 1000
VWidth: 0
Flags: MW
LayerCount: 2
Fore
SplineSet
51 0 m 5
 51 694 l 5
 126 694 l 5
 126 323 l 5
 315 694 l 5
 392 694 l 5
 232 413 l 5
 404 0 l 5
 322 0 l 5
 188 341 l 5
 126 228 l 5
 126 0 l 5
 51 0 l 5
486 0 m 5
 486 694 l 5
 560 694 l 5
 560 323 l 5
 750 694 l 5
 827 694 l 5
 667 413 l 5
 839 0 l 5
 757 0 l 5
 623 341 l 5
 560 228 l 5
 560 0 l 5
 486 0 l 5
876 0 m 5
 876 84 l 5
 949 84 l 5
 949 0 l 5
 876 0 l 5
EndSplineSet
EndChar
StartChar: uF1F77
Encoding: 991095 991095 59
Width: 1000
VWidth: 0
Flags: MW
LayerCount: 2
Fore
SplineSet
40 623 m 1
 40 689 l 1
 408 689 l 1
 408 623 l 1
 268 624 l 1
 268 0 l 1
 180 0 l 1
 180 624 l 1
 40 623 l 1
388 0 m 1
 388 491 l 1
 626 491 l 1
 626 425 l 1
 478 427 l 1
 478 290 l 1
 598 290 l 1
 598 229 l 1
 478 229 l 1
 478 70 l 1
 640 72 l 1
 640 0 l 1
 388 0 l 1
726 0 m 1
 726 494 l 1
 816 494 l 1
 816 65 l 1
 960 66 l 1
 960 0 l 1
 726 0 l 1
EndSplineSet
EndChar
StartChar: uF1F7D
Encoding: 991101 991101 69
Width: 1000
Flags: MW
LayerCount: 2
Fore
SplineSet
742 0 m 5
 742 84 l 5
 826 84 l 5
 826 0 l 5
 742 0 l 5
174 310 m 2
 174 329 l 2
 174 427 182 615 332 666 c 0
 359 673 388 678 426 678 c 0
 504 678 572 655 606 616 c 0
 666 548 678 433 680 360 c 0
 680 347 680 335 680 325 c 0
 680 122 628 24 520 -11 c 0
 494 -18 465 -22 426 -22 c 0
 302 -22 175 26 174 310 c 2
252 308 m 2
 252 143 292 77 354 52 c 0
 380 42 406 39 428 39 c 0
 458 39 495 45 528 66 c 0
 572 99 602 168 602 309 c 2
 602 370 l 2
 602 468 585 528 562 564 c 0
 523 607 470 616 426 616 c 0
 348 616 252 583 252 370 c 2
 252 308 l 2
EndSplineSet
EndChar
StartChar: uF1F7E
Encoding: 991102 991102 70
Width: 1000
Flags: MW
LayerCount: 2
Fore
SplineSet
816 0 m 5
 816 84 l 5
 900 84 l 5
 900 0 l 5
 816 0 l 5
329 554 m 1
 329 612 l 1
 444 612 498 653 525 678 c 1
 544 678 l 1
 544 59 l 1
 671 59 l 1
 671 0 l 1
 334 0 l 1
 334 59 l 1
 464 59 l 1
 464 577 l 1
 424 563 389 554 329 554 c 1
EndSplineSet
EndChar
StartChar: uF1F7F
Encoding: 991103 991103 71
Width: 1000
Flags: MW
LayerCount: 2
Fore
SplineSet
816 0 m 5
 816 84 l 5
 900 84 l 5
 900 0 l 5
 816 0 l 5
254 514 m 1
 279 598 332 678 485 678 c 0
 665 678 746 577 746 464 c 0
 746 367 684 313 556 221 c 0
 506 192 434 146 334 70 c 1
 746 71 l 1
 746 0 l 1
 262 0 l 1
 262 65 l 1
 401 194 l 2
 545 283 663 354 663 461 c 0
 663 545 595 613 466 613 c 0
 314 613 301 461 297 459 c 1
 254 514 l 1
EndSplineSet
EndChar
StartChar: uF1F80
Encoding: 991104 991104 72
Width: 1000
Flags: MW
LayerCount: 2
Fore
SplineSet
746 0 m 5
 746 84 l 5
 830 84 l 5
 830 0 l 5
 746 0 l 5
170 81 m 1
 182 142 l 1
 215 97 254 72 288 58 c 0
 344 42 393 40 415 40 c 0
 472 40 517 56 550 82 c 0
 582 107 600 142 600 182 c 0xe8
 600 192 599 202 596 212 c 0
 588 246 565 276 529 296 c 0
 499 313 459 323 408 323 c 2
 298 323 l 1
 298 385 l 1
 385 389 396 390 406 391 c 0
 505 403 570 464 570 525 c 0
 570 552 555 576 529 592 c 0
 502 609 464 618 418 618 c 0
 376 618 334 610 298 597 c 0
 272 584 251 566 236 543 c 0
 230 534 225 524 220 514 c 1
 184 569 l 1
 210 609 241 635 270 651 c 0
 324 675 387 678 421 678 c 0
 487 678 551 664 600 640 c 0
 637 613 662 573 662 525 c 0xf0
 662 497 654 455 622 414 c 0
 605 393 574 372 526 354 c 1
 584 340 620 320 642 296 c 0
 674 262 690 221 690 180 c 0
 690 127 665 71 620 31 c 4
 576 -1 504 -22 416 -22 c 0
 389 -22 327 -20 268 2 c 0
 236 17 201 42 170 81 c 1
EndSplineSet
EndChar
StartChar: uF1F81
Encoding: 991105 991105 73
Width: 1000
Flags: MW
LayerCount: 2
Fore
SplineSet
746 0 m 5
 746 84 l 5
 830 84 l 5
 830 0 l 5
 746 0 l 5
170 171 m 1
 170 219 l 0
 170 232 171 234 181 250 c 2
 490 655 l 1
 591 655 l 1
 591 232 l 1xe8
 690 232 l 1
 690 171 l 1
 591 171 l 1
 591 0 l 1
 508 0 l 1
 508 171 l 1xf0
 170 171 l 1
248 232 m 1
 517 232 l 1xe8
 517 618 l 1
 497 538 419 449 248 232 c 1
EndSplineSet
EndChar
StartChar: uF1F82
Encoding: 991106 991106 74
Width: 1000
Flags: MW
LayerCount: 2
Fore
SplineSet
744 0 m 5
 744 84 l 5
 828 84 l 5
 828 0 l 5
 744 0 l 5
172 76 m 1
 206 132 l 1
 210 125 215 119 219 113 c 0
 237 89 258 72 278 61 c 0
 320 43 370 40 397 40 c 0
 442 40 501 52 543 87 c 0
 573 112 594 150 594 205 c 0
 594 216 594 227 592 237 c 0
 586 284 564 315 538 335 c 0
 508 358 471 366 441 366 c 0
 323 366 281 286 281 286 c 1
 213 286 l 1
 213 655 l 1
 651 655 l 1
 651 591 l 1
 286 591 l 1
 286 386 l 1
 332 411 374 427 444 427 c 0
 518 427 585 405 623 367 c 4
 660 327 684 270 684 204 c 0
 684 140 659 82 617 41 c 0
 570 2 489 -22 399 -22 c 0
 336 -22 281 -11 246 9 c 0
 217 26 191 49 172 76 c 1
EndSplineSet
EndChar
StartChar: uF1F83
Encoding: 991107 991107 75
Width: 1000
Flags: MW
LayerCount: 2
Fore
SplineSet
816 0 m 1
 816 84 l 1
 900 84 l 1
 900 0 l 1
 816 0 l 1
231 323 m 0
 231 423 259 513 308 577 c 0
 374 640 474 678 588 678 c 0
 663 678 702 667 728 658 c 1
 728 598 l 1
 701 607 663 619 588 619 c 0
 506 619 444 591 399 551 c 0
 345 503 319 436 315 380 c 1
 377 433 473 462 567 462 c 0
 643 462 688 439 716 401 c 0
 753 349 767 299 769 241 c 0
 769 235 769 230 769 224 c 0
 769 146 750 93 700 40 c 0
 646 -3 584 -22 503 -22 c 0
 431 -22 340 -3 288 65 c 0
 254 117 231 199 231 323 c 0
317 247 m 0
 317 238 316 229 318 220 c 0
 330 146 361 40 501 40 c 0
 615 40 665 107 680 151 c 0
 686 173 687 195 687 218 c 0
 687 232 688 244 686 255 c 0
 683 294 672 320 645 349 c 0
 600 396 543 401 509 401 c 0
 409 401 339 348 321 280 c 0
 318 269 317 258 317 247 c 0
EndSplineSet
EndChar
StartChar: uF1F84
Encoding: 991108 991108 76
Width: 1000
Flags: MW
LayerCount: 2
Fore
SplineSet
816 0 m 1
 816 84 l 1
 900 84 l 1
 900 0 l 1
 816 0 l 1
248 585 m 1
 248 656 l 1
 752 655 l 1
 752 590 l 1
 600 428 459 204 443 -11 c 1
 358 -11 l 1
 358 188 455 404 684 585 c 1
 248 585 l 1
EndSplineSet
EndChar
StartChar: uF1F85
Encoding: 991109 991109 77
Width: 1000
Flags: MW
LayerCount: 2
Fore
SplineSet
752 0 m 5
 752 84 l 5
 836 84 l 5
 836 0 l 5
 752 0 l 5
164 180 m 0xf2
 164 249 205 319 332 354 c 1
 225 377 178 438 178 502 c 0
 178 595 270 678 436 678 c 0
 439 678 441 678 444 678 c 4
 598 676 694 598 694 503 c 0xec
 694 443 657 385 540 354 c 1
 633 334 708 276 708 179 c 0
 708 74 613 -22 436 -22 c 0
 259 -22 164 73 164 180 c 0xf2
246 181 m 0
 246 131 271 91 316 67 c 0
 348 50 388 40 436 40 c 0
 478 40 523 49 559 69 c 0
 598 91 626 128 626 182 c 0xf2
 626 191 626 200 624 209 c 0
 616 243 596 271 564 291 c 0
 531 312 486 323 434 323 c 0
 398 323 354 315 320 297 c 0
 284 278 255 249 247 205 c 0
 245 197 246 189 246 181 c 0
250 502 m 0
 250 465 272 435 306 415 c 0
 339 396 383 385 434 385 c 0
 485 385 528 395 560 412 c 0
 599 433 622 464 622 502 c 0
 622 512 621 522 618 531 c 0
 609 558 586 581 554 596 c 0
 522 611 482 619 436 619 c 0xec
 386 619 344 610 312 593 c 0
 279 575 258 550 252 519 c 0
 250 514 250 508 250 502 c 0
EndSplineSet
EndChar
StartChar: uF1F86
Encoding: 991110 991110 78
Width: 1000
Flags: MW
LayerCount: 2
Fore
SplineSet
750 0 m 5
 750 84 l 5
 834 84 l 5
 834 0 l 5
 750 0 l 5
166 435 m 0
 166 508 185 563 238 618 c 0
 296 660 358 678 440 678 c 0
 498 678 570 665 626 621 c 0
 670 572 704 485 704 333 c 0
 704 220 668 124 614 61 c 0
 548 8 461 -22 368 -22 c 0
 275 -22 232 -3 196 24 c 1
 226 78 l 1
 250 62 288 40 372 40 c 0
 444 40 508 67 554 119 c 0
 582 152 606 194 616 245 c 0
 618 255 619 265 620 276 c 1
 555 224 470 193 368 193 c 0
 290 193 247 216 220 254 c 0
 178 312 166 366 166 435 c 0
248 435 m 0
 248 381 252 343 296 301 c 0
 324 274 363 255 426 255 c 0
 483 255 533 273 566 301 c 4
 599 329 618 368 618 410 c 0
 618 476 588 618 440 618 c 0
 398 618 365 609 338 595 c 0
 292 571 265 534 256 507 c 0
 247 483 248 460 248 435 c 0
EndSplineSet
EndChar
StartChar: uF1F9C
Encoding: 991132 991132 15
Width: 1000
VWidth: 0
Flags: MW
LayerCount: 2
Fore
SplineSet
455 590 m 1
 455 679 l 1
 545 679 l 1
 545 590 l 1
 455 590 l 1
462 0 m 1
 462 445 l 1
 537 445 l 1
 537 0 l 1
 462 0 l 1
EndSplineSet
EndChar
StartChar: uF1F9D
Encoding: 991133 991133 16
Width: 1000
VWidth: 0
Flags: MW
LayerCount: 2
Fore
SplineSet
336 590 m 1
 336 679 l 1
 426 679 l 1
 426 590 l 1
 336 590 l 1
342 0 m 1
 342 445 l 1
 418 445 l 1
 418 0 l 1
 342 0 l 1
574 590 m 1
 574 679 l 1
 664 679 l 1
 664 590 l 1
 574 590 l 1
582 0 m 1
 582 445 l 1
 656 445 l 1
 656 0 l 1
 582 0 l 1
EndSplineSet
EndChar
StartChar: uF1F9E
Encoding: 991134 991134 17
Width: 1000
Flags: MW
LayerCount: 2
Fore
SplineSet
216 590 m 1
 216 679 l 1
 306 679 l 1
 306 590 l 1
 216 590 l 1
223 0 m 1
 223 445 l 1
 298 445 l 1
 298 0 l 1
 223 0 l 1
455 590 m 1
 455 679 l 1
 545 679 l 1
 545 590 l 1
 455 590 l 1
462 0 m 1
 462 445 l 1
 537 445 l 1
 537 0 l 1
 462 0 l 1
694 590 m 1
 694 679 l 1
 784 679 l 1
 784 590 l 1
 694 590 l 1
701 0 m 1
 701 445 l 1
 776 445 l 1
 776 0 l 1
 701 0 l 1
EndSplineSet
EndChar
StartChar: uF1F9F
Encoding: 991135 991135 18
Width: 1000
Flags: MW
LayerCount: 2
Fore
SplineSet
194 590 m 1
 194 679 l 1
 284 679 l 1
 284 590 l 1
 194 590 l 1
202 0 m 1
 202 445 l 1
 276 445 l 1
 276 0 l 1
 202 0 l 1
374 445 m 1
 450 445 l 1
 544 201 l 2
 581 97 587 81 592 50 c 1
 601 116 719 406 732 445 c 1
 806 445 l 1
 634 0 l 1
 546 0 l 1
 374 445 l 1
EndSplineSet
EndChar
StartChar: uF1FA0
Encoding: 991136 991136 19
Width: 1000
VWidth: 0
Flags: MW
LayerCount: 2
Fore
SplineSet
284 445 m 1
 361 445 l 1
 454 201 l 2
 491 97 497 81 502 50 c 1
 511 116 629 406 642 445 c 1
 716 445 l 1
 544 0 l 1
 456 0 l 1
 284 445 l 1
EndSplineSet
EndChar
StartChar: uF1FA1
Encoding: 991137 991137 20
Width: 1000
Flags: MW
LayerCount: 2
Fore
SplineSet
194 445 m 1
 272 445 l 1
 364 201 l 2
 401 97 407 81 412 50 c 1
 421 116 539 406 552 445 c 1
 626 445 l 1
 454 0 l 1
 366 0 l 1
 194 445 l 1
716 590 m 1
 716 679 l 1
 806 679 l 1
 806 590 l 1
 716 590 l 1
722 0 m 1
 722 445 l 1
 798 445 l 1
 798 0 l 1
 722 0 l 1
EndSplineSet
EndChar
StartChar: uF1FA2
Encoding: 991138 991138 21
Width: 1000
VWidth: 0
Flags: MW
LayerCount: 2
Fore
SplineSet
75 445 m 1
 152 445 l 1
 245 201 l 2
 282 97 288 81 293 50 c 1
 302 116 420 406 433 445 c 1
 507 445 l 1
 335 0 l 1
 247 0 l 1
 75 445 l 1
596 590 m 1
 596 679 l 1
 686 679 l 1
 686 590 l 1
 596 590 l 1
603 0 m 1
 603 445 l 1
 678 445 l 1
 678 0 l 1
 603 0 l 1
835 590 m 1
 835 679 l 1
 925 679 l 1
 925 590 l 1
 835 590 l 1
842 0 m 1
 842 445 l 1
 917 445 l 1
 917 0 l 1
 842 0 l 1
EndSplineSet
EndChar
StartChar: uF1FA3
Encoding: 991139 991139 22
Width: 1000
Flags: W
LayerCount: 2
Fore
SplineSet
45 445 m 1
 122 445 l 1
 199 201 l 2
 232 98 237 81 242 50 c 1
 251 116 355 406 364 445 c 1
 425 445 l 1
 284 0 l 1
 196 0 l 1
 45 445 l 1
488 590 m 1
 488 679 l 1
 573 679 l 1
 573 590 l 1
 488 590 l 1
492 0 m 1
 492 445 l 1
 568 445 l 1
 568 0 l 1
 492 0 l 1
677 590 m 1
 677 679 l 1
 763 679 l 1
 763 590 l 1
 677 590 l 1
682 0 m 1
 682 445 l 1
 757 445 l 1
 757 0 l 1
 682 0 l 1
867 590 m 1
 867 679 l 1
 955 679 l 1
 955 590 l 1
 867 590 l 1
872 0 m 1
 872 445 l 1
 947 445 l 1
 947 0 l 1
 872 0 l 1
EndSplineSet
EndChar
StartChar: uF1FA4
Encoding: 991140 991140 23
Width: 1000
VWidth: 0
Flags: MW
LayerCount: 2
Fore
SplineSet
188 590 m 1
 188 679 l 1
 278 679 l 1
 278 590 l 1
 188 590 l 1
194 0 m 1
 194 445 l 1
 270 445 l 1
 270 0 l 1
 194 0 l 1
352 0 m 1
 546 228 l 1
 546 230 l 1
 358 445 l 1
 442 445 l 1
 580 280 l 1
 580 280 l 1
 714 445 l 1
 796 445 l 1
 612 230 l 1
 612 229 l 1
 812 0 l 1
 730 0 l 1
 580 188 l 1
 436 0 l 1
 352 0 l 1
EndSplineSet
EndChar
StartChar: uF1FA5
Encoding: 991141 991141 24
Width: 1000
VWidth: 0
Flags: MW
LayerCount: 2
Fore
SplineSet
270 0 m 1
 464 228 l 1
 464 230 l 1
 276 445 l 1
 359 445 l 1
 497 280 l 1
 498 280 l 1
 631 445 l 1
 714 445 l 1
 530 230 l 1
 530 229 l 1
 730 0 l 1
 647 0 l 1
 497 188 l 1
 353 0 l 1
 270 0 l 1
EndSplineSet
EndChar
StartChar: uF1FF6
Encoding: 991222 991222 60
Width: 1000
VWidth: 0
Flags: MW
LayerCount: 2
Fore
SplineSet
200 590 m 1
 200 679 l 1
 290 679 l 1
 290 590 l 1
 200 590 l 1
206 0 m 1
 206 445 l 1
 282 445 l 1
 282 0 l 1
 206 0 l 1
444 0 m 1xd8
 444 450 l 1
 518 450 l 1
 518 408 l 5
 518 380 l 1
 532 398 576 455 664 455 c 0
 715 455 746 440 766 417 c 0
 787 393 795 360 798 328 c 0
 799 314 800 301 800 288 c 2
 800 0 l 1
 722 0 l 1
 722 281 l 2
 722 340 711 394 624 394 c 0xe8
 548 394 522 314 522 240 c 2
 522 0 l 1
 444 0 l 1xd8
EndSplineSet
EndChar
StartChar: uF1FFA
Encoding: 991226 991226 61
Width: 1000
Flags: MW
LayerCount: 2
Fore
SplineSet
31 0 m 5xdc
 31 450 l 5
 84 450 l 5
 84 404 l 5
 84 380 l 5
 94 398 130 455 174 455 c 4
 228 455 258 412 272 374 c 5
 280 394 306 455 352 455 c 4
 372 455 396 445 416 429 c 4
 446 405 459 368 463 334 c 4
 465 317 465 302 465 288 c 6
 465 0 l 5
 406 0 l 5
 406 281 l 6
 406 340 387 394 343 394 c 4
 305 394 282 314 282 240 c 6
 282 0 l 5
 224 0 l 5
 224 281 l 6
 224 340 199 394 155 394 c 4xec
 117 394 89 314 89 240 c 6
 89 0 l 5
 31 0 l 5xdc
531 0 m 5xdc
 531 450 l 5
 584 450 l 5
 584 404 l 5
 584 380 l 5
 594 398 630 455 674 455 c 4
 728 455 758 412 772 374 c 5
 780 394 806 455 852 455 c 4
 872 455 896 445 916 429 c 4
 946 405 959 368 963 334 c 4
 965 317 965 302 965 288 c 6
 965 0 l 5
 906 0 l 5
 906 281 l 6
 906 340 887 394 843 394 c 4
 805 394 782 314 782 240 c 6
 782 0 l 5
 724 0 l 5
 724 281 l 6
 724 340 699 394 655 394 c 4xec
 617 394 589 314 589 240 c 6
 589 0 l 5
 531 0 l 5xdc
705 724 m 5
 739 767 775 785 830 785 c 4
 912 785 969 738 969 674 c 4
 969 615 901 604 848 578 c 4
 839 574 831 569 761 530 c 5
 873 530 l 5
 892 530 l 5
 969 530 l 5
 969 477 l 5
 711 477 l 5
 711 530 l 5
 778 570 787 575 795 579 c 4
 841 602 907 619 907 673 c 4
 907 711 871 737 820 737 c 4
 766 737 748 707 734 681 c 5
 705 724 l 5
EndSplineSet
EndChar
StartChar: uF1FFB
Encoding: 991227 991227 62
Width: 1000
Flags: MW
LayerCount: 2
Fore
SplineSet
30 0 m 5xdc
 30 450 l 5
 83 450 l 5
 83 404 l 5
 83 380 l 5
 93 398 129 455 173 455 c 4
 227 455 257 412 271 374 c 5
 279 394 305 455 351 455 c 4
 371 455 395 445 415 429 c 4
 445 405 458 368 462 334 c 4
 464 317 464 302 464 288 c 6
 464 0 l 5
 405 0 l 5
 405 281 l 6
 405 340 386 394 342 394 c 4
 304 394 281 314 281 240 c 6
 281 0 l 5
 223 0 l 5
 223 281 l 6
 223 340 198 394 154 394 c 4xec
 116 394 88 314 88 240 c 6
 88 0 l 5
 30 0 l 5xdc
530 0 m 5xdc
 530 450 l 5
 583 450 l 5
 583 404 l 5
 583 380 l 5
 593 398 629 455 673 455 c 4
 727 455 757 412 771 374 c 5
 779 394 805 455 851 455 c 4
 871 455 895 445 915 429 c 4
 945 405 958 368 962 334 c 4
 964 317 964 302 964 288 c 6
 964 0 l 5
 905 0 l 5
 905 281 l 6
 905 340 886 394 842 394 c 4
 804 394 781 314 781 240 c 6
 781 0 l 5
 723 0 l 5
 723 281 l 6
 723 340 698 394 654 394 c 4xec
 616 394 588 314 588 240 c 6
 588 0 l 5
 530 0 l 5xdc
700 489 m 5
 707 535 l 5
 731 528 757 522 786 518 c 4
 800 516 815 515 831 515 c 4xe8
 860 515 879 522 889 531 c 4
 900 541 903 553 903 561 c 4xe8
 903 577 890 590 880 596 c 4
 864 606 845 607 825 607 c 6
 794 607 l 5
 794 654 l 5
 825 657 851 655 873 675 c 4
 881 683 888 694 888 706 c 4
 888 720 878 740 834 740 c 4
 790 740 760 722 735 702 c 5
 711 744 l 5
 745 769 785 785 834 785 c 4
 898 785 950 750 950 706 c 4xf0
 950 654 899 632 897 630 c 5
 923 622 970 600 970 560 c 4
 970 537 954 509 922 490 c 4
 900 477 871 468 833 468 c 4
 818 468 803 468 787 470 c 4
 761 473 732 479 700 489 c 5
EndSplineSet
EndChar
StartChar: uF1FFC
Encoding: 991228 991228 63
Width: 1000
Flags: MW
LayerCount: 2
Fore
SplineSet
27 0 m 1
 27 722 l 1
 98 722 l 1
 98 236 l 1
 282 445 l 1
 369 445 l 1
 212 273 l 1
 391 0 l 1
 309 0 l 1
 169 224 l 1
 97 142 l 1
 97 0 l 1
 27 0 l 1
419 0 m 1xdc
 419 450 l 1
 492 450 l 1
 492 404 l 1
 492 380 l 1
 505 398 535 455 614 455 c 0
 692 455 711 412 725 374 c 1
 739 394 770 455 852 455 c 0
 889 455 916 445 936 429 c 0
 966 405 967 368 971 334 c 0
 973 317 973 302 973 288 c 2
 973 0 l 1
 894 0 l 1
 894 281 l 2
 894 340 895 394 817 394 c 0
 749 394 735 314 735 240 c 2
 735 0 l 1
 657 0 l 1
 657 281 l 2
 657 340 657 394 579 394 c 0xec
 511 394 497 314 497 240 c 2
 497 0 l 1
 419 0 l 1xdc
703 489 m 5
 710 535 l 5
 734 528 760 522 789 518 c 4
 803 516 818 515 834 515 c 4xe8
 863 515 882 522 892 531 c 4
 903 541 906 553 906 561 c 4xe8
 906 577 893 590 883 596 c 4
 867 606 848 607 828 607 c 6
 797 607 l 5
 797 654 l 5
 828 657 854 655 876 675 c 4
 884 683 891 694 891 706 c 4
 891 720 881 740 837 740 c 4
 793 740 763 722 738 702 c 5
 714 744 l 5
 748 769 788 785 837 785 c 4
 901 785 953 750 953 706 c 4xf0
 953 654 902 632 900 630 c 5
 926 622 973 600 973 560 c 4
 973 537 957 509 925 490 c 4
 903 477 874 468 836 468 c 4
 821 468 806 468 790 470 c 4
 764 473 735 479 703 489 c 5
EndSplineSet
EndChar
StartChar: uF1FFD
Encoding: 991229 991229 64
Width: 1000
VWidth: 0
Flags: MW
LayerCount: 2
Fore
SplineSet
22 34 m 1
 31 102 l 1
 65 77 96 52 155 52 c 0
 214 52 228 93 228 120 c 0
 228 159 200 178 184 184 c 0
 167 191 133 196 109 206 c 0
 88 214 62 232 45 260 c 0
 34 278 27 301 27 329 c 0
 27 363 35 407 70 435 c 0
 90 451 117 461 156 461 c 0
 200 461 229 453 271 430 c 1
 262 364 l 1
 231 383 206 401 149 401 c 0
 95 401 83 364 83 340 c 0
 83 267 171 278 216 252 c 0
 248 233 284 192 284 127 c 0
 284 93 276 49 245 20 c 0
 225 1 197 -11 156 -11 c 0
 129 -11 81 -7 22 34 c 1
329 226 m 0
 329 351 398 461 488 461 c 0
 544 461 621 420 628 249 c 2
 628 220 l 1
 384 220 l 1
 386 169 400 125 423 94 c 0
 443 67 469 51 500 51 c 0
 554 51 591 79 620 106 c 1
 625 40 l 1
 591 11 550 -11 500 -11 c 0
 397 -11 329 102 329 226 c 0
388 275 m 1
 583 275 l 1
 570 387 511 399 488 399 c 0
 428 399 397 325 388 275 c 1
679 223 m 0
 679 339 742 461 852 461 c 0
 901 461 926 452 974 417 c 1
 965 351 l 1
 934 375 913 397 851 397 c 0
 785 397 750 330 742 255 c 0
 741 244 740 234 740 223 c 0
 740 126 785 53 851 53 c 0
 912 53 949 85 974 107 c 1
 978 40 l 1
 943 10 904 -11 850 -11 c 0
 753 -11 679 94 679 223 c 0
EndSplineSet
EndChar
StartChar: uF1FFE
Encoding: 991230 991230 65
Width: 1000
VWidth: 0
Flags: MW
LayerCount: 2
Fore
SplineSet
47 0 m 1
 47 458 l 1
 103 458 l 1
 103 407 l 1
 104 378 l 1
 114 403 142 463 199 463 c 0
 261 463 274 412 282 376 c 1
 292 401 320 464 378 464 c 0
 404 464 423 454 436 439 c 0
 458 413 464 370 466 328 c 0
 467 312 466 298 466 284 c 2
 466 0 l 1
 407 0 l 1
 407 295 l 2
 407 351 401 399 351 399 c 0
 304 399 288 322 287 255 c 2
 287 0 l 1
 227 0 l 1
 227 295 l 2
 227 351 221 399 171 399 c 0
 125 399 108 322 107 255 c 2
 107 0 l 1
 47 0 l 1
558 585 m 1
 558 684 l 1
 622 684 l 1
 622 585 l 1
 558 585 l 1
561 0 m 1
 561 453 l 1
 618 453 l 1
 618 0 l 1
 561 0 l 1
714 0 m 1
 714 458 l 1
 770 458 l 1
 770 410 l 1
 770 378 l 1
 780 403 808 463 865 463 c 0
 897 463 918 450 931 428 c 0
 947 402 951 363 952 324 c 0
 952 310 953 297 953 284 c 2
 953 0 l 1
 894 0 l 1
 894 295 l 2
 894 350 887 399 837 399 c 0
 791 399 774 322 773 255 c 2
 773 0 l 1
 714 0 l 1
EndSplineSet
EndChar
StartChar: uF2000
Encoding: 991232 991232 66
Width: 1000
VWidth: 0
Flags: MW
LayerCount: 2
Fore
SplineSet
15 223 m 0
 33 339 120 461 240 461 c 0
 293 461 319 452 366 417 c 1
 346 351 l 1
 316 375 297 397 229 397 c 0
 157 397 108 330 88 255 c 0
 85 244 84 234 82 223 c 0
 67 126 104 53 176 53 c 0
 243 53 288 85 319 107 c 1
 314 40 l 1
 271 10 225 -11 166 -11 c 0
 60 -11 -5 94 15 223 c 0
387 113 m 0
 403 219 558 244 647 245 c 1
 652 279 l 2
 656 311 659 341 643 371 c 0
 627 400 605 401 594 401 c 0
 530 401 490 373 457 350 c 1
 462 417 l 1
 507 444 547 461 605 461 c 0
 686 461 730 387 723 305 c 2
 676 0 l 1
 611 0 l 1
 616 35 l 1
 565 -2 507 -11 467 -11 c 0
 395 -11 380 67 387 113 c 0
450 114 m 0
 444 77 475 51 521 51 c 0
 561 51 619 66 629 130 c 2
 639 193 l 1
 576 192 460 177 450 114 c 0
815 0 m 1
 924 722 l 1
 989 722 l 1
 879 0 l 1
 815 0 l 1
EndSplineSet
EndChar
StartChar: uF2001
Encoding: 991233 991233 67
Width: 1000
VWidth: 0
Flags: MW
LayerCount: 2
Fore
SplineSet
22 0 m 1
 22 714 l 1
 72 714 l 1
 72 260 l 1
 184 453 l 1
 247 453 l 1
 147 279 l 1
 260 0 l 1
 203 0 l 1
 114 220 l 1
 71 146 l 1
 71 0 l 1
 22 0 l 1
289 227 m 0
 304 369 367 469 448 469 c 0
 487 469 506 460 538 426 c 1
 522 351 l 1
 501 377 489 401 441 401 c 0
 389 401 361 329 349 256 c 1
 348 248 346 232 345 224 c 1
 335 127 354 57 404 57 c 0
 452 57 485 93 505 115 c 1
 501 38 l 1
 469 8 437 -11 396 -11 c 0
 312 -11 276 98 289 227 c 0
550 118 m 0
 562 237 688 250 732 252 c 1
 735 289 l 2
 737 317 741 350 731 379 c 0
 722 404 708 407 698 407 c 0
 651 407 622 372 601 349 c 1
 605 426 l 1
 638 454 666 469 706 469 c 0
 772 469 800 397 793 308 c 2
 761 0 l 1
 707 0 l 1
 711 45 l 1
 678 3 638 -11 608 -11 c 0
 558 -11 545 65 550 118 c 0
603 119 m 0
 599 82 618 54 647 54 c 0
 672 54 713 70 720 137 c 2
 727 204 l 1
 685 202 610 187 603 119 c 0
849 0 m 1
 924 714 l 1
 978 714 l 1
 904 0 l 1
 849 0 l 1
EndSplineSet
EndChar
StartChar: uF2002
Encoding: 991234 991234 68
Width: 1000
Flags: MW
LayerCount: 2
Fore
SplineSet
39 221 m 0
 39 303 64 374 104 416 c 0
 128 441 157 456 189 456 c 0
 241 456 282 429 312 401 c 1
 312 722 l 1
 376 722 l 1
 376 0 l 1
 309 0 l 1
 309 52 l 1
 280 20 240 -11 184 -11 c 0
 154 -11 126 3 103 28 c 0
 64 70 39 142 39 221 c 0
105 222 m 0
 105 150 125 105 151 80 c 0
 172 59 199 51 219 51 c 0
 269 51 309 101 309 134 c 2
 309 325 l 2
 309 341 307 347 291 364 c 0
 266 393 238 394 229 394 c 2
 227 394 l 2
 178 394 105 353 105 222 c 0
527 0 m 1
 527 694 l 1
 715 694 l 2
 777 694 823 679 858 657 c 0
 915 620 938 563 938 520 c 0xf8
 938 457 893 392 796 363 c 1
 881 347 961 282 961 188 c 0
 961 121 922 65 868 32 c 0
 841 16 811 6 780 2 c 0
 766 0 750 0 736 0 c 2
 527 0 l 1
598 56 m 1
 718 56 l 2
 791 56 841 83 868 119 c 0
 884 140 892 165 892 189 c 0xf4
 892 233 863 281 811 308 c 0
 792 318 768 326 742 329 c 0
 728 330 713 330 699 330 c 2
 599 330 l 1
 598 293 l 1
 598 56 l 1
598 392 m 1
 699 392 l 2
 765 392 813 416 841 447 c 0
 860 469 871 494 871 519 c 0xf8
 871 567 825 638 695 638 c 2
 599 638 l 1
 598 603 l 1
 598 392 l 1
EndSplineSet
EndChar
StartChar: uF2021
Encoding: 991265 991265 10
Width: 1000
VWidth: 0
Flags: MW
LayerCount: 2
Fore
SplineSet
82 0 m 5
 350 365 l 5
 350 366 l 5
 96 694 l 5
 200 694 l 5
 394 433 l 5
 582 694 l 5
 678 694 l 5
 436 366 l 5
 436 365 l 5
 720 0 l 5
 614 0 l 5
 394 305 l 5
 392 305 l 5
 178 0 l 5
 82 0 l 5
828 0 m 5
 828 694 l 5
 918 694 l 5
 918 0 l 5
 828 0 l 5
EndSplineSet
EndChar
StartChar: uF2022
Encoding: 991266 991266 11
Width: 1000
VWidth: 0
Flags: MW
LayerCount: 2
Fore
SplineSet
42 0 m 1
 254 366 l 1
 254 367 l 1
 56 694 l 1
 162 694 l 1
 306 456 l 1
 442 694 l 1
 538 694 l 1
 354 375 l 1
 354 374 l 1
 580 0 l 1
 476 0 l 1
 304 284 l 1
 302 284 l 1
 138 0 l 1
 42 0 l 1
640 0 m 1
 640 694 l 1
 730 694 l 1
 730 0 l 1
 640 0 l 1
868 0 m 1
 868 694 l 1
 958 694 l 1
 958 0 l 1
 868 0 l 1
EndSplineSet
EndChar
StartChar: uF2067
Encoding: 991335 991335 12
Width: 1000
Flags: MW
LayerCount: 2
Fore
SplineSet
28 0 m 1
 195 374 l 1
 195 375 l 1
 42 694 l 1
 138 694 l 1
 241 477 l 1
 337 694 l 1
 424 694 l 1
 286 384 l 1
 286 383 l 1
 466 0 l 1
 373 0 l 1
 241 279 l 1
 238 279 l 1
 113 0 l 1
 28 0 l 1
526 0 m 1
 526 694 l 1
 616 694 l 1
 616 0 l 1
 526 0 l 1
704 0 m 1
 704 694 l 1
 794 694 l 1
 794 0 l 1
 704 0 l 1
882 0 m 1
 882 694 l 1
 972 694 l 1
 972 0 l 1
 882 0 l 1
EndSplineSet
EndChar
StartChar: uF2068
Encoding: 991336 991336 13
Width: 1000
Flags: MW
LayerCount: 2
Fore
SplineSet
18 0 m 1
 164 377 l 1
 164 378 l 1
 32 694 l 1
 130 694 l 1
 211 499 l 1
 285 694 l 1
 374 694 l 1
 256 389 l 1
 256 388 l 1
 416 0 l 1
 321 0 l 1
 211 267 l 1
 209 267 l 1
 105 0 l 1
 18 0 l 1
456 0 m 1
 456 694 l 1
 546 694 l 1
 546 0 l 1
 456 0 l 1
584 694 m 1
 676 694 l 1
 712 501 768 241 790 124 c 1
 904 694 l 1
 982 694 l 1
 828 0 l 1
 736 0 l 1
 584 694 l 1
EndSplineSet
EndChar
StartChar: uF2069
Encoding: 991337 991337 14
Width: 1000
VWidth: 0
Flags: MW
LayerCount: 2
Fore
SplineSet
48 0 m 1
 214 373 l 1
 214 374 l 1
 62 694 l 1
 157 694 l 1
 260 477 l 1
 356 694 l 1
 444 694 l 1
 304 384 l 1
 304 383 l 1
 486 0 l 1
 392 0 l 1
 259 279 l 1
 256 279 l 1
 132 0 l 1
 48 0 l 1
514 694 m 1
 608 694 l 1
 634 501 712 218 742 101 c 1
 874 694 l 1
 952 694 l 1
 780 0 l 1
 688 0 l 1
 514 694 l 1
EndSplineSet
EndChar
StartChar: uF206A
Encoding: 991338 991338 25
Width: 1000
VWidth: 0
Flags: MW
LayerCount: 2
Fore
SplineSet
188 0 m 1
 382 228 l 1
 382 230 l 1
 194 445 l 1
 276 445 l 1
 414 280 l 1
 416 280 l 1
 548 445 l 1
 632 445 l 1
 448 230 l 1
 448 229 l 1
 648 0 l 1
 564 0 l 1
 414 188 l 1
 270 0 l 1
 188 0 l 1
722 590 m 1
 722 679 l 1
 812 679 l 1
 812 590 l 1
 722 590 l 1
730 0 m 1
 730 445 l 1
 804 445 l 1
 804 0 l 1
 730 0 l 1
EndSplineSet
EndChar
StartChar: uF206B
Encoding: 991339 991339 26
Width: 1000
Flags: MW
LayerCount: 2
Fore
SplineSet
68 0 m 1
 262 228 l 1
 262 230 l 1
 74 445 l 1
 157 445 l 1
 295 280 l 1
 296 280 l 1
 429 445 l 1
 512 445 l 1
 328 230 l 1
 328 229 l 1
 528 0 l 1
 445 0 l 1
 295 188 l 1
 151 0 l 1
 68 0 l 1
603 590 m 1
 603 679 l 1
 693 679 l 1
 693 590 l 1
 603 590 l 1
610 0 m 1
 610 445 l 1
 685 445 l 1
 685 0 l 1
 610 0 l 1
842 590 m 1
 842 679 l 1
 932 679 l 1
 932 590 l 1
 842 590 l 1
849 0 m 1
 849 445 l 1
 924 445 l 1
 924 0 l 1
 849 0 l 1
EndSplineSet
EndChar
StartChar: uF206C
Encoding: 991340 991340 27
Width: 1000
VWidth: 0
Flags: W
LayerCount: 2
Fore
SplineSet
54 0 m 1
 197 228 l 1
 197 230 l 1
 60 445 l 1
 141 445 l 1
 237 295 l 1
 238 295 l 1
 332 445 l 1
 410 445 l 1
 279 231 l 1
 279 230 l 1
 426 0 l 1
 343 0 l 1
 238 165 l 1
 137 0 l 1
 54 0 l 1
478 590 m 1
 478 679 l 1
 564 679 l 1
 564 590 l 1
 478 590 l 1
483 0 m 1
 483 445 l 1
 558 445 l 1
 558 0 l 1
 483 0 l 1
668 590 m 1
 668 679 l 1
 754 679 l 1
 754 590 l 1
 668 590 l 1
673 0 m 1
 673 445 l 1
 748 445 l 1
 748 0 l 1
 673 0 l 1
858 590 m 1
 858 679 l 1
 946 679 l 1
 946 590 l 1
 858 590 l 1
863 0 m 1
 863 445 l 1
 938 445 l 1
 938 0 l 1
 863 0 l 1
EndSplineSet
EndChar
StartChar: uF206D
Encoding: 991341 991341 28
Width: 1000
Flags: W
LayerCount: 2
Fore
SplineSet
24 0 m 1
 166 228 l 1
 166 230 l 1
 30 445 l 1
 111 445 l 1
 207 295 l 1
 207 295 l 1
 301 445 l 1
 380 445 l 1
 249 231 l 1
 249 230 l 1
 396 0 l 1
 313 0 l 1
 208 165 l 1
 107 0 l 1
 24 0 l 1
448 590 m 1
 448 679 l 1
 534 679 l 1
 534 590 l 1
 448 590 l 1
453 0 m 1
 453 445 l 1
 528 445 l 1
 528 0 l 1
 453 0 l 1
596 445 m 1
 675 445 l 1
 755 201 l 2
 789 98 793 81 798 50 c 1
 807 116 889 406 902 445 c 1
 976 445 l 1
 840 0 l 1
 752 0 l 1
 596 445 l 1
EndSplineSet
EndChar
StartChar: uF206E
Encoding: 991342 991342 29
Width: 1000
VWidth: 0
Flags: MW
LayerCount: 2
Fore
SplineSet
46 0 m 1
 240 228 l 1
 240 230 l 1
 52 445 l 1
 136 445 l 1
 274 280 l 1
 274 280 l 1
 408 445 l 1
 490 445 l 1
 306 230 l 1
 306 229 l 1
 506 0 l 1
 424 0 l 1
 274 188 l 1
 130 0 l 1
 46 0 l 1
522 445 m 1
 598 445 l 1
 692 201 l 2
 729 97 735 81 740 50 c 1
 749 116 867 406 880 445 c 1
 954 445 l 1
 782 0 l 1
 694 0 l 1
 522 445 l 1
EndSplineSet
EndChar
StartChar: uF2071
Encoding: 991345 991345 81
Width: 1000
Flags: MW
LayerCount: 2
Fore
SplineSet
148 583 m 0
 148 644 197 694 258 694 c 0
 322 694 370 642 370 583 c 0
 370 522 319 472 258 472 c 0
 194 472 148 524 148 583 c 0
188 583 m 0
 188 548 214 515 254 513 c 0
 255 513 257 513 258 513 c 0
 296 513 328 542 328 583 c 0
 328 619 300 654 258 654 c 0
 220 654 188 624 188 583 c 0
420 0 m 1
 420 691 l 1
 852 691 l 1
 852 625 l 1
 510 627 l 1
 510 376 l 1
 810 376 l 1
 810 315 l 1
 510 315 l 1
 510 0 l 1
 420 0 l 1
EndSplineSet
EndChar
StartChar: uF2072
Encoding: 991346 991346 82
Width: 1000
Flags: MW
LayerCount: 2
Fore
SplineSet
32 623 m 5
 32 689 l 5
 528 689 l 5
 528 623 l 5
 326 624 l 5
 326 0 l 5
 236 0 l 5
 236 624 l 5
 32 623 l 5
594 0 m 5
 594 694 l 5
 760 694 l 6
 862 694 950 591 950 520 c 4xf8
 950 457 897 392 818 363 c 5
 883 347 968 282 968 188 c 4
 968 97 876 0 776 0 c 6
 594 0 l 5
678 56 m 5
 762 56 l 6
 838 56 886 114 886 189 c 4xf4
 886 263 838 330 750 330 c 6
 678 330 l 5
 678 293 l 5
 678 56 l 5
678 392 m 5
 750 392 l 6
 821 392 870 449 870 519 c 4xf8
 870 567 838 638 746 638 c 6
 678 638 l 5
 678 603 l 5
 678 392 l 5
EndSplineSet
EndChar
StartChar: uF2073
Encoding: 991347 991347 83
Width: 1000
Flags: MW
LayerCount: 2
Fore
SplineSet
27 0 m 1
 27 692 l 1
 255 692 l 1
 255 602 l 1
 89 605 l 1
 89 387 l 1
 233 387 l 1
 233 305 l 1
 89 305 l 1
 89 0 l 1
 27 0 l 1
291 0 m 1
 416 695 l 1
 489 695 l 1
 613 0 l 1
 550 0 l 1
 518 172 l 1
 377 172 l 1
 346 0 l 1
 291 0 l 1
391 246 m 1
 505 246 l 1
 454 544 l 1
 448 591 l 1
 441 528 430 473 391 246 c 1
636 0 m 1
 770 367 l 1
 770 368 l 1
 644 695 l 1
 717 695 l 1
 801 465 l 1
 883 695 l 1
 951 695 l 1
 832 367 l 1
 832 367 l 1
 973 0 l 1
 900 0 l 1
 801 279 l 1
 801 279 l 1
 705 0 l 1
 636 0 l 1
EndSplineSet
EndChar
StartChar: uF2690
Encoding: 992912 992912 84
Width: 1000
Flags: MW
LayerCount: 2
Fore
SplineSet
291 310 m 2
 291 329 l 2
 291 427 298 615 436 666 c 0
 454 673 474 678 499 678 c 0
 551 678 601 655 635 616 c 0
 695 548 706 433 708 360 c 0
 708 347 708 335 708 325 c 0
 708 122 657 24 562 -11 c 0
 545 -18 525 -22 499 -22 c 0
 416 -22 292 26 291 310 c 2
369 308 m 2
 369 143 409 77 451 52 c 0
 468 42 485 39 500 39 c 0
 520 39 545 45 567 66 c 0
 601 99 630 168 630 309 c 2
 630 370 l 2
 630 468 614 528 591 564 c 0
 564 607 528 616 499 616 c 0
 447 616 369 583 369 370 c 2
 369 308 l 2
EndSplineSet
EndChar
StartChar: uF2691
Encoding: 992913 992913 85
Width: 1000
Flags: MW
LayerCount: 2
Fore
SplineSet
340 554 m 1
 340 612 l 1
 455 612 504 653 531 678 c 1
 550 678 l 1
 550 59 l 1
 675 59 l 1
 675 0 l 1
 345 0 l 1
 345 59 l 1
 470 59 l 1
 470 577 l 1
 435 563 400 554 340 554 c 1
EndSplineSet
EndChar
StartChar: uF2692
Encoding: 992914 992914 86
Width: 1000
Flags: MW
LayerCount: 2
Fore
SplineSet
291 514 m 1
 316 598 369 678 485 678 c 0
 618 678 699 577 699 464 c 0
 699 367 636 313 532 221 c 0
 499 192 451 146 371 70 c 1
 699 71 l 1
 699 0 l 1
 299 0 l 1
 299 65 l 1
 429 194 l 2
 525 283 616 354 616 461 c 0
 616 545 558 613 472 613 c 0
 350 613 338 461 334 459 c 1
 291 514 l 1
EndSplineSet
EndChar
StartChar: uF2693
Encoding: 992915 992915 87
Width: 1000
Flags: MW
LayerCount: 2
Fore
SplineSet
291 81 m 1
 302 142 l 1
 335 97 374 72 408 58 c 0
 446 42 479 40 494 40 c 0
 532 40 562 56 584 82 c 0
 605 107 617 142 617 182 c 0xe8
 617 192 617 202 615 212 c 0
 610 246 594 276 570 296 c 0
 550 313 523 323 489 323 c 2
 416 323 l 1
 416 385 l 1
 474 389 481 390 488 391 c 0
 554 403 597 464 597 525 c 0
 597 552 587 576 570 592 c 0
 552 609 527 618 496 618 c 0
 468 618 440 610 416 597 c 0
 393 584 372 566 357 543 c 0
 351 534 346 524 341 514 c 1
 305 569 l 1
 331 609 361 635 390 651 c 0
 433 675 475 678 498 678 c 0
 542 678 585 664 618 640 c 0
 655 613 679 573 679 525 c 0xf0
 679 497 672 455 640 414 c 0
 623 393 600 372 568 354 c 1
 607 340 638 320 660 296 c 0
 692 262 707 221 707 180 c 0
 707 127 683 71 638 31 c 4
 602 -1 554 -22 495 -22 c 0
 477 -22 435 -20 388 2 c 0
 356 17 322 42 291 81 c 1
EndSplineSet
EndChar
StartChar: uF2694
Encoding: 992916 992916 88
Width: 1000
Flags: MW
LayerCount: 2
Fore
SplineSet
277 171 m 1
 277 219 l 0
 277 232 278 234 288 250 c 2
 530 655 l 1
 622 655 l 1
 622 232 l 1xe8
 721 232 l 1
 721 171 l 1
 622 171 l 1
 622 0 l 1
 542 0 l 1
 542 171 l 1xf0
 277 171 l 1
355 232 m 1
 548 232 l 1xe8
 548 618 l 1
 535 538 483 449 355 232 c 1
EndSplineSet
EndChar
StartChar: uF2695
Encoding: 992917 992917 89
Width: 1000
Flags: MW
LayerCount: 2
Fore
SplineSet
288 76 m 1
 322 132 l 1
 326 125 331 119 335 113 c 0
 353 89 374 72 394 61 c 0
 427 43 460 40 478 40 c 0
 508 40 547 52 575 87 c 0
 595 112 609 150 609 205 c 0
 609 216 609 227 608 237 c 0
 604 284 589 315 572 335 c 0
 552 358 527 366 507 366 c 0
 428 366 397 286 397 286 c 1
 329 286 l 1
 329 655 l 1
 666 655 l 1
 666 591 l 1
 402 591 l 1
 402 386 l 1
 435 411 462 427 509 427 c 0
 558 427 603 405 638 367 c 4
 675 327 699 270 699 204 c 0
 699 140 674 82 632 41 c 0
 593 2 539 -22 479 -22 c 0
 437 -22 397 -11 362 9 c 0
 333 26 307 49 288 76 c 1
EndSplineSet
EndChar
StartChar: uF2696
Encoding: 992918 992918 90
Width: 1000
Flags: MW
LayerCount: 2
Fore
SplineSet
292 323 m 0
 292 423 320 513 369 577 c 0
 416 640 483 678 559 678 c 0
 609 678 640 667 666 658 c 1
 666 598 l 1
 639 607 609 619 559 619 c 0
 504 619 463 591 433 551 c 0
 397 503 379 436 376 380 c 1
 418 433 482 462 545 462 c 0
 596 462 626 439 654 401 c 0
 691 349 705 299 707 241 c 0
 707 235 707 230 707 224 c 0
 707 146 688 93 638 40 c 0
 598 -3 556 -22 502 -22 c 0
 454 -22 393 -3 349 65 c 0
 315 117 292 199 292 323 c 0
378 247 m 0
 378 238 378 229 379 220 c 0
 387 146 408 40 501 40 c 0
 577 40 610 107 620 151 c 0
 624 173 625 195 625 218 c 0
 625 232 625 244 624 255 c 0
 622 294 615 320 597 349 c 0
 567 396 529 401 506 401 c 0
 439 401 393 348 381 280 c 4
 379 269 378 258 378 247 c 0
EndSplineSet
EndChar
StartChar: uF2697
Encoding: 992919 992919 91
Width: 1000
Flags: MW
LayerCount: 2
Fore
SplineSet
291 585 m 1
 291 656 l 1
 707 655 l 1
 707 590 l 1
 566 428 486 208 486 -11 c 1
 401 -11 l 1
 401 188 469 404 639 585 c 1
 291 585 l 1
EndSplineSet
EndChar
StartChar: uF2698
Encoding: 992920 992920 92
Width: 1000
Flags: MW
LayerCount: 2
Fore
SplineSet
291 180 m 0xf2
 291 249 332 319 430 354 c 1
 352 377 305 438 305 502 c 0
 305 595 388 678 499 678 c 0
 501 678 502 678 504 678 c 4
 607 676 693 598 693 503 c 0xec
 693 443 656 385 568 354 c 1
 632 334 707 276 707 179 c 0
 707 74 617 -22 499 -22 c 0
 381 -22 291 73 291 180 c 0xf2
372 181 m 0
 372 131 389 91 419 67 c 0
 440 50 467 40 499 40 c 0
 527 40 557 49 581 69 c 0
 607 91 626 128 626 182 c 0xf2
 626 191 625 200 624 209 c 0
 619 243 605 271 584 291 c 0
 562 312 533 323 498 323 c 0
 474 323 445 315 422 297 c 0
 398 278 378 249 373 205 c 0
 372 197 372 189 372 181 c 0
375 502 m 0
 375 465 389 435 412 415 c 0
 434 396 464 385 498 385 c 0
 532 385 561 395 582 412 c 0
 608 433 623 464 623 502 c 0
 623 512 622 522 620 531 c 0
 614 558 599 581 578 596 c 0
 557 611 530 619 499 619 c 0xec
 466 619 437 610 416 593 c 0
 394 575 380 550 376 519 c 0
 375 514 375 508 375 502 c 0
EndSplineSet
EndChar
StartChar: uF2699
Encoding: 992921 992921 93
Width: 1000
Flags: MW
LayerCount: 2
Fore
SplineSet
292 435 m 0
 292 508 311 563 364 618 c 0
 406 660 447 678 502 678 c 0
 541 678 589 665 629 621 c 0
 673 572 707 485 707 333 c 0
 707 220 672 124 619 61 c 0
 575 8 517 -22 455 -22 c 0
 393 -22 358 -3 322 24 c 1
 353 78 l 1
 376 62 401 40 457 40 c 0
 505 40 548 67 579 119 c 0
 598 152 613 194 620 245 c 0
 621 255 622 265 623 276 c 1
 579 224 522 193 454 193 c 0
 402 193 373 216 346 254 c 0
 304 312 292 366 292 435 c 0
374 435 m 0
 374 381 377 343 406 301 c 0
 425 274 451 255 493 255 c 0
 531 255 564 273 586 301 c 4
 608 329 621 368 621 410 c 0
 621 476 602 618 503 618 c 0
 475 618 452 609 434 595 c 0
 403 571 386 534 380 507 c 0
 374 483 374 460 374 435 c 0
EndSplineSet
EndChar
StartChar: uF269A
Encoding: 992922 992922 94
Width: 1000
Flags: MW
LayerCount: 2
Fore
SplineSet
291 310 m 2
 291 329 l 2
 291 427 298 615 436 666 c 0
 454 673 474 678 499 678 c 0
 551 678 601 655 635 616 c 0
 695 548 706 433 708 360 c 0
 708 347 708 335 708 325 c 0
 708 122 657 24 562 -11 c 0
 545 -18 525 -22 499 -22 c 0
 416 -22 292 26 291 310 c 2
369 308 m 2
 369 220 380 160 397 120 c 1
 568 591 l 1
 545 611 520 616 499 616 c 0
 447 616 369 583 369 370 c 2
 369 308 l 2
423 76 m 1
 432 66 442 58 451 52 c 0
 468 42 485 39 500 39 c 0
 520 39 545 45 567 66 c 0
 601 99 630 168 630 309 c 2
 630 370 l 2
 630 460 617 517 597 554 c 1
 423 76 l 1
EndSplineSet
EndChar
StartChar: uF269B
Encoding: 992923 992923 95
Width: 1000
VWidth: 0
Flags: MW
LayerCount: 2
Fore
SplineSet
113 0 m 1
 113 694 l 1
 203 694 l 1
 203 0 l 1
 113 0 l 1
341 0 m 1
 341 694 l 1
 431 694 l 1
 431 0 l 1
 341 0 l 1
569 0 m 1
 569 694 l 1
 659 694 l 1
 659 0 l 1
 569 0 l 1
797 0 m 5
 797 694 l 5
 887 694 l 5
 887 0 l 5
 797 0 l 5
EndSplineSet
EndChar
StartChar: uF2E46
Encoding: 994886 994886 96
Width: 1000
VWidth: 0
Flags: MW
LayerCount: 2
Fore
SplineSet
25 0 m 5
 211 694 l 5
 265 694 l 5
 457 0 l 5
 365 0 l 5
 319 204 l 5
 145 204 l 5
 100 0 l 5
 25 0 l 5
158 260 m 5
 307 260 l 5
 240 579 l 29
 232 624 l 21
 223 551 209 497 158 260 c 5
507 0 m 5
 507 694 l 5
 607 694 l 5
 645 529 726 246 741 92 c 5
 741 92 l 5
 760 305 829 495 875 694 c 5
 975 694 l 5
 975 0 l 5
 897 0 l 5
 897 592 l 6
 897 612 896 624 896 624 c 5
 896 624 894 606 890 587 c 4
 849 397 805 210 762 22 c 5
 719 22 l 5
 679 197 606 456 585 624 c 5
 585 0 l 5
 507 0 l 5
EndSplineSet
EndChar
StartChar: uF2E47
Encoding: 994887 994887 97
Width: 1000
Flags: MW
LayerCount: 2
Fore
SplineSet
47 0 m 5
 47 694 l 5
 133 694 l 5
 133 323 l 5
 351 694 l 5
 439 694 l 5
 255 413 l 5
 453 0 l 5
 359 0 l 5
 205 341 l 5
 133 228 l 5
 133 0 l 5
 47 0 l 5
547 0 m 5
 547 694 l 5
 633 694 l 5
 633 323 l 5
 851 694 l 5
 939 694 l 5
 755 413 l 5
 953 0 l 5
 859 0 l 5
 705 341 l 5
 633 228 l 5
 633 0 l 5
 547 0 l 5
EndSplineSet
EndChar
StartChar: uF2E48
Encoding: 994888 994888 98
Width: 1000
Flags: MW
LayerCount: 2
Fore
SplineSet
52 0 m 1
 52 694 l 1
 156 694 l 1
 382 150 l 1
 415 70 l 1
 415 694 l 1
 479 694 l 1
 479 0 l 1
 376 0 l 1
 149 544 l 1
 117 624 l 1
 117 0 l 1
 52 0 l 1
584 221 m 0
 584 336 654 461 766 461 c 0
 865 461 948 355 948 220 c 0
 948 84 860 -11 766 -11 c 0
 672 -11 584 84 584 221 c 0
649 231 m 0
 649 119 701 53 766 53 c 0
 821 53 882 106 882 231 c 0
 882 337 831 399 766 399 c 0
 713 399 649 352 649 231 c 0
EndSplineSet
EndChar
StartChar: uF2E49
Encoding: 994889 994889 99
Width: 1000
Flags: MW
LayerCount: 2
Fore
SplineSet
64 0 m 5
 64 694 l 5
 241 694 l 6
 368 694 424 582 424 493 c 4
 424 394 348 289 223 289 c 6
 153 289 l 5
 153 0 l 5
 64 0 l 5
151 347 m 5
 231 347 l 6
 320 347 343 434 343 493 c 4
 343 550 320 638 231 638 c 6
 151 638 l 5
 151 347 l 5
552 0 m 5
 552 694 l 5
 642 694 l 5
 642 392 l 5
 846 392 l 5
 846 694 l 5
 936 694 l 5
 936 0 l 5
 846 0 l 5
 846 330 l 5
 642 330 l 5
 642 0 l 5
 552 0 l 5
EndSplineSet
EndChar
StartChar: uF2E4A
Encoding: 994890 994890 100
Width: 1000
VWidth: 0
Flags: MW
LayerCount: 2
Fore
SplineSet
43 0 m 5
 43 694 l 5
 220 694 l 6
 347 694 403 582 403 493 c 4
 403 394 327 289 202 289 c 6
 132 289 l 5
 132 0 l 5
 43 0 l 5
130 347 m 5
 210 347 l 6
 299 347 322 434 322 493 c 4
 322 550 299 638 210 638 c 6
 130 638 l 5
 130 347 l 5
489 0 m 5
 489 694 l 5
 589 694 l 5
 627 529 708 246 723 92 c 5
 723 92 l 5
 742 305 811 495 857 694 c 5
 957 694 l 5
 957 0 l 5
 879 0 l 5
 879 592 l 6
 879 612 878 624 878 624 c 5
 878 624 876 606 872 587 c 4
 831 397 787 210 744 22 c 5
 701 22 l 5
 661 197 588 456 567 624 c 5
 567 0 l 5
 489 0 l 5
EndSplineSet
EndChar
StartChar: uF2E4B
Encoding: 994891 994891 101
Width: 1000
VWidth: 0
Flags: MW
LayerCount: 2
Fore
SplineSet
64 0 m 5
 64 694 l 5
 241 694 l 6
 368 694 424 582 424 493 c 4
 424 394 348 289 223 289 c 6
 153 289 l 5
 153 0 l 5
 64 0 l 5
151 347 m 5
 231 347 l 6
 320 347 343 434 343 493 c 4
 343 550 320 638 231 638 c 6
 151 638 l 5
 151 347 l 5
552 0 m 5
 552 694 l 5
 722 694 l 6
 829 694 916 581 916 508 c 4
 916 437 884 360 802 326 c 5
 936 0 l 5
 846 0 l 5
 734 316 l 5
 639 316 l 5
 639 0 l 5
 552 0 l 5
639 378 m 5
 707 378 l 6
 789 378 835 430 835 507 c 4
 835 573 799 638 720 638 c 6
 639 638 l 5
 639 378 l 5
EndSplineSet
EndChar
StartChar: uF2E4C
Encoding: 994892 994892 102
Width: 1000
VWidth: 0
Flags: MW
LayerCount: 2
Fore
SplineSet
32 642 m 1
 32 689 l 1
 359 689 l 1
 359 642 l 1
 223 644 l 1
 223 276 l 1
 168 276 l 1
 168 644 l 1
 32 642 l 1
428 276 m 1
 428 690 l 1
 670 690 l 1
 670 644 l 1
 484 645 l 1
 484 513 l 1
 655 513 l 1
 655 470 l 1
 484 470 l 1
 484 324 l 1
 677 326 l 1
 677 276 l 1
 428 276 l 1
749 276 m 1
 749 692 l 1
 805 692 l 1
 805 321 l 1
 968 322 l 1
 968 276 l 1
 749 276 l 1
EndSplineSet
EndChar
StartChar: uF2E4D
Encoding: 994893 994893 103
Width: 1000
VWidth: 0
Flags: MW
LayerCount: 2
Fore
SplineSet
63 642 m 1
 63 689 l 1
 433 689 l 1
 433 642 l 1
 280 644 l 1
 280 276 l 1
 217 276 l 1
 217 644 l 1
 63 642 l 1
514 276 m 1
 514 692 l 1
 593 692 l 1
 684 458 l 2
 705 401 722 355 725 341 c 1
 725 341 l 1
 730 365 762 444 766 457 c 2
 856 692 l 1
 937 692 l 1
 937 276 l 1
 882 276 l 1
 882 620 l 1
 882 632 882 640 882 640 c 1
 881 637 880 628 876 618 c 2
 839 520 l 17
 750 289 l 1
 699 289 l 1
 612 512 l 2
 589 576 574 614 568 640 c 1
 568 276 l 1
 514 276 l 1
EndSplineSet
EndChar
StartChar: uF2E4E
Encoding: 994894 994894 104
Width: 1000
VWidth: 0
Flags: MW
LayerCount: 2
Fore
SplineSet
42 694 m 5
 135 694 l 5
 180 521 246 210 282 70 c 5
 402 694 l 5
 480 694 l 5
 320 0 l 5
 228 0 l 5
 42 694 l 5
546 47 m 5
 561 130 l 5
 609 91 675 47 753 47 c 4
 823 47 878 110 878 179 c 4
 878 232 843 279 801 299 c 4
 746 327 652 320 586 421 c 4
 569 448 558 479 557 519 c 4
 557 616 642 716 760 716 c 4
 764 716 767 716 771 716 c 4
 829 714 874 694 923 668 c 5
 909 585 l 5
 860 624 822 649 759 649 c 4
 686 649 637 590 637 531 c 4
 637 481 672 442 707 424 c 4
 730 413 799 397 827 382 c 4
 888 356 958 289 958 189 c 4
 958 81 869 -22 753 -22 c 4
 679 -22 609 7 546 47 c 5
EndSplineSet
EndChar
StartChar: uF2E4F
Encoding: 994895 994895 105
Width: 1000
Flags: MW
LayerCount: 2
Fore
SplineSet
574 223 m 0
 574 327 646 437 772 437 c 0
 828 437 856 430 911 398 c 1
 900 338 l 1
 865 360 842 380 771 380 c 0
 695 380 655 320 646 252 c 4
 645 242 644 233 644 223 c 0
 644 136 694 70 770 70 c 0
 840 70 882 99 911 119 c 1
 916 58 l 1
 876 31 831 13 769 13 c 0
 658 13 574 107 574 223 c 0
178 -19 m 0
 178 -11 184 4 190 11 c 2
 748 720 l 2
 754 728 764 746 784 746 c 0
 798 746 811 736 811 719 c 0
 811 712 803 700 798 694 c 2
 237 -20 l 2
 230 -29 223 -37 219 -41 c 0
 213 -45 208 -45 205 -47 c 1
 205 -47 l 2
 191 -47 178 -34 178 -19 c 0
84 424 m 0
 84 519 242 542 335 543 c 1
 335 574 l 2
 334 603 333 629 311 656 c 0
 289 682 266 683 254 683 c 0
 187 683 151 659 120 638 c 1
 114 698 l 1
 156 722 197 737 257 737 c 0
 342 737 400 671 405 597 c 2
 405 322 l 1
 336 322 l 1
 336 354 l 1
 288 321 229 313 187 313 c 0
 111 313 84 383 84 424 c 0
150 425 m 0
 150 392 186 368 234 368 c 0
 275 368 335 382 335 440 c 2
 335 496 l 1
 269 495 150 482 150 425 c 0
EndSplineSet
EndChar
StartChar: uF2E50
Encoding: 994896 994896 106
Width: 1000
VWidth: 0
Flags: MW
LayerCount: 2
Fore
SplineSet
36 118 m 0
 36 237 147 250 187 252 c 1
 187 289 l 2
 186 317 187 350 175 379 c 0
 164 404 151 407 142 407 c 0
 99 407 77 372 60 349 c 1
 56 426 l 1
 83 454 108 469 144 469 c 0
 203 469 235 397 237 308 c 2
 237 0 l 1
 188 0 l 1
 188 45 l 1
 162 3 127 -11 100 -11 c 0
 55 -11 36 65 36 118 c 0
84 119 m 0
 84 82 103 54 130 54 c 0
 152 54 187 70 187 137 c 2
 187 204 l 1
 149 202 84 187 84 119 c 0
327 0 m 1
 327 98 l 1
 378 98 l 1
 378 0 l 1
 327 0 l 1
469 0 m 1
 469 458 l 1
 516 458 l 1
 516 407 l 1
 516 378 l 1
 524 403 548 463 596 463 c 0
 648 463 660 412 667 376 c 1
 675 401 699 464 748 464 c 0
 770 464 786 454 797 439 c 0
 816 413 820 370 822 328 c 0
 823 312 823 298 823 284 c 2
 823 0 l 1
 772 0 l 1
 772 295 l 2
 772 351 767 399 725 399 c 0
 686 399 672 322 671 255 c 2
 671 0 l 1
 621 0 l 1
 621 295 l 2
 621 351 615 399 573 399 c 0
 534 399 520 322 519 255 c 2
 519 0 l 1
 469 0 l 1
912 0 m 1
 912 98 l 1
 964 98 l 1
 964 0 l 1
 912 0 l 1
EndSplineSet
EndChar
StartChar: uF2E51
Encoding: 994897 994897 107
Width: 1000
Flags: MW
LayerCount: 2
Fore
SplineSet
579 223 m 0
 579 327 651 437 777 437 c 0
 833 437 861 430 916 398 c 1
 906 338 l 1
 871 360 847 380 776 380 c 0
 700 380 660 320 651 252 c 4
 650 242 649 233 649 223 c 0
 649 136 699 70 775 70 c 0
 845 70 887 99 916 119 c 1
 921 58 l 1
 881 31 836 13 774 13 c 0
 663 13 579 107 579 223 c 0
183 -19 m 0
 183 -11 190 4 196 11 c 2
 754 720 l 2
 760 728 770 746 790 746 c 0
 804 746 816 736 816 719 c 0
 816 712 809 700 804 694 c 2
 243 -20 l 2
 236 -29 229 -37 225 -41 c 0
 219 -45 213 -45 210 -47 c 1
 210 -47 l 2
 196 -47 183 -34 183 -19 c 0
79 523 m 0
 79 627 151 737 277 737 c 0
 333 737 361 730 416 698 c 1
 406 638 l 1
 371 660 347 680 276 680 c 0
 200 680 160 620 151 552 c 4
 150 542 149 533 149 523 c 0
 149 436 199 370 275 370 c 0
 345 370 387 399 416 419 c 1
 421 358 l 1
 381 331 336 313 274 313 c 0
 163 313 79 407 79 523 c 0
EndSplineSet
EndChar
StartChar: uF2E52
Encoding: 994898 994898 108
Width: 1000
Flags: MW
LayerCount: 2
Fore
SplineSet
45 223 m 0
 45 339 101 461 198 461 c 0
 241 461 263 452 305 417 c 1
 297 351 l 1
 270 375 252 397 197 397 c 0
 139 397 107 330 100 255 c 4
 99 244 99 234 99 223 c 0
 99 126 138 53 196 53 c 0
 250 53 283 85 305 107 c 1
 309 40 l 1
 278 10 243 -11 195 -11 c 0
 110 -11 45 94 45 223 c 0
395 0 m 1
 395 84 l 1
 454 84 l 1
 454 0 l 1
 395 0 l 1
546 223 m 0
 546 339 602 461 699 461 c 0
 742 461 765 452 807 417 c 1
 798 351 l 1
 771 375 753 397 698 397 c 0
 640 397 609 330 602 255 c 4
 601 244 600 234 600 223 c 0
 600 126 640 53 698 53 c 0
 752 53 785 85 807 107 c 1
 810 40 l 1
 779 10 745 -11 697 -11 c 0
 612 -11 546 94 546 223 c 0
897 0 m 1
 897 84 l 1
 955 84 l 1
 955 0 l 1
 897 0 l 1
EndSplineSet
EndChar
StartChar: uF2E53
Encoding: 994899 994899 109
Width: 1000
Flags: MW
LayerCount: 2
Fore
SplineSet
538 221 m 0
 538 325 614 437 736 437 c 0
 843 437 934 342 934 220 c 0
 934 98 839 13 736 13 c 0
 633 13 538 98 538 221 c 0
609 230 m 0
 609 129 666 70 736 70 c 0
 796 70 862 118 862 230 c 0
 862 325 807 382 736 382 c 0
 678 382 609 339 609 230 c 0
170 -19 m 0
 170 -11 176 4 182 11 c 2
 740 720 l 2
 746 728 756 746 776 746 c 0
 790 746 803 736 803 719 c 0
 803 712 795 700 790 694 c 2
 229 -20 l 2
 222 -29 215 -37 211 -41 c 0
 205 -45 200 -45 197 -47 c 1
 197 -47 l 2
 183 -47 170 -34 170 -19 c 0
66 523 m 0
 66 627 138 737 264 737 c 0
 320 737 348 730 403 698 c 1
 392 638 l 1
 357 660 334 680 263 680 c 0
 187 680 147 620 138 552 c 4
 137 542 136 533 136 523 c 0
 136 436 186 370 262 370 c 0
 332 370 374 399 403 419 c 1
 408 358 l 1
 368 331 323 313 261 313 c 0
 150 313 66 407 66 523 c 0
EndSplineSet
EndChar
StartChar: uF2E54
Encoding: 994900 994900 110
Width: 1000
VWidth: 0
Flags: MW
LayerCount: 2
Fore
SplineSet
181 221 m 4
 181 303 211 374 258 416 c 4
 286 441 321 456 359 456 c 4
 421 456 469 429 504 401 c 5
 504 722 l 5
 580 722 l 5
 580 0 l 5
 501 0 l 5
 501 52 l 5
 467 20 419 -11 353 -11 c 4
 317 -11 284 3 257 28 c 4
 211 70 181 142 181 221 c 4
259 222 m 4
 259 150 283 105 314 80 c 4
 339 59 370 51 394 51 c 4
 453 51 501 101 501 134 c 6
 501 325 l 6
 501 341 499 347 480 364 c 4
 450 393 417 394 406 394 c 6
 404 394 l 6
 346 394 259 353 259 222 c 4
744 0 m 5
 744 722 l 5
 819 722 l 5
 819 0 l 5
 744 0 l 5
EndSplineSet
EndChar
StartChar: uF2E55
Encoding: 994901 994901 111
Width: 1000
Flags: MW
LayerCount: 2
Fore
SplineSet
49 0 m 1
 49 722 l 1
 95 722 l 1
 95 384 l 1
 115 422 141 455 183 455 c 0
 249 455 263 385 266 326 c 0
 267 312 267 299 267 288 c 2
 267 0 l 1
 219 0 l 1
 219 281 l 2
 219 340 212 394 159 394 c 0
 113 394 97 314 97 240 c 2
 97 0 l 1
 49 0 l 1
374 0 m 1
 374 694 l 1
 518 694 l 2
 551 694 581 688 612 655 c 0
 649 618 672 558 672 493 c 0
 672 409 630 288 521 288 c 0
 514 288 508 289 501 289 c 2
 429 289 l 1
 429 0 l 1
 374 0 l 1
427 347 m 1
 509 347 l 2
 600 347 622 434 622 493 c 0
 622 550 600 638 509 638 c 2
 427 638 l 1
 427 347 l 1
733 113 m 0
 733 219 840 244 903 245 c 1
 903 279 l 2
 902 311 903 341 888 371 c 0
 873 400 857 401 849 401 c 0
 804 401 778 373 757 350 c 1
 754 417 l 1
 783 444 810 461 851 461 c 0
 908 461 947 387 951 305 c 2
 951 0 l 1
 905 0 l 1
 905 35 l 1
 873 -2 832 -11 803 -11 c 0
 752 -11 733 67 733 113 c 0
778 114 m 0
 778 77 803 51 835 51 c 0
 863 51 903 66 903 130 c 2
 903 193 l 1
 858 192 778 177 778 114 c 0
EndSplineSet
EndChar
StartChar: uF2E56
Encoding: 994902 994902 112
Width: 1000
Flags: MW
LayerCount: 2
Fore
SplineSet
219 0 m 5
 219 722 l 5
 291 722 l 5
 291 236 l 5
 495 445 l 5
 585 445 l 5
 417 273 l 5
 607 0 l 5
 525 0 l 5
 369 224 l 5
 289 142 l 5
 289 0 l 5
 219 0 l 5
706 0 m 5
 706 722 l 5
 781 722 l 5
 781 0 l 5
 706 0 l 5
EndSplineSet
EndChar
StartChar: uF2E57
Encoding: 994903 994903 113
Width: 1000
Flags: MW
LayerCount: 2
Fore
SplineSet
462 0 m 1
 462 722 l 1
 538 722 l 1
 538 0 l 1
 462 0 l 1
EndSplineSet
EndChar
StartChar: uF2E58
Encoding: 994904 994904 114
Width: 1000
VWidth: 0
Flags: W
LayerCount: 2
Fore
SplineSet
38 -195 m 5
 38 445 l 5
 116 445 l 5
 116 195 l 6
 116 149 153 67 222 67 c 4
 285 67 325 119 325 195 c 6
 325 445 l 5
 395 445 l 5
 395 127 l 6
 395 104 395 63 423 63 c 4
 432 63 452 73 452 98 c 4
 451 107 l 5
 500 107 l 5
 500 100 501 94 501 87 c 4
 501 32 459 -11 412 -11 c 4
 386 -11 349 5 331 60 c 5
 288 -8 244 -11 222 -11 c 4
 172 -11 143 17 116 49 c 5
 116 -195 l 5
 38 -195 l 5
632 292 m 4
 632 263 638 240 649 222 c 4
 663 199 686 187 713 187 c 4
 731 187 754 194 771 216 c 4
 784 232 793 257 793 293 c 4
 793 301 792 309 791 316 c 4
 787 343 777 364 763 378 c 4
 749 391 733 398 712 398 c 4
 696 398 675 393 659 376 c 4
 646 363 637 344 633 315 c 4
 632 308 632 300 632 292 c 4
600 -71 m 4
 600 -94 614 -112 635 -124 c 4
 659 -138 691 -146 718 -148 c 4
 724 -149 730 -149 735 -149 c 4
 777 -149 819 -138 845 -120 c 4
 865 -107 878 -91 878 -72 c 4
 878 -31 837 -3 740 -3 c 6
 683 -3 l 5
 657 -4 l 6
 620 -7 600 -43 600 -71 c 4
537 -71 m 4
 537 -30 560 9 595 32 c 5
 581 55 572 76 572 108 c 4
 572 140 583 168 599 192 c 5
 599 193 l 5
 572 233 569 272 569 292 c 4
 569 340 589 387 621 418 c 4
 645 441 676 455 712 455 c 4
 716 455 721 454 725 454 c 4
 751 451 773 442 797 424 c 5
 841 444 899 455 951 455 c 5
 962 392 l 5
 942 394 923 395 903 395 c 4
 880 395 844 392 826 391 c 5
 847 359 858 332 858 292 c 4
 858 248 840 206 813 176 c 4
 788 147 752 129 712 129 c 4
 662 129 633 158 630 159 c 4
 621 139 620 129 620 122 c 4
 620 98 631 69 671 69 c 6
 738 69 l 6
 772 69 823 68 867 49 c 4
 901 35 931 10 943 -33 c 4
 946 -45 948 -57 948 -70 c 4
 948 -115 915 -154 863 -178 c 4
 827 -196 784 -206 737 -206 c 4
 696 -206 657 -197 625 -183 c 4
 595 -170 571 -152 556 -130 c 4
 544 -112 537 -92 537 -71 c 4
EndSplineSet
EndChar
StartChar: uF2E59
Encoding: 994905 994905 115
Width: 1000
VWidth: 0
Flags: W
LayerCount: 2
Fore
SplineSet
42 -195 m 1
 42 445 l 1
 108 445 l 1
 108 195 l 2
 108 149 111 67 187 67 c 0
 257 67 267 119 267 195 c 2
 267 445 l 1
 333 445 l 1
 333 127 l 2
 333 104 339 63 370 63 c 0
 380 63 402 73 402 98 c 0
 401 107 l 1
 456 107 l 1
 456 100 457 94 457 87 c 0
 457 32 410 -11 358 -11 c 0
 329 -11 290 -12 273 43 c 1
 257 -6 211 -11 187 -11 c 0
 132 -11 118 0 108 29 c 1
 108 -195 l 1
 42 -195 l 1
496 0 m 1xdc
 496 450 l 1
 558 450 l 1
 558 404 l 1
 558 380 l 1
 567 398 599 455 652 455 c 0
 712 455 739 412 751 374 c 1
 762 394 795 455 850 455 c 0
 875 455 901 445 918 429 c 0
 944 405 954 368 957 334 c 0
 959 317 958 302 958 288 c 2
 958 0 l 1
 891 0 l 1
 891 281 l 2
 891 340 879 394 827 394 c 0
 781 394 760 314 760 240 c 2
 760 0 l 1
 694 0 l 1
 694 281 l 2
 694 340 681 394 629 394 c 0xec
 583 394 562 314 562 240 c 2
 562 0 l 1
 496 0 l 1xdc
EndSplineSet
EndChar
StartChar: uF2E5A
Encoding: 994906 994906 116
Width: 1000
VWidth: 0
Flags: W
LayerCount: 2
Fore
SplineSet
93 0 m 1xdc
 93 450 l 1
 166 450 l 1
 166 404 l 1
 166 380 l 1
 179 398 219 455 298 455 c 0
 376 455 405 412 419 374 c 1
 433 394 474 455 556 455 c 0
 593 455 620 445 640 429 c 0
 670 405 681 368 685 334 c 0
 687 317 687 302 687 288 c 2
 687 0 l 1
 608 0 l 1
 608 281 l 2
 608 340 599 394 521 394 c 0
 453 394 429 314 429 240 c 2
 429 0 l 1
 351 0 l 1
 351 281 l 2
 351 340 341 394 263 394 c 0xec
 195 394 171 314 171 240 c 2
 171 0 l 1
 93 0 l 1xdc
832 0 m 5
 832 722 l 5
 907 722 l 5
 907 0 l 5
 832 0 l 5
EndSplineSet
EndChar
StartChar: uF2E5B
Encoding: 994907 994907 117
Width: 1000
Flags: MW
LayerCount: 2
Fore
SplineSet
555 23 m 1xdc
 555 428 l 1
 602 428 l 1
 602 386 l 1
 602 365 l 1
 611 381 643 432 683 432 c 0
 732 432 759 393 772 359 c 1
 779 377 803 432 844 432 c 0
 862 432 883 423 901 409 c 0
 928 387 940 354 944 323 c 0
 946 308 945 295 945 282 c 2
 945 23 l 1
 892 23 l 1
 892 276 l 2
 892 329 876 377 836 377 c 0
 802 377 781 306 781 239 c 2
 781 23 l 1
 728 23 l 1
 728 276 l 2
 728 329 706 377 666 377 c 0xec
 632 377 607 306 607 239 c 2
 607 23 l 1
 555 23 l 1xdc
183 -19 m 0
 183 -11 190 4 196 11 c 2
 754 720 l 2
 760 728 770 746 790 746 c 0
 804 746 816 736 816 719 c 0
 816 712 809 700 804 694 c 2
 243 -20 l 2
 236 -29 229 -37 225 -41 c 0
 219 -45 213 -45 210 -47 c 1
 210 -47 l 2
 196 -47 183 -34 183 -19 c 0
55 323 m 1xdc
 55 728 l 1
 102 728 l 1
 102 686 l 1
 102 665 l 1
 111 681 143 732 183 732 c 0
 232 732 259 693 272 659 c 1
 279 677 303 732 344 732 c 0
 362 732 383 723 401 709 c 0
 428 687 440 654 444 623 c 0
 446 608 445 595 445 582 c 2
 445 323 l 1
 392 323 l 1
 392 576 l 2
 392 629 376 677 336 677 c 0
 302 677 281 606 281 539 c 2
 281 323 l 1
 228 323 l 1
 228 576 l 2
 228 629 206 677 166 677 c 0xec
 132 677 107 606 107 539 c 2
 107 323 l 1
 55 323 l 1xdc
EndSplineSet
EndChar
StartChar: uF2E5C
Encoding: 994908 994908 118
Width: 1000
Flags: MW
LayerCount: 2
Fore
SplineSet
537 23 m 1xdc
 537 428 l 1
 585 428 l 1
 585 386 l 1
 585 365 l 1
 594 381 626 432 666 432 c 0
 715 432 741 393 754 359 c 1
 761 377 785 432 826 432 c 0
 844 432 866 423 884 409 c 0
 911 387 922 354 926 323 c 0
 928 308 928 295 928 282 c 2
 928 23 l 1
 875 23 l 1
 875 276 l 2
 875 329 858 377 818 377 c 0
 784 377 763 306 763 239 c 2
 763 23 l 1
 711 23 l 1
 711 276 l 2
 711 329 689 377 649 377 c 0xec
 615 377 589 306 589 239 c 2
 589 23 l 1
 537 23 l 1xdc
166 -19 m 0
 166 -11 172 4 178 11 c 2
 736 720 l 2
 742 728 752 746 772 746 c 0
 786 746 799 736 799 719 c 0
 799 712 791 700 786 694 c 2
 225 -20 l 2
 218 -29 211 -37 207 -41 c 0
 201 -45 196 -45 193 -47 c 1
 193 -47 l 2
 179 -47 166 -34 166 -19 c 0
72 323 m 1xd8
 72 728 l 1
 138 728 l 1
 138 690 l 5
 138 665 l 1
 151 681 190 732 269 732 c 0
 315 732 344 719 362 698 c 0
 381 676 388 647 391 618 c 0
 392 605 393 594 393 582 c 2
 393 323 l 1
 322 323 l 1
 322 576 l 2
 322 629 312 677 234 677 c 0xe8
 166 677 142 606 142 539 c 2
 142 323 l 1
 72 323 l 1xd8
EndSplineSet
EndChar
StartChar: uF2E5D
Encoding: 994909 994909 119
Width: 1000
Flags: MW
LayerCount: 2
Fore
SplineSet
71 -195 m 1
 71 445 l 1
 133 445 l 1
 133 396 l 1
 151 414 170 426 187 435 c 0
 220 452 250 455 268 455 c 0
 306 455 337 428 360 386 c 0
 383 343 397 285 397 224 c 0
 397 157 379 94 348 50 c 0
 322 13 287 -11 245 -11 c 0
 216 -11 191 -1 170 14 c 0
 157 23 146 34 135 46 c 1
 135 -195 l 1
 71 -195 l 1
135 126 m 2
 135 112 146 89 164 72 c 0
 177 60 194 50 214 50 c 0
 243 50 275 68 298 100 c 0
 319 130 333 171 333 222 c 0
 333 233 333 244 331 254 c 0
 326 291 314 325 295 350 c 0
 276 375 251 391 222 391 c 0
 198 391 179 381 165 370 c 0
 145 354 136 334 135 334 c 1
 135 126 l 2
504 0 m 1
 504 694 l 1
 578 694 l 1
 578 392 l 1
 855 392 l 1
 855 694 l 1
 929 694 l 1
 929 0 l 1
 855 0 l 1
 855 330 l 1
 578 330 l 1
 578 0 l 1
 504 0 l 1
EndSplineSet
EndChar
StartChar: uF2E5E
Encoding: 994910 994910 120
Width: 1000
VWidth: 0
Flags: MW
LayerCount: 2
Fore
SplineSet
45 -187 m 1
 45 453 l 1
 92 453 l 1
 92 404 l 1
 102 420 114 432 125 441 c 0
 145 458 165 463 180 463 c 0
 205 463 225 439 240 395 c 0
 254 353 262 295 262 228 c 0
 262 157 252 97 234 54 c 0
 217 13 192 -11 163 -11 c 0
 144 -11 129 -2 116 13 c 0
 108 22 101 33 94 45 c 1
 94 -187 l 1
 45 -187 l 1
94 117 m 1
 95 106 101 86 112 71 c 0
 120 61 129 54 141 54 c 0
 160 54 180 72 193 103 c 0
 207 138 212 182 212 230 c 1
 212 238 213 252 212 259 c 1
 209 292 202 328 191 354 c 0
 180 378 165 395 146 395 c 0
 132 395 121 387 113 378 c 0
 101 364 95 346 94 346 c 1
 94 117 l 1
330 0 m 1
 330 98 l 1
 381 98 l 1
 381 0 l 1
 330 0 l 1
470 0 m 1
 470 458 l 1
 516 458 l 1
 516 407 l 1
 516 378 l 1
 524 403 548 463 595 463 c 0
 646 463 657 412 664 376 c 1
 672 401 696 464 744 464 c 0
 766 464 781 454 792 439 c 0
 810 413 815 370 817 328 c 0
 818 312 817 298 817 284 c 2
 817 0 l 1
 768 0 l 1
 768 295 l 2
 768 351 762 399 721 399 c 0
 682 399 669 322 668 255 c 2
 668 0 l 1
 619 0 l 1
 619 295 l 2
 619 351 613 399 572 399 c 0
 534 399 520 322 519 255 c 2
 519 0 l 1
 470 0 l 1
905 0 m 1
 905 98 l 1
 955 98 l 1
 955 0 l 1
 905 0 l 1
EndSplineSet
EndChar
StartChar: uF502B
Encoding: 1003563 1003563 121
Width: 1000
Flags: MW
LayerCount: 2
Fore
SplineSet
569 18 m 0
 569 31 584 42 593 51 c 2
 731 190 l 1
 592 329 l 2
 582 339 579 342 569 357 c 1
 569 363 l 2
 569 368 574 376 581 379 c 0
 583 380 585 380 588 380 c 0
 600 380 608 370 618 360 c 2
 760 218 l 1
 902 361 l 2
 912 370 919 380 931 380 c 0
 946 380 950 366 950 362 c 0
 950 360 949 359 949 356 c 1
 944 345 935 337 927 329 c 2
 788 190 l 1
 927 51 l 2
 939 39 947 30 949 23 c 1
 950 17 l 1
 950 8 941 0 931 0 c 0
 919 0 911 10 902 20 c 2
 759 162 l 1
 609 11 l 2
 599 3 596 -1 587 -1 c 0
 579 -1 569 9 569 18 c 0
50 310 m 2
 50 329 l 2
 50 427 57 615 195 666 c 0
 213 673 233 678 258 678 c 0
 310 678 360 655 394 616 c 0
 454 548 465 433 467 360 c 0
 467 347 467 335 467 325 c 0
 467 122 416 24 321 -11 c 0
 304 -18 284 -22 258 -22 c 0
 175 -22 51 26 50 310 c 2
128 308 m 2
 128 143 168 77 210 52 c 4
 227 42 244 39 259 39 c 0
 279 39 304 45 326 66 c 0
 360 99 389 168 389 309 c 2
 389 370 l 2
 389 468 373 528 350 564 c 0
 323 607 287 616 258 616 c 0
 206 616 128 583 128 370 c 2
 128 308 l 2
EndSplineSet
EndChar
StartChar: uF502C
Encoding: 1003564 1003564 122
Width: 1000
Flags: MW
LayerCount: 2
Fore
SplineSet
544 18 m 0
 544 31 559 42 568 51 c 2
 706 190 l 1
 567 329 l 2
 557 339 554 342 544 357 c 1
 544 363 l 2
 544 368 549 376 556 379 c 0
 558 380 560 380 563 380 c 0
 575 380 583 370 593 360 c 2
 735 218 l 1
 877 361 l 2
 887 370 894 380 906 380 c 0
 921 380 925 366 925 362 c 0
 925 360 924 359 924 356 c 1
 919 345 910 337 902 329 c 2
 763 190 l 1
 902 51 l 2
 914 39 922 30 924 23 c 1
 925 17 l 1
 925 8 916 0 906 0 c 0
 894 0 886 10 877 20 c 2
 734 162 l 1
 584 11 l 2
 574 3 571 -1 562 -1 c 0
 554 -1 544 9 544 18 c 0
75 554 m 1
 75 612 l 1
 190 612 239 653 266 678 c 1
 285 678 l 1
 285 59 l 1
 410 59 l 1
 410 0 l 1
 80 0 l 1
 80 59 l 1
 205 59 l 1
 205 577 l 1
 170 563 135 554 75 554 c 1
EndSplineSet
EndChar
StartChar: uF502D
Encoding: 1003565 1003565 123
Width: 1000
Flags: MW
LayerCount: 2
Fore
SplineSet
569 18 m 0
 569 31 584 42 593 51 c 2
 731 190 l 1
 592 329 l 2
 582 339 579 342 569 357 c 1
 569 363 l 2
 569 368 574 376 581 379 c 0
 583 380 585 380 588 380 c 0
 600 380 608 370 618 360 c 2
 760 218 l 1
 902 361 l 2
 912 370 919 380 931 380 c 0
 946 380 950 366 950 362 c 0
 950 360 949 359 949 356 c 1
 944 345 935 337 927 329 c 2
 788 190 l 1
 927 51 l 2
 939 39 947 30 949 23 c 1
 950 17 l 1
 950 8 941 0 931 0 c 0
 919 0 911 10 902 20 c 2
 759 162 l 1
 609 11 l 2
 599 3 596 -1 587 -1 c 0
 579 -1 569 9 569 18 c 0
50 514 m 1
 75 598 128 678 244 678 c 0
 377 678 458 577 458 464 c 0
 458 367 395 313 291 221 c 0
 258 192 210 146 130 70 c 1
 458 71 l 1
 458 0 l 1
 58 0 l 1
 58 65 l 1
 188 194 l 2
 284 283 375 354 375 461 c 0
 375 545 317 613 231 613 c 0
 109 613 97 461 93 459 c 1
 50 514 l 1
EndSplineSet
EndChar
StartChar: uF502E
Encoding: 1003566 1003566 124
Width: 1000
Flags: MW
LayerCount: 2
Fore
SplineSet
560 18 m 0
 560 31 575 42 584 51 c 2
 722 190 l 1
 583 329 l 2
 573 339 570 342 560 357 c 1
 560 363 l 2
 560 368 565 376 572 379 c 0
 574 380 576 380 579 380 c 0
 591 380 599 370 609 360 c 2
 751 218 l 1
 893 361 l 2
 903 370 910 380 922 380 c 0
 937 380 941 366 941 362 c 0
 941 360 940 359 940 356 c 1
 935 345 926 337 918 329 c 2
 779 190 l 1
 918 51 l 2
 930 39 938 30 940 23 c 1
 941 17 l 1
 941 8 932 0 922 0 c 0
 910 0 902 10 893 20 c 2
 750 162 l 1
 600 11 l 2
 590 3 587 -1 578 -1 c 0
 570 -1 560 9 560 18 c 0
41 81 m 1
 52 142 l 1
 85 97 124 72 158 58 c 0
 196 42 229 40 244 40 c 0
 282 40 312 56 334 82 c 0
 355 107 367 142 367 182 c 0xe8
 367 192 367 202 365 212 c 0
 360 246 344 276 320 296 c 0
 300 313 273 323 239 323 c 2
 166 323 l 1
 166 385 l 1
 224 389 231 390 238 391 c 0
 304 403 347 464 347 525 c 0
 347 552 337 576 320 592 c 0
 302 609 277 618 246 618 c 0
 218 618 190 610 166 597 c 0
 143 584 122 566 107 543 c 0
 101 534 96 524 91 514 c 1
 55 569 l 1
 81 609 111 635 140 651 c 0
 183 675 225 678 248 678 c 0
 292 678 335 664 368 640 c 0
 405 613 429 573 429 525 c 0xf0
 429 497 422 455 390 414 c 0
 373 393 350 372 318 354 c 1
 357 340 388 320 410 296 c 0
 442 262 457 221 457 180 c 0
 457 127 433 71 388 31 c 4
 352 -1 304 -22 245 -22 c 0
 227 -22 185 -20 138 2 c 0
 106 17 72 42 41 81 c 1
EndSplineSet
EndChar
StartChar: uF502F
Encoding: 1003567 1003567 125
Width: 1000
Flags: MW
LayerCount: 2
Fore
SplineSet
576 18 m 0
 576 31 591 42 600 51 c 2
 738 190 l 1
 599 329 l 2
 589 339 586 342 576 357 c 1
 576 363 l 2
 576 368 581 376 588 379 c 0
 590 380 592 380 595 380 c 0
 607 380 615 370 625 360 c 2
 767 218 l 1
 909 361 l 2
 919 370 926 380 938 380 c 0
 953 380 957 366 957 362 c 0
 957 360 956 359 956 356 c 1
 951 345 942 337 934 329 c 2
 795 190 l 1
 934 51 l 2
 946 39 954 30 956 23 c 1
 957 17 l 1
 957 8 948 0 938 0 c 0
 926 0 918 10 909 20 c 2
 766 162 l 1
 616 11 l 2
 606 3 603 -1 594 -1 c 0
 586 -1 576 9 576 18 c 0
43 171 m 1
 43 219 l 0
 43 232 44 234 54 250 c 2
 296 655 l 1
 388 655 l 1
 388 232 l 1xe8
 487 232 l 1
 487 171 l 1
 388 171 l 1
 388 0 l 1
 308 0 l 1
 308 171 l 1xf0
 43 171 l 1
121 232 m 1
 314 232 l 1xe8
 314 618 l 1
 301 538 249 449 121 232 c 1
EndSplineSet
EndChar
StartChar: uF5030
Encoding: 1003568 1003568 126
Width: 1000
Flags: MW
LayerCount: 2
Fore
SplineSet
560 18 m 0
 560 31 575 42 584 51 c 2
 722 190 l 1
 583 329 l 2
 573 339 570 342 560 357 c 1
 560 363 l 2
 560 368 565 376 572 379 c 0
 574 380 576 380 579 380 c 0
 591 380 599 370 609 360 c 2
 751 218 l 1
 893 361 l 2
 903 370 910 380 922 380 c 0
 937 380 941 366 941 362 c 0
 941 360 940 359 940 356 c 1
 935 345 926 337 918 329 c 2
 779 190 l 1
 918 51 l 2
 930 39 938 30 940 23 c 1
 941 17 l 1
 941 8 932 0 922 0 c 0
 910 0 902 10 893 20 c 2
 750 162 l 1
 600 11 l 2
 590 3 587 -1 578 -1 c 0
 570 -1 560 9 560 18 c 0
38 76 m 1
 72 132 l 1
 76 125 81 119 85 113 c 0
 103 89 124 72 144 61 c 0
 177 43 210 40 228 40 c 0
 258 40 297 52 325 87 c 0
 345 112 359 150 359 205 c 0
 359 216 359 227 358 237 c 0
 354 284 339 315 322 335 c 0
 302 358 277 366 257 366 c 0
 178 366 147 286 147 286 c 1
 79 286 l 1
 79 655 l 1
 416 655 l 1
 416 591 l 1
 152 591 l 1
 152 386 l 1
 185 411 212 427 259 427 c 0
 308 427 353 405 388 367 c 4
 425 327 449 270 449 204 c 0
 449 140 424 82 382 41 c 0
 343 2 289 -22 229 -22 c 0
 187 -22 147 -11 112 9 c 0
 83 26 57 49 38 76 c 1
EndSplineSet
EndChar
StartChar: uF5031
Encoding: 1003569 1003569 127
Width: 1000
Flags: MW
LayerCount: 2
Fore
SplineSet
568 18 m 0
 568 31 583 42 592 51 c 2
 730 190 l 1
 591 329 l 2
 581 339 578 342 568 357 c 1
 568 363 l 2
 568 368 573 376 580 379 c 0
 582 380 584 380 587 380 c 0
 599 380 607 370 617 360 c 2
 759 218 l 1
 901 361 l 2
 911 370 918 380 930 380 c 0
 945 380 949 366 949 362 c 0
 949 360 948 359 948 356 c 1
 943 345 934 337 926 329 c 2
 787 190 l 1
 926 51 l 2
 938 39 946 30 948 23 c 1
 949 17 l 1
 949 8 940 0 930 0 c 0
 918 0 910 10 901 20 c 2
 758 162 l 1
 608 11 l 2
 598 3 595 -1 586 -1 c 0
 578 -1 568 9 568 18 c 0
51 323 m 0
 51 423 79 513 128 577 c 0
 175 640 242 678 318 678 c 0
 368 678 399 667 425 658 c 1
 425 598 l 1
 398 607 368 619 318 619 c 0
 263 619 222 591 192 551 c 0
 156 503 138 436 135 380 c 1
 177 433 241 462 304 462 c 0
 355 462 385 439 413 401 c 0
 450 349 464 299 466 241 c 0
 466 235 466 230 466 224 c 0
 466 146 447 93 397 40 c 0
 357 -3 315 -22 261 -22 c 0
 213 -22 152 -3 108 65 c 0
 74 117 51 199 51 323 c 0
137 247 m 0
 137 238 137 229 138 220 c 0
 146 146 167 40 260 40 c 0
 336 40 369 107 379 151 c 0
 383 173 384 195 384 218 c 0
 384 232 384 244 383 255 c 0
 381 294 374 320 356 349 c 0
 326 396 288 401 265 401 c 0
 198 401 152 348 140 280 c 4
 138 269 137 258 137 247 c 0
EndSplineSet
EndChar
StartChar: uF5032
Encoding: 1003570 1003570 128
Width: 1000
Flags: MW
LayerCount: 2
Fore
SplineSet
569 18 m 0
 569 31 584 42 593 51 c 2
 731 190 l 1
 592 329 l 2
 582 339 579 342 569 357 c 1
 569 363 l 2
 569 368 574 376 581 379 c 0
 583 380 585 380 588 380 c 0
 600 380 608 370 618 360 c 2
 760 218 l 1
 902 361 l 2
 912 370 919 380 931 380 c 0
 946 380 950 366 950 362 c 0
 950 360 949 359 949 356 c 1
 944 345 935 337 927 329 c 2
 788 190 l 1
 927 51 l 2
 939 39 947 30 949 23 c 1
 950 17 l 1
 950 8 941 0 931 0 c 0
 919 0 911 10 902 20 c 2
 759 162 l 1
 609 11 l 2
 599 3 596 -1 587 -1 c 0
 579 -1 569 9 569 18 c 0
50 585 m 1
 50 656 l 1
 466 655 l 1
 466 590 l 1
 325 428 245 208 245 -11 c 1
 160 -11 l 1
 160 188 228 404 398 585 c 1
 50 585 l 1
EndSplineSet
EndChar
StartChar: uF5033
Encoding: 1003571 1003571 129
Width: 1000
Flags: MW
LayerCount: 2
Fore
SplineSet
569 18 m 0
 569 31 584 42 593 51 c 2
 731 190 l 1
 592 329 l 2
 582 339 579 342 569 357 c 1
 569 363 l 2
 569 368 574 376 581 379 c 0
 583 380 585 380 588 380 c 0
 600 380 608 370 618 360 c 2
 760 218 l 1
 902 361 l 2
 912 370 919 380 931 380 c 0
 946 380 950 366 950 362 c 0
 950 360 949 359 949 356 c 1
 944 345 935 337 927 329 c 2
 788 190 l 1
 927 51 l 2
 939 39 947 30 949 23 c 1
 950 17 l 1
 950 8 941 0 931 0 c 0
 919 0 911 10 902 20 c 2
 759 162 l 1
 609 11 l 2
 599 3 596 -1 587 -1 c 0
 579 -1 569 9 569 18 c 0
50 180 m 0xf2
 50 249 91 319 189 354 c 1
 111 377 64 438 64 502 c 0
 64 595 147 678 258 678 c 0
 260 678 261 678 263 678 c 4
 366 676 452 598 452 503 c 0xec
 452 443 415 385 327 354 c 1
 391 334 466 276 466 179 c 0
 466 74 376 -22 258 -22 c 0
 140 -22 50 73 50 180 c 0xf2
131 181 m 0
 131 131 148 91 178 67 c 0
 199 50 226 40 258 40 c 0
 286 40 316 49 340 69 c 0
 366 91 385 128 385 182 c 0xf2
 385 191 384 200 383 209 c 0
 378 243 364 271 343 291 c 0
 321 312 292 323 257 323 c 0
 233 323 204 315 181 297 c 0
 157 278 137 249 132 205 c 0
 131 197 131 189 131 181 c 0
134 502 m 0
 134 465 148 435 171 415 c 0
 193 396 223 385 257 385 c 0
 291 385 320 395 341 412 c 0
 367 433 382 464 382 502 c 0
 382 512 381 522 379 531 c 0
 373 558 358 581 337 596 c 0
 316 611 289 619 258 619 c 0xec
 225 619 196 610 175 593 c 0
 153 575 139 550 135 519 c 0
 134 514 134 508 134 502 c 0
EndSplineSet
EndChar
StartChar: uF5034
Encoding: 1003572 1003572 130
Width: 1000
Flags: MW
LayerCount: 2
Fore
SplineSet
560 18 m 0
 560 31 575 42 584 51 c 2
 722 190 l 1
 583 329 l 2
 573 339 570 342 560 357 c 1
 560 363 l 2
 560 368 565 376 572 379 c 0
 574 380 576 380 579 380 c 0
 591 380 599 370 609 360 c 2
 751 218 l 1
 893 361 l 2
 903 370 910 380 922 380 c 0
 937 380 941 366 941 362 c 0
 941 360 940 359 940 356 c 1
 935 345 926 337 918 329 c 2
 779 190 l 1
 918 51 l 2
 930 39 938 30 940 23 c 1
 941 17 l 1
 941 8 932 0 922 0 c 0
 910 0 902 10 893 20 c 2
 750 162 l 1
 600 11 l 2
 590 3 587 -1 578 -1 c 0
 570 -1 560 9 560 18 c 0
42 435 m 0
 42 508 61 563 114 618 c 0
 156 660 197 678 252 678 c 0
 291 678 339 665 379 621 c 0
 423 572 457 485 457 333 c 0
 457 220 422 124 369 61 c 0
 325 8 267 -22 205 -22 c 0
 143 -22 108 -3 72 24 c 1
 103 78 l 1
 126 62 151 40 207 40 c 0
 255 40 298 67 329 119 c 0
 348 152 363 194 370 245 c 0
 371 255 372 265 373 276 c 1
 329 224 272 193 204 193 c 0
 152 193 123 216 96 254 c 0
 54 312 42 366 42 435 c 0
124 435 m 0
 124 381 127 343 156 301 c 0
 175 274 201 255 243 255 c 0
 281 255 314 273 336 301 c 4
 358 329 371 368 371 410 c 0
 371 476 352 618 253 618 c 0
 225 618 202 609 184 595 c 0
 153 571 136 534 130 507 c 0
 124 483 124 460 124 435 c 0
EndSplineSet
EndChar
StartChar: uF5035
Encoding: 1003573 1003573 131
Width: 1000
Flags: MW
LayerCount: 2
Fore
SplineSet
292 310 m 2
 292 329 l 2
 292 427 298 615 436 666 c 0
 454 673 475 678 500 678 c 0
 552 678 602 655 636 616 c 0
 696 548 706 433 708 360 c 0
 708 347 708 335 708 325 c 0
 708 122 657 24 562 -11 c 0
 545 -18 526 -22 500 -22 c 0
 417 -22 293 26 292 310 c 2
370 308 m 2
 370 143 410 77 452 52 c 4
 469 42 485 39 500 39 c 0
 520 39 546 45 568 66 c 0
 602 99 630 168 630 309 c 2
 630 370 l 2
 630 468 615 528 592 564 c 0
 565 607 529 616 500 616 c 0
 448 616 370 583 370 370 c 2
 370 308 l 2
EndSplineSet
EndChar
StartChar: uF5036
Encoding: 1003574 1003574 132
Width: 1000
Flags: MW
LayerCount: 2
Fore
SplineSet
332 554 m 1
 332 612 l 1
 447 612 497 653 524 678 c 1
 542 678 l 1
 542 59 l 1
 668 59 l 1
 668 0 l 1
 338 0 l 1
 338 59 l 1
 462 59 l 1
 462 577 l 1
 427 563 392 554 332 554 c 1
EndSplineSet
EndChar
StartChar: uF5039
Encoding: 1003577 1003577 135
Width: 1000
Flags: MW
LayerCount: 2
Fore
SplineSet
527 171 m 1
 527 219 l 0
 527 232 528 234 538 250 c 2
 780 655 l 1
 872 655 l 1
 872 232 l 1xe8
 971 232 l 1
 971 171 l 1
 872 171 l 1
 872 0 l 1
 792 0 l 1
 792 171 l 1xf0
 527 171 l 1
605 232 m 1
 798 232 l 1xe8
 798 618 l 1
 785 538 733 449 605 232 c 1
EndSplineSet
EndChar
StartChar: uF503E
Encoding: 1003582 1003582 140
Width: 1000
Flags: MW
LayerCount: 2
Fore
SplineSet
292 435 m 0
 292 508 311 563 364 618 c 0
 406 660 447 678 502 678 c 0
 541 678 590 665 630 621 c 0
 674 572 708 485 708 333 c 0
 708 220 673 124 620 61 c 0
 576 8 518 -22 456 -22 c 0
 394 -22 358 -3 322 24 c 1
 354 78 l 1
 377 62 402 40 458 40 c 0
 506 40 549 67 580 119 c 0
 599 152 613 194 620 245 c 0
 621 255 623 265 624 276 c 1
 580 224 522 193 454 193 c 0
 402 193 373 216 346 254 c 0
 304 312 292 366 292 435 c 0
374 435 m 0
 374 381 377 343 406 301 c 0
 425 274 452 255 494 255 c 0
 532 255 564 273 586 301 c 4
 608 329 622 368 622 410 c 0
 622 476 603 618 504 618 c 0
 476 618 452 609 434 595 c 0
 403 571 386 534 380 507 c 0
 374 483 374 460 374 435 c 0
EndSplineSet
EndChar
StartChar: uF5040
Encoding: 1003584 1003584 142
Width: 1000
Flags: MW
LayerCount: 2
Fore
SplineSet
90 554 m 1
 90 612 l 1
 205 612 254 653 281 678 c 1
 300 678 l 1
 300 59 l 1
 425 59 l 1
 425 -0 l 1
 95 -0 l 1
 95 59 l 1
 220 59 l 1
 220 577 l 1
 185 563 150 554 90 554 c 1
EndSplineSet
EndChar
StartChar: uF5041
Encoding: 1003585 1003585 143
Width: 1000
Flags: MW
LayerCount: 2
Fore
SplineSet
296 514 m 1
 321 598 374 678 490 678 c 0
 623 678 704 577 704 464 c 0
 704 367 641 313 537 221 c 0
 504 192 456 146 376 70 c 1
 704 71 l 1
 704 0 l 1
 304 0 l 1
 304 65 l 1
 434 194 l 2
 530 283 621 354 621 461 c 0
 621 545 563 613 477 613 c 0
 355 613 343 461 339 459 c 1
 296 514 l 1
EndSplineSet
EndChar
StartChar: uF5043
Encoding: 1003587 1003587 145
Width: 1000
Flags: MW
LayerCount: 2
Fore
SplineSet
27 171 m 1
 27 219 l 0
 27 232 28 234 38 250 c 2
 280 655 l 1
 372 655 l 1
 372 232 l 1xe8
 471 232 l 1
 471 171 l 1
 372 171 l 1
 372 -0 l 1
 292 -0 l 1
 292 171 l 1xf0
 27 171 l 1
105 232 m 1
 298 232 l 1xe8
 298 618 l 1
 285 538 233 449 105 232 c 1
EndSplineSet
EndChar
StartChar: uF5044
Encoding: 1003588 1003588 146
Width: 1000
Flags: MW
LayerCount: 2
Fore
SplineSet
294 76 m 1
 328 132 l 1
 332 125 338 119 342 113 c 0
 360 89 380 72 400 61 c 0
 433 43 466 40 484 40 c 0
 514 40 554 52 582 87 c 0
 602 112 616 150 616 205 c 0
 616 216 615 227 614 237 c 0
 610 284 595 315 578 335 c 0
 558 358 534 366 514 366 c 0
 435 366 404 286 404 286 c 1
 336 286 l 1
 336 655 l 1
 672 655 l 1
 672 591 l 1
 408 591 l 1
 408 386 l 1
 441 411 469 427 516 427 c 0
 565 427 609 405 644 367 c 4
 681 327 706 270 706 204 c 0
 706 140 680 82 638 41 c 0
 599 2 546 -22 486 -22 c 0
 444 -22 403 -11 368 9 c 0
 339 26 313 49 294 76 c 1
EndSplineSet
EndChar
StartChar: uF5045
Encoding: 1003589 1003589 147
Width: 1000
Flags: MW
LayerCount: 2
Fore
SplineSet
42 323 m 0
 42 423 70 513 119 577 c 0
 166 640 233 678 309 678 c 0
 359 678 390 667 416 658 c 1
 416 598 l 1
 389 607 359 619 309 619 c 0
 254 619 213 591 183 551 c 0
 147 503 129 436 126 380 c 1
 168 433 232 462 295 462 c 0
 346 462 376 439 404 401 c 0
 441 349 455 299 457 241 c 0
 457 235 457 230 457 224 c 0
 457 146 438 93 388 40 c 0
 348 -3 306 -22 252 -22 c 0
 204 -22 143 -3 99 65 c 0
 65 117 42 199 42 323 c 0
128 247 m 0
 128 238 128 229 129 220 c 0
 137 146 158 40 251 40 c 0
 327 40 360 107 370 151 c 0
 374 173 375 195 375 218 c 0
 375 232 375 244 374 255 c 0
 372 294 365 320 347 349 c 0
 317 396 279 401 256 401 c 0
 189 401 143 348 131 280 c 4
 129 269 128 258 128 247 c 0
EndSplineSet
EndChar
StartChar: uF5046
Encoding: 1003590 1003590 148
Width: 1000
Flags: MW
LayerCount: 2
Fore
SplineSet
41 585 m 1
 41 656 l 1
 457 655 l 1
 457 590 l 1
 316 428 236 208 236 -11 c 1
 151 -11 l 1
 151 188 219 404 389 585 c 1
 41 585 l 1
EndSplineSet
EndChar
StartChar: uF5047
Encoding: 1003591 1003591 149
Width: 1000
Flags: MW
LayerCount: 2
Fore
SplineSet
292 180 m 0xf2
 292 249 333 319 431 354 c 1
 353 377 306 438 306 502 c 0
 306 595 389 678 500 678 c 0
 502 678 503 678 505 678 c 4
 608 676 694 598 694 503 c 0xec
 694 443 657 385 569 354 c 1
 633 334 708 276 708 179 c 0
 708 74 618 -22 500 -22 c 0
 382 -22 292 73 292 180 c 0xf2
373 181 m 0
 373 131 390 91 420 67 c 0
 441 50 468 40 500 40 c 0
 528 40 558 49 582 69 c 0
 608 91 627 128 627 182 c 0xf2
 627 191 626 200 625 209 c 0
 620 243 606 271 585 291 c 0
 563 312 534 323 499 323 c 0
 475 323 446 315 423 297 c 0
 399 278 379 249 374 205 c 0
 373 197 373 189 373 181 c 0
376 502 m 0
 376 465 390 435 413 415 c 0
 435 396 465 385 499 385 c 0
 533 385 562 395 583 412 c 0
 609 433 624 464 624 502 c 0
 624 512 623 522 621 531 c 0
 615 558 600 581 579 596 c 0
 558 611 531 619 500 619 c 0xec
 467 619 438 610 417 593 c 0
 395 575 381 550 377 519 c 0
 376 514 376 508 376 502 c 0
EndSplineSet
EndChar
StartChar: uF506B
Encoding: 1003627 1003627 151
Width: 1000
Flags: MW
LayerCount: 2
Fore
SplineSet
406 310 m 2
 406 329 l 2
 406 427 413 615 551 666 c 0
 569 673 589 678 614 678 c 0
 666 678 716 655 750 616 c 0
 810 548 821 433 823 360 c 0
 823 347 823 335 823 325 c 0
 823 122 772 24 677 -11 c 0
 660 -18 640 -22 614 -22 c 0
 531 -22 407 26 406 310 c 2
484 308 m 2
 484 143 524 77 566 52 c 0
 583 42 600 39 615 39 c 0
 635 39 660 45 682 66 c 0
 716 99 745 168 745 309 c 2
 745 370 l 2
 745 468 729 528 706 564 c 0
 679 607 643 616 614 616 c 0
 562 616 484 583 484 370 c 2
 484 308 l 2
75 554 m 1
 75 612 l 1
 190 612 239 653 266 678 c 1
 285 678 l 1
 285 59 l 1
 410 59 l 1
 410 0 l 1
 80 0 l 1
 80 59 l 1
 205 59 l 1
 205 577 l 1
 170 563 135 554 75 554 c 1
841 0 m 1
 841 84 l 1
 925 84 l 1
 925 0 l 1
 841 0 l 1
EndSplineSet
EndChar
StartChar: uF506C
Encoding: 1003628 1003628 152
Width: 1000
Flags: MW
LayerCount: 2
Fore
SplineSet
455 554 m 1
 455 612 l 1
 570 612 619 653 646 678 c 1
 665 678 l 1
 665 59 l 1
 790 59 l 1
 790 0 l 1
 460 0 l 1
 460 59 l 1
 585 59 l 1
 585 577 l 1
 550 563 515 554 455 554 c 1
75 554 m 1
 75 612 l 1
 190 612 239 653 266 678 c 1
 285 678 l 1
 285 59 l 1
 410 59 l 1
 410 0 l 1
 80 0 l 1
 80 59 l 1
 205 59 l 1
 205 577 l 1
 170 563 135 554 75 554 c 1
841 0 m 5
 841 84 l 5
 925 84 l 5
 925 0 l 5
 841 0 l 5
EndSplineSet
EndChar
StartChar: uF506D
Encoding: 1003629 1003629 153
Width: 1000
Flags: MW
LayerCount: 2
Fore
SplineSet
596 310 m 2
 599 329 l 2
 616 427 656 615 803 666 c 0
 822 673 844 678 869 678 c 0
 921 678 967 655 994 616 c 0
 1042 548 1032 433 1021 360 c 0
 1019 347 1017 335 1015 325 c 0
 979 122 911 24 810 -11 c 0
 792 -18 771 -22 745 -22 c 0
 662 -22 547 26 596 310 c 2
673 308 m 2
 644 143 672 77 710 52 c 0
 725 42 742 39 757 39 c 0
 777 39 803 45 829 66 c 0
 869 99 909 168 934 309 c 2
 945 370 l 2
 962 468 957 528 940 564 c 0
 921 607 887 616 858 616 c 0
 806 616 722 583 684 370 c 2
 673 308 l 2
96 310 m 2
 99 329 l 2
 116 427 156 615 303 666 c 0
 322 673 344 678 369 678 c 0
 421 678 467 655 494 616 c 0
 542 548 532 433 521 360 c 0
 519 347 517 335 515 325 c 0
 479 122 411 24 310 -11 c 0
 292 -18 271 -22 245 -22 c 0
 162 -22 47 26 96 310 c 2
173 308 m 2
 144 143 172 77 210 52 c 0
 225 42 242 39 257 39 c 0
 277 39 303 45 329 66 c 0
 369 99 409 168 434 309 c 2
 445 370 l 2
 462 468 457 528 440 564 c 0
 421 607 387 616 358 616 c 0
 306 616 222 583 184 370 c 2
 173 308 l 2
EndSplineSet
EndChar
StartChar: uF506E
Encoding: 1003630 1003630 154
Width: 1000
Flags: MW
LayerCount: 2
Fore
SplineSet
678 554 m 1
 688 612 l 1
 803 612 860 653 891 678 c 1
 910 678 l 1
 801 59 l 1
 926 59 l 1
 915 0 l 1
 585 0 l 1
 596 59 l 1
 721 59 l 1
 812 577 l 1
 775 563 738 554 678 554 c 1
86 310 m 2
 89 329 l 2
 106 427 147 615 294 666 c 0
 313 673 334 678 359 678 c 0
 411 678 457 655 484 616 c 0
 532 548 523 433 512 360 c 0
 510 347 508 335 506 325 c 0
 470 122 401 24 300 -11 c 0
 282 -18 261 -22 235 -22 c 0
 152 -22 37 26 86 310 c 2
164 308 m 2
 135 143 163 77 201 52 c 4
 216 42 232 39 247 39 c 0
 267 39 293 45 319 66 c 0
 359 99 400 168 425 309 c 2
 436 370 l 2
 453 468 448 528 431 564 c 0
 412 607 377 616 348 616 c 0
 296 616 213 583 175 370 c 2
 164 308 l 2
EndSplineSet
EndChar
StartChar: uF506F
Encoding: 1003631 1003631 155
Width: 1000
Flags: MW
LayerCount: 2
Fore
SplineSet
572 514 m 1
 612 598 679 678 795 678 c 0
 928 678 992 577 972 464 c 0
 955 367 882 313 762 221 c 0
 724 192 667 146 574 70 c 1
 902 71 l 1
 890 0 l 1
 490 0 l 1
 501 65 l 1
 654 194 l 2
 766 283 869 354 888 461 c 0
 903 545 857 613 771 613 c 0
 649 613 610 461 606 459 c 1
 572 514 l 1
36 310 m 2
 40 329 l 2
 57 427 97 615 244 666 c 0
 263 673 284 678 309 678 c 0
 361 678 407 655 434 616 c 0
 482 548 473 433 462 360 c 0
 460 347 458 335 456 325 c 0
 420 122 352 24 251 -11 c 0
 233 -18 212 -22 186 -22 c 0
 103 -22 -13 26 36 310 c 2
114 308 m 2
 85 143 113 77 151 52 c 4
 166 42 183 39 198 39 c 0
 218 39 243 45 269 66 c 0
 309 99 350 168 375 309 c 2
 386 370 l 2
 403 468 398 528 381 564 c 0
 362 607 327 616 298 616 c 0
 246 616 163 583 125 370 c 2
 114 308 l 2
EndSplineSet
EndChar
StartChar: uF5070
Encoding: 1003632 1003632 156
Width: 1000
Flags: MW
LayerCount: 2
Fore
SplineSet
555 81 m 1
 577 142 l 1
 602 97 636 72 668 58 c 0
 703 42 736 40 751 40 c 0
 789 40 821 56 848 82 c 0
 873 107 892 142 899 182 c 0xe8
 901 192 902 202 902 212 c 0
 903 246 892 276 872 296 c 0
 855 313 830 323 796 323 c 2
 723 323 l 1
 734 385 l 1
 793 389 800 390 807 391 c 0
 875 403 929 464 940 525 c 0
 945 552 938 576 924 592 c 0
 909 609 886 618 855 618 c 0
 827 618 797 610 771 597 c 0
 746 584 722 566 703 543 c 0
 695 534 689 524 682 514 c 1
 655 569 l 1
 688 609 723 635 755 651 c 0
 802 675 845 678 868 678 c 0
 912 678 952 664 981 640 c 0
 1013 613 1030 573 1022 525 c 0xf0
 1017 497 1002 455 963 414 c 0
 942 393 915 372 880 354 c 1
 917 340 944 320 962 296 c 0
 988 262 996 221 989 180 c 0
 980 127 945 71 893 31 c 4
 851 -1 800 -22 741 -22 c 0
 723 -22 681 -20 638 2 c 0
 609 17 579 42 555 81 c 1
96 310 m 2
 99 329 l 2
 116 427 156 615 303 666 c 0
 322 673 344 678 369 678 c 0
 421 678 467 655 494 616 c 0
 542 548 532 433 521 360 c 0
 519 347 517 335 515 325 c 0
 479 122 411 24 310 -11 c 0
 292 -18 271 -22 245 -22 c 0
 162 -22 47 26 96 310 c 2
173 308 m 2
 144 143 172 77 210 52 c 0
 225 42 242 39 257 39 c 0
 277 39 303 45 329 66 c 0
 369 99 409 168 434 309 c 2
 445 370 l 2
 462 468 457 528 440 564 c 0
 421 607 387 616 358 616 c 0
 306 616 222 583 184 370 c 2
 173 308 l 2
EndSplineSet
EndChar
StartChar: uF5071
Encoding: 1003633 1003633 157
Width: 1000
Flags: MW
LayerCount: 2
Fore
SplineSet
509 171 m 1
 518 219 l 0
 520 232 521 234 534 250 c 2
 848 655 l 1
 940 655 l 1
 865 232 l 1xe8
 964 232 l 1
 953 171 l 1
 854 171 l 1
 824 0 l 1
 744 0 l 1
 774 171 l 1xf0
 509 171 l 1
598 232 m 1
 791 232 l 1xe8
 859 618 l 1
 832 538 764 449 598 232 c 1
48 310 m 2
 51 329 l 2
 68 427 109 615 256 666 c 0
 275 673 296 678 321 678 c 0
 373 678 419 655 446 616 c 0
 494 548 485 433 474 360 c 0
 472 347 469 335 467 325 c 0
 431 122 363 24 262 -11 c 0
 244 -18 223 -22 197 -22 c 0
 114 -22 -1 26 48 310 c 2
125 308 m 2
 96 143 124 77 162 52 c 4
 177 42 194 39 209 39 c 0
 229 39 255 45 281 66 c 0
 321 99 362 168 387 309 c 2
 397 370 l 2
 414 468 410 528 393 564 c 0
 374 607 339 616 310 616 c 0
 258 616 174 583 136 370 c 2
 125 308 l 2
EndSplineSet
EndChar
StartChar: uF5072
Encoding: 1003634 1003634 158
Width: 1000
Flags: MW
LayerCount: 2
Fore
SplineSet
494 76 m 1
 538 132 l 1
 541 125 544 119 547 113 c 0
 561 89 579 72 597 61 c 0
 627 43 659 40 677 40 c 0
 707 40 749 52 783 87 c 0
 807 112 827 150 837 205 c 0
 839 216 841 227 842 237 c 0
 846 284 836 315 823 335 c 0
 807 358 784 366 764 366 c 0
 685 366 640 286 640 286 c 1
 572 286 l 1
 637 655 l 1
 974 655 l 1
 962 591 l 1
 698 591 l 1
 662 386 l 1
 699 411 730 427 777 427 c 0
 826 427 867 405 895 367 c 4
 925 327 939 270 927 204 c 0
 916 140 881 82 832 41 c 0
 786 2 727 -22 667 -22 c 0
 625 -22 587 -11 556 9 c 0
 530 26 508 49 494 76 c 1
38 310 m 2
 41 329 l 2
 58 427 99 615 246 666 c 0
 265 673 286 678 311 678 c 0
 363 678 409 655 436 616 c 0
 484 548 475 433 464 360 c 0
 462 347 460 335 458 325 c 0
 422 122 353 24 252 -11 c 0
 234 -18 213 -22 187 -22 c 0
 104 -22 -11 26 38 310 c 2
116 308 m 2
 87 143 114 77 152 52 c 4
 167 42 184 39 199 39 c 0
 219 39 245 45 271 66 c 0
 311 99 352 168 377 309 c 2
 388 370 l 2
 405 468 400 528 383 564 c 0
 364 607 329 616 300 616 c 0
 248 616 165 583 127 370 c 2
 116 308 l 2
EndSplineSet
EndChar
StartChar: uF5073
Encoding: 1003635 1003635 159
Width: 1000
Flags: MW
LayerCount: 2
Fore
SplineSet
541 323 m 0
 559 423 603 513 663 577 c 0
 721 640 795 678 871 678 c 0
 921 678 950 667 974 658 c 1
 963 598 l 1
 938 607 910 619 860 619 c 0
 805 619 759 591 722 551 c 0
 678 503 648 436 635 380 c 1
 686 433 755 462 818 462 c 0
 869 462 896 439 917 401 c 0
 945 349 950 299 942 241 c 0
 941 235 940 230 939 224 c 0
 925 146 896 93 837 40 c 0
 789 -3 744 -22 690 -22 c 0
 642 -22 584 -3 552 65 c 0
 527 117 519 199 541 323 c 0
614 247 m 0
 612 238 611 229 610 220 c 0
 605 146 607 40 700 40 c 0
 776 40 821 107 839 151 c 0
 847 173 851 195 855 218 c 0
 857 232 860 244 861 255 c 0
 866 294 864 320 851 349 c 0
 829 396 792 401 769 401 c 0
 702 401 646 348 622 280 c 4
 618 269 616 258 614 247 c 0
38 310 m 2
 41 329 l 2
 58 427 98 615 245 666 c 0
 264 673 286 678 311 678 c 0
 363 678 409 655 436 616 c 0
 484 548 475 433 464 360 c 0
 462 347 459 335 457 325 c 0
 421 122 353 24 252 -11 c 0
 234 -18 213 -22 187 -22 c 0
 104 -22 -11 26 38 310 c 2
115 308 m 2
 86 143 114 77 152 52 c 4
 167 42 184 39 199 39 c 0
 219 39 245 45 271 66 c 0
 311 99 352 168 377 309 c 2
 387 370 l 2
 404 468 399 528 382 564 c 0
 363 607 329 616 300 616 c 0
 248 616 164 583 126 370 c 2
 115 308 l 2
EndSplineSet
EndChar
StartChar: uF5074
Encoding: 1003636 1003636 160
Width: 1000
Flags: MW
LayerCount: 2
Fore
SplineSet
644 585 m 1
 657 656 l 1
 1072 655 l 1
 1061 590 l 1
 891 428 773 208 734 -11 c 1
 649 -11 l 1
 684 188 790 404 992 585 c 1
 644 585 l 1
96 310 m 2
 99 329 l 2
 116 427 156 615 303 666 c 0
 322 673 344 678 369 678 c 0
 421 678 467 655 494 616 c 0
 542 548 532 433 521 360 c 0
 519 347 517 335 515 325 c 0
 479 122 411 24 310 -11 c 0
 292 -18 271 -22 245 -22 c 0
 162 -22 47 26 96 310 c 2
173 308 m 2
 144 143 172 77 210 52 c 0
 225 42 242 39 257 39 c 0
 277 39 303 45 329 66 c 0
 369 99 409 168 434 309 c 2
 445 370 l 2
 462 468 457 528 440 564 c 0
 421 607 387 616 358 616 c 0
 306 616 222 583 184 370 c 2
 173 308 l 2
EndSplineSet
EndChar
StartChar: uF5075
Encoding: 1003637 1003637 161
Width: 1000
Flags: MW
LayerCount: 2
Fore
SplineSet
514 180 m 0xf2
 526 249 579 319 683 354 c 1
 609 377 573 438 584 502 c 0
 600 595 699 678 810 678 c 0
 812 678 813 678 815 678 c 4
 918 676 990 598 973 503 c 0xec
 962 443 914 385 821 354 c 1
 881 334 947 276 930 179 c 0
 911 74 804 -22 686 -22 c 0
 568 -22 495 73 514 180 c 0xf2
595 181 m 0
 586 131 596 91 622 67 c 0
 640 50 665 40 697 40 c 0
 725 40 756 49 784 69 c 0
 814 91 839 128 849 182 c 0xf2
 851 191 851 200 852 209 c 0
 853 243 843 271 826 291 c 0
 808 312 781 323 746 323 c 0
 722 323 691 315 665 297 c 0
 638 278 613 249 600 205 c 0
 598 197 596 189 595 181 c 0
654 502 m 0
 647 465 657 435 676 415 c 0
 695 396 723 385 757 385 c 0
 791 385 822 395 846 412 c 0
 876 433 895 464 902 502 c 0
 904 512 905 522 905 531 c 0
 904 558 892 581 874 596 c 0
 856 611 830 619 799 619 c 0xec
 766 619 736 610 712 593 c 0
 687 575 667 550 658 519 c 0
 656 514 655 508 654 502 c 0
37 310 m 2
 40 329 l 2
 57 427 97 615 244 666 c 0
 263 673 285 678 310 678 c 0
 362 678 408 655 435 616 c 0
 483 548 473 433 462 360 c 0
 460 347 458 335 456 325 c 0
 420 122 352 24 251 -11 c 0
 233 -18 212 -22 186 -22 c 0
 103 -22 -12 26 37 310 c 2
114 308 m 2
 85 143 113 77 151 52 c 4
 166 42 183 39 198 39 c 0
 218 39 244 45 270 66 c 0
 310 99 350 168 375 309 c 2
 386 370 l 2
 403 468 398 528 381 564 c 0
 362 607 328 616 299 616 c 0
 247 616 163 583 125 370 c 2
 114 308 l 2
EndSplineSet
EndChar
StartChar: uF5076
Encoding: 1003638 1003638 162
Width: 1000
Flags: MW
LayerCount: 2
Fore
SplineSet
619 435 m 0
 632 508 660 563 723 618 c 0
 772 660 817 678 872 678 c 0
 911 678 956 665 988 621 c 0
 1023 572 1043 485 1016 333 c 0
 996 220 944 124 880 61 c 0
 827 8 763 -22 701 -22 c 0
 639 -22 607 -3 576 24 c 1
 617 78 l 1
 637 62 658 40 714 40 c 0
 762 40 810 67 850 119 c 0
 875 152 897 194 913 245 c 0
 916 255 919 265 922 276 c 1
 869 224 806 193 738 193 c 0
 686 193 661 216 641 254 c 0
 609 312 607 366 619 435 c 0
701 435 m 0
 691 381 687 343 709 301 c 0
 723 274 746 255 788 255 c 0
 826 255 862 273 889 301 c 4
 916 329 936 368 943 410 c 0
 955 476 961 618 862 618 c 0
 834 618 809 609 789 595 c 0
 754 571 730 534 719 507 c 0
 709 483 705 460 701 435 c 0
96 310 m 2
 99 329 l 2
 116 427 156 615 303 666 c 0
 322 673 344 678 369 678 c 0
 421 678 467 655 494 616 c 0
 542 548 532 433 521 360 c 0
 519 347 517 335 515 325 c 0
 479 122 411 24 310 -11 c 0
 292 -18 271 -22 245 -22 c 0
 162 -22 47 26 96 310 c 2
173 308 m 2
 144 143 172 77 210 52 c 0
 225 42 242 39 257 39 c 0
 277 39 303 45 329 66 c 0
 369 99 409 168 434 309 c 2
 445 370 l 2
 462 468 457 528 440 564 c 0
 421 607 387 616 358 616 c 0
 306 616 222 583 184 370 c 2
 173 308 l 2
EndSplineSet
EndChar
StartChar: uF5077
Encoding: 1003639 1003639 163
Width: 1000
Flags: MW
LayerCount: 2
Fore
SplineSet
596 310 m 2
 599 329 l 2
 616 427 656 615 803 666 c 0
 822 673 844 678 869 678 c 0
 921 678 967 655 994 616 c 0
 1042 548 1032 433 1021 360 c 0
 1019 347 1017 335 1015 325 c 0
 979 122 911 24 810 -11 c 0
 792 -18 771 -22 745 -22 c 0
 662 -22 547 26 596 310 c 2
673 308 m 2
 644 143 672 77 710 52 c 0
 725 42 742 39 757 39 c 0
 777 39 803 45 829 66 c 0
 869 99 909 168 934 309 c 2
 945 370 l 2
 962 468 957 528 940 564 c 0
 921 607 887 616 858 616 c 0
 806 616 722 583 684 370 c 2
 673 308 l 2
188 554 m 1
 198 612 l 1
 313 612 370 653 401 678 c 1
 420 678 l 1
 310 59 l 1
 435 59 l 1
 425 0 l 1
 95 0 l 1
 105 59 l 1
 230 59 l 1
 322 577 l 1
 285 563 248 554 188 554 c 1
EndSplineSet
EndChar
StartChar: uF5078
Encoding: 1003640 1003640 164
Width: 1000
Flags: MW
LayerCount: 2
Fore
SplineSet
672 554 m 1
 683 612 l 1
 798 612 854 653 885 678 c 1
 904 678 l 1
 795 59 l 1
 920 59 l 1
 910 0 l 1
 580 0 l 1
 590 59 l 1
 715 59 l 1
 807 577 l 1
 770 563 732 554 672 554 c 1
172 554 m 1
 183 612 l 1
 298 612 354 653 385 678 c 1
 404 678 l 1
 295 59 l 1
 420 59 l 1
 410 0 l 1
 80 0 l 1
 90 59 l 1
 215 59 l 1
 307 577 l 1
 270 563 232 554 172 554 c 1
EndSplineSet
EndChar
StartChar: uF5079
Encoding: 1003641 1003641 165
Width: 1000
Flags: MW
LayerCount: 2
Fore
SplineSet
567 514 m 1
 607 598 674 678 790 678 c 0
 923 678 986 577 966 464 c 0
 949 367 876 313 756 221 c 0
 718 192 662 146 569 70 c 1
 897 71 l 1
 884 0 l 1
 484 0 l 1
 496 65 l 1
 648 194 l 2
 760 283 864 354 883 461 c 0
 898 545 851 613 765 613 c 0
 643 613 604 461 600 459 c 1
 567 514 l 1
123 554 m 1
 133 612 l 1
 248 612 305 653 336 678 c 1
 355 678 l 1
 246 59 l 1
 371 59 l 1
 360 0 l 1
 30 0 l 1
 41 59 l 1
 166 59 l 1
 257 577 l 1
 220 563 183 554 123 554 c 1
EndSplineSet
EndChar
StartChar: uF507A
Encoding: 1003642 1003642 166
Width: 1000
Flags: MW
LayerCount: 2
Fore
SplineSet
496 81 m 1
 518 142 l 1
 543 97 577 72 609 58 c 0
 644 42 677 40 692 40 c 0
 730 40 762 56 789 82 c 0
 814 107 833 142 840 182 c 0xe8
 842 192 843 202 843 212 c 0
 844 246 833 276 813 296 c 0
 796 313 771 323 737 323 c 2
 664 323 l 1
 675 385 l 1
 734 389 741 390 748 391 c 0
 816 403 869 464 880 525 c 0
 885 552 879 576 865 592 c 0
 850 609 827 618 796 618 c 0
 768 618 738 610 712 597 c 0
 687 584 662 566 643 543 c 0
 635 534 629 524 622 514 c 1
 596 569 l 1
 629 609 663 635 695 651 c 0
 742 675 785 678 808 678 c 0
 852 678 892 664 921 640 c 0
 953 613 970 573 962 525 c 0xf0
 957 497 943 455 904 414 c 0
 883 393 856 372 821 354 c 1
 858 340 885 320 903 296 c 0
 929 262 936 221 929 180 c 0
 920 127 886 71 834 31 c 4
 792 -1 741 -22 682 -22 c 0
 664 -22 622 -20 579 2 c 0
 550 17 520 42 496 81 c 1
128 554 m 1
 139 612 l 1
 254 612 310 653 341 678 c 1
 360 678 l 1
 251 59 l 1
 376 59 l 1
 366 0 l 1
 36 0 l 1
 46 59 l 1
 171 59 l 1
 262 577 l 1
 225 563 188 554 128 554 c 1
EndSplineSet
EndChar
StartChar: uF507B
Encoding: 1003643 1003643 167
Width: 1000
Flags: MW
LayerCount: 2
Fore
SplineSet
557 171 m 1
 566 219 l 0
 568 232 569 234 582 250 c 2
 895 655 l 1
 987 655 l 1
 913 232 l 1xe8
 1012 232 l 1
 1001 171 l 1
 902 171 l 1
 872 0 l 1
 792 0 l 1
 822 171 l 1xf0
 557 171 l 1
646 232 m 1
 839 232 l 1xe8
 907 618 l 1
 880 538 812 449 646 232 c 1
188 554 m 1
 198 612 l 1
 313 612 370 653 401 678 c 1
 420 678 l 1
 310 59 l 1
 435 59 l 1
 425 0 l 1
 95 0 l 1
 105 59 l 1
 230 59 l 1
 322 577 l 1
 285 563 248 554 188 554 c 1
EndSplineSet
EndChar
StartChar: uF507C
Encoding: 1003644 1003644 168
Width: 1000
Flags: MW
LayerCount: 2
Fore
SplineSet
488 76 m 1
 532 132 l 1
 535 125 539 119 542 113 c 0
 556 89 574 72 592 61 c 0
 622 43 654 40 672 40 c 0
 702 40 743 52 777 87 c 0
 801 112 822 150 832 205 c 0
 834 216 836 227 837 237 c 0
 841 284 831 315 818 335 c 0
 802 358 778 366 758 366 c 0
 679 366 634 286 634 286 c 1
 566 286 l 1
 631 655 l 1
 968 655 l 1
 957 591 l 1
 693 591 l 1
 657 386 l 1
 694 411 724 427 771 427 c 0
 820 427 861 405 889 367 c 4
 919 327 934 270 922 204 c 0
 911 140 875 82 826 41 c 0
 780 2 722 -22 662 -22 c 0
 620 -22 581 -11 550 9 c 0
 524 26 502 49 488 76 c 1
124 554 m 1
 135 612 l 1
 250 612 306 653 337 678 c 1
 356 678 l 1
 247 59 l 1
 372 59 l 1
 362 0 l 1
 32 0 l 1
 42 59 l 1
 167 59 l 1
 258 577 l 1
 221 563 184 554 124 554 c 1
EndSplineSet
EndChar
StartChar: uF507D
Encoding: 1003645 1003645 169
Width: 1000
Flags: MW
LayerCount: 2
Fore
SplineSet
535 323 m 0
 553 423 597 513 657 577 c 0
 715 640 789 678 865 678 c 0
 915 678 945 667 969 658 c 1
 958 598 l 1
 933 607 905 619 855 619 c 0
 800 619 754 591 717 551 c 0
 673 503 642 436 629 380 c 1
 680 433 750 462 813 462 c 0
 864 462 890 439 911 401 c 0
 939 349 944 299 936 241 c 0
 935 235 934 230 933 224 c 0
 919 146 891 93 832 40 c 0
 784 -3 739 -22 685 -22 c 0
 637 -22 579 -3 547 65 c 0
 522 117 513 199 535 323 c 0
608 247 m 0
 606 238 605 229 604 220 c 0
 599 146 602 40 695 40 c 0
 771 40 815 107 833 151 c 0
 841 173 846 195 850 218 c 0
 852 232 854 244 855 255 c 0
 860 294 858 320 845 349 c 0
 823 396 786 401 763 401 c 0
 696 401 641 348 617 280 c 4
 613 269 610 258 608 247 c 0
124 554 m 1
 134 612 l 1
 249 612 306 653 337 678 c 1
 356 678 l 1
 247 59 l 1
 372 59 l 1
 361 0 l 1
 31 0 l 1
 42 59 l 1
 167 59 l 1
 258 577 l 1
 221 563 184 554 124 554 c 1
EndSplineSet
EndChar
StartChar: uF507E
Encoding: 1003646 1003646 170
Width: 1000
Flags: MW
LayerCount: 2
Fore
SplineSet
644 585 m 1
 657 656 l 1
 1072 655 l 1
 1061 590 l 1
 891 428 773 208 734 -11 c 1
 649 -11 l 1
 684 188 790 404 992 585 c 1
 644 585 l 1
188 554 m 1
 198 612 l 1
 313 612 370 653 401 678 c 1
 420 678 l 1
 310 59 l 1
 435 59 l 1
 425 0 l 1
 95 0 l 1
 105 59 l 1
 230 59 l 1
 322 577 l 1
 285 563 248 554 188 554 c 1
EndSplineSet
EndChar
StartChar: uF507F
Encoding: 1003647 1003647 171
Width: 1000
Flags: MW
LayerCount: 2
Fore
SplineSet
508 180 m 0xf2
 520 249 574 319 678 354 c 1
 604 377 568 438 579 502 c 0
 595 595 693 678 804 678 c 0
 806 678 807 678 809 678 c 4
 912 676 984 598 967 503 c 0xec
 956 443 909 385 816 354 c 1
 876 334 941 276 924 179 c 0
 905 74 799 -22 681 -22 c 0
 563 -22 489 73 508 180 c 0xf2
589 181 m 0
 580 131 590 91 616 67 c 0
 634 50 659 40 691 40 c 0
 719 40 751 49 779 69 c 0
 809 91 834 128 844 182 c 0xf2
 846 191 845 200 846 209 c 0
 847 243 838 271 821 291 c 0
 803 312 775 323 740 323 c 0
 716 323 686 315 660 297 c 0
 633 278 608 249 595 205 c 0
 593 197 590 189 589 181 c 0
649 502 m 0
 642 465 652 435 671 415 c 0
 690 396 717 385 751 385 c 0
 785 385 816 395 840 412 c 0
 870 433 890 464 897 502 c 0
 899 512 899 522 899 531 c 0
 898 558 887 581 869 596 c 0
 851 611 825 619 794 619 c 0xec
 761 619 730 610 706 593 c 0
 681 575 662 550 653 519 c 0
 651 514 650 508 649 502 c 0
123 554 m 1
 133 612 l 1
 248 612 305 653 336 678 c 1
 355 678 l 1
 246 59 l 1
 371 59 l 1
 360 0 l 1
 30 0 l 1
 41 59 l 1
 166 59 l 1
 257 577 l 1
 220 563 183 554 123 554 c 1
EndSplineSet
EndChar
StartChar: uF5080
Encoding: 1003648 1003648 172
Width: 1000
Flags: MW
LayerCount: 2
Fore
SplineSet
619 435 m 0
 632 508 660 563 723 618 c 0
 772 660 817 678 872 678 c 0
 911 678 956 665 988 621 c 0
 1023 572 1043 485 1016 333 c 0
 996 220 944 124 880 61 c 0
 827 8 763 -22 701 -22 c 0
 639 -22 607 -3 576 24 c 1
 617 78 l 1
 637 62 658 40 714 40 c 0
 762 40 810 67 850 119 c 0
 875 152 897 194 913 245 c 0
 916 255 919 265 922 276 c 1
 869 224 806 193 738 193 c 0
 686 193 661 216 641 254 c 0
 609 312 607 366 619 435 c 0
701 435 m 0
 691 381 687 343 709 301 c 0
 723 274 746 255 788 255 c 0
 826 255 862 273 889 301 c 4
 916 329 936 368 943 410 c 0
 955 476 961 618 862 618 c 0
 834 618 809 609 789 595 c 0
 754 571 730 534 719 507 c 0
 709 483 705 460 701 435 c 0
188 554 m 1
 198 612 l 1
 313 612 370 653 401 678 c 1
 420 678 l 1
 310 59 l 1
 435 59 l 1
 425 0 l 1
 95 0 l 1
 105 59 l 1
 230 59 l 1
 322 577 l 1
 285 563 248 554 188 554 c 1
EndSplineSet
EndChar
StartChar: uF5081
Encoding: 1003649 1003649 173
Width: 1000
Flags: MW
LayerCount: 2
Fore
SplineSet
556 310 m 2
 559 329 l 2
 576 427 617 615 764 666 c 0
 783 673 804 678 829 678 c 0
 881 678 927 655 954 616 c 0
 1002 548 993 433 982 360 c 0
 980 347 978 335 976 325 c 0
 940 122 871 24 770 -11 c 0
 752 -18 732 -22 706 -22 c 0
 623 -22 507 26 556 310 c 2
634 308 m 2
 605 143 633 77 671 52 c 4
 686 42 702 39 717 39 c 0
 737 39 763 45 789 66 c 0
 829 99 870 168 895 309 c 2
 906 370 l 2
 923 468 918 528 901 564 c 0
 882 607 847 616 818 616 c 0
 766 616 683 583 645 370 c 2
 634 308 l 2
92 514 m 1
 132 598 199 678 315 678 c 0
 448 678 511 577 491 464 c 0
 474 367 401 313 281 221 c 0
 243 192 187 146 94 70 c 1
 422 71 l 1
 409 0 l 1
 9 0 l 1
 21 65 l 1
 174 194 l 2
 286 283 389 354 408 461 c 0
 423 545 376 613 290 613 c 0
 168 613 129 461 125 459 c 1
 92 514 l 1
EndSplineSet
EndChar
StartChar: uF5082
Encoding: 1003650 1003650 174
Width: 1000
Flags: MW
LayerCount: 2
Fore
SplineSet
688 554 m 1
 698 612 l 1
 813 612 870 653 901 678 c 1
 920 678 l 1
 810 59 l 1
 935 59 l 1
 925 0 l 1
 595 0 l 1
 605 59 l 1
 730 59 l 1
 822 577 l 1
 785 563 748 554 688 554 c 1
132 514 m 1
 172 598 239 678 355 678 c 0
 488 678 551 577 531 464 c 0
 514 367 441 313 321 221 c 0
 283 192 226 146 133 70 c 1
 462 71 l 1
 449 0 l 1
 49 0 l 1
 60 65 l 1
 213 194 l 2
 325 283 428 354 447 461 c 0
 462 545 416 613 330 613 c 0
 208 613 169 461 165 459 c 1
 132 514 l 1
EndSplineSet
EndChar
StartChar: uF5083
Encoding: 1003651 1003651 175
Width: 1000
Flags: MW
LayerCount: 2
Fore
SplineSet
632 514 m 1
 672 598 739 678 855 678 c 0
 988 678 1051 577 1031 464 c 0
 1014 367 941 313 821 221 c 0
 783 192 726 146 633 70 c 1
 962 71 l 1
 949 0 l 1
 549 0 l 1
 560 65 l 1
 713 194 l 2
 825 283 928 354 947 461 c 0
 962 545 916 613 830 613 c 0
 708 613 669 461 665 459 c 1
 632 514 l 1
132 514 m 1
 172 598 239 678 355 678 c 0
 488 678 551 577 531 464 c 0
 514 367 441 313 321 221 c 0
 283 192 226 146 133 70 c 1
 462 71 l 1
 449 0 l 1
 49 0 l 1
 60 65 l 1
 213 194 l 2
 325 283 428 354 447 461 c 0
 462 545 416 613 330 613 c 0
 208 613 169 461 165 459 c 1
 132 514 l 1
EndSplineSet
EndChar
StartChar: uF5084
Encoding: 1003652 1003652 176
Width: 1000
Flags: MW
LayerCount: 2
Fore
SplineSet
519 81 m 1
 541 142 l 1
 566 97 600 72 632 58 c 0
 667 42 700 40 715 40 c 0
 753 40 785 56 812 82 c 0
 837 107 856 142 863 182 c 0xe8
 865 192 866 202 866 212 c 0
 867 246 856 276 836 296 c 0
 819 313 794 323 760 323 c 2
 687 323 l 1
 698 385 l 1
 757 389 764 390 771 391 c 0
 839 403 892 464 903 525 c 0
 908 552 902 576 888 592 c 0
 873 609 850 618 819 618 c 0
 791 618 761 610 735 597 c 0
 710 584 685 566 666 543 c 0
 658 534 652 524 645 514 c 1
 619 569 l 1
 652 609 686 635 718 651 c 0
 765 675 808 678 831 678 c 0
 875 678 915 664 944 640 c 0
 976 613 993 573 985 525 c 0xf0
 980 497 966 455 927 414 c 0
 906 393 879 372 844 354 c 1
 881 340 908 320 926 296 c 0
 952 262 959 221 952 180 c 0
 943 127 909 71 857 31 c 4
 815 -1 764 -22 705 -22 c 0
 687 -22 645 -20 602 2 c 0
 573 17 543 42 519 81 c 1
95 514 m 1
 135 598 202 678 318 678 c 0
 451 678 514 577 494 464 c 0
 477 367 405 313 285 221 c 0
 247 192 190 146 97 70 c 1
 425 71 l 1
 413 0 l 1
 13 0 l 1
 24 65 l 1
 177 194 l 2
 289 283 392 354 411 461 c 0
 426 545 380 613 294 613 c 0
 172 613 133 461 129 459 c 1
 95 514 l 1
EndSplineSet
EndChar
StartChar: uF5085
Encoding: 1003653 1003653 177
Width: 1000
Flags: MW
LayerCount: 2
Fore
SplineSet
527 171 m 1
 535 219 l 0
 537 232 539 234 552 250 c 2
 865 655 l 1
 957 655 l 1
 882 232 l 1xe8
 981 232 l 1
 971 171 l 1
 872 171 l 1
 842 0 l 1
 762 0 l 1
 792 171 l 1xf0
 527 171 l 1
615 232 m 1
 808 232 l 1xe8
 877 618 l 1
 850 538 781 449 615 232 c 1
101 514 m 1
 141 598 208 678 324 678 c 0
 457 678 520 577 500 464 c 0
 483 367 411 313 291 221 c 0
 253 192 196 146 103 70 c 1
 431 71 l 1
 419 0 l 1
 19 0 l 1
 30 65 l 1
 183 194 l 2
 295 283 398 354 417 461 c 0
 432 545 386 613 300 613 c 0
 178 613 138 461 134 459 c 1
 101 514 l 1
EndSplineSet
EndChar
StartChar: uF5086
Encoding: 1003654 1003654 178
Width: 1000
Flags: MW
LayerCount: 2
Fore
SplineSet
511 76 m 1
 555 132 l 1
 558 125 562 119 565 113 c 0
 579 89 597 72 615 61 c 0
 645 43 677 40 695 40 c 0
 725 40 766 52 800 87 c 0
 824 112 845 150 855 205 c 0
 857 216 859 227 860 237 c 0
 864 284 854 315 841 335 c 0
 825 358 801 366 781 366 c 0
 702 366 657 286 657 286 c 1
 589 286 l 1
 654 655 l 1
 991 655 l 1
 980 591 l 1
 716 591 l 1
 680 386 l 1
 717 411 747 427 794 427 c 0
 843 427 884 405 912 367 c 4
 942 327 957 270 945 204 c 0
 934 140 898 82 849 41 c 0
 803 2 745 -22 685 -22 c 0
 643 -22 604 -11 573 9 c 0
 547 26 525 49 511 76 c 1
91 514 m 1
 131 598 198 678 314 678 c 0
 447 678 511 577 491 464 c 0
 474 367 401 313 281 221 c 0
 243 192 186 146 93 70 c 1
 421 71 l 1
 409 0 l 1
 9 0 l 1
 20 65 l 1
 173 194 l 2
 285 283 388 354 407 461 c 0
 422 545 376 613 290 613 c 0
 168 613 129 461 125 459 c 1
 91 514 l 1
EndSplineSet
EndChar
StartChar: uF5087
Encoding: 1003655 1003655 179
Width: 1000
Flags: MW
LayerCount: 2
Fore
SplineSet
599 323 m 0
 617 423 661 513 721 577 c 0
 779 640 853 678 929 678 c 0
 979 678 1008 667 1032 658 c 1
 1021 598 l 1
 996 607 968 619 918 619 c 0
 863 619 817 591 780 551 c 0
 736 503 706 436 693 380 c 1
 744 433 813 462 876 462 c 0
 927 462 954 439 975 401 c 0
 1003 349 1007 299 999 241 c 0
 998 235 997 230 996 224 c 0
 982 146 954 93 895 40 c 0
 847 -3 802 -22 748 -22 c 0
 700 -22 642 -3 610 65 c 0
 585 117 577 199 599 323 c 0
672 247 m 0
 670 238 669 229 668 220 c 0
 663 146 665 40 758 40 c 0
 834 40 879 107 897 151 c 0
 905 173 909 195 913 218 c 0
 915 232 918 244 919 255 c 0
 924 294 922 320 909 349 c 0
 887 396 850 401 827 401 c 0
 760 401 704 348 680 280 c 4
 676 269 674 258 672 247 c 0
132 514 m 1
 172 598 239 678 355 678 c 0
 488 678 551 577 531 464 c 0
 514 367 441 313 321 221 c 0
 283 192 226 146 133 70 c 1
 462 71 l 1
 449 0 l 1
 49 0 l 1
 60 65 l 1
 213 194 l 2
 325 283 428 354 447 461 c 0
 462 545 416 613 330 613 c 0
 208 613 169 461 165 459 c 1
 132 514 l 1
EndSplineSet
EndChar
StartChar: uF5088
Encoding: 1003656 1003656 180
Width: 1000
Flags: MW
LayerCount: 2
Fore
SplineSet
583 585 m 1
 596 656 l 1
 1012 655 l 1
 1000 590 l 1
 830 428 712 208 673 -11 c 1
 588 -11 l 1
 623 188 729 404 931 585 c 1
 583 585 l 1
71 514 m 1
 111 598 178 678 294 678 c 0
 427 678 490 577 470 464 c 0
 453 367 380 313 260 221 c 0
 222 192 166 146 73 70 c 1
 401 71 l 1
 388 0 l 1
 -12 0 l 1
 -0 65 l 1
 152 194 l 2
 264 283 368 354 387 461 c 0
 402 545 355 613 269 613 c 0
 147 613 108 461 104 459 c 1
 71 514 l 1
EndSplineSet
EndChar
StartChar: uF5089
Encoding: 1003657 1003657 181
Width: 1000
Flags: MW
LayerCount: 2
Fore
SplineSet
531 180 m 0xf2
 543 249 597 319 701 354 c 1
 627 377 591 438 602 502 c 0
 618 595 716 678 827 678 c 0
 829 678 830 678 832 678 c 4
 935 676 1007 598 990 503 c 0xec
 979 443 932 385 839 354 c 1
 899 334 964 276 947 179 c 0
 928 74 822 -22 704 -22 c 0
 586 -22 512 73 531 180 c 0xf2
612 181 m 0
 603 131 613 91 639 67 c 0
 657 50 682 40 714 40 c 0
 742 40 774 49 802 69 c 0
 832 91 857 128 867 182 c 0xf2
 869 191 868 200 869 209 c 0
 870 243 861 271 844 291 c 0
 826 312 798 323 763 323 c 0
 739 323 709 315 683 297 c 0
 656 278 631 249 618 205 c 0
 616 197 613 189 612 181 c 0
672 502 m 0
 665 465 675 435 694 415 c 0
 713 396 740 385 774 385 c 0
 808 385 839 395 863 412 c 0
 893 433 913 464 920 502 c 0
 922 512 922 522 922 531 c 0
 921 558 910 581 892 596 c 0
 874 611 848 619 817 619 c 0xec
 784 619 753 610 729 593 c 0
 704 575 685 550 676 519 c 0
 674 514 673 508 672 502 c 0
90 514 m 1
 130 598 197 678 313 678 c 0
 446 678 509 577 489 464 c 0
 472 367 399 313 279 221 c 0
 241 192 185 146 92 70 c 1
 420 71 l 1
 407 0 l 1
 7 0 l 1
 19 65 l 1
 172 194 l 2
 284 283 387 354 406 461 c 0
 421 545 375 613 289 613 c 0
 167 613 127 461 123 459 c 1
 90 514 l 1
EndSplineSet
EndChar
StartChar: uF508A
Encoding: 1003658 1003658 182
Width: 1000
Flags: MW
LayerCount: 2
Fore
SplineSet
580 435 m 0
 593 508 621 563 684 618 c 0
 733 660 778 678 833 678 c 0
 872 678 918 665 950 621 c 0
 985 572 1004 485 977 333 c 0
 957 220 905 124 841 61 c 0
 788 8 724 -22 662 -22 c 0
 600 -22 569 -3 538 24 c 1
 578 78 l 1
 598 62 619 40 675 40 c 0
 723 40 771 67 811 119 c 0
 836 152 858 194 874 245 c 0
 877 255 880 265 883 276 c 1
 830 224 767 193 699 193 c 0
 647 193 622 216 602 254 c 0
 570 312 568 366 580 435 c 0
662 435 m 0
 652 381 648 343 670 301 c 0
 684 274 707 255 749 255 c 0
 787 255 823 273 850 301 c 4
 877 329 898 368 905 410 c 0
 917 476 922 618 823 618 c 0
 795 618 770 609 750 595 c 0
 715 571 692 534 681 507 c 0
 671 483 666 460 662 435 c 0
93 514 m 1
 133 598 200 678 316 678 c 0
 449 678 512 577 492 464 c 0
 475 367 402 313 282 221 c 0
 244 192 188 146 95 70 c 1
 423 71 l 1
 410 0 l 1
 10 0 l 1
 22 65 l 1
 174 194 l 2
 286 283 390 354 409 461 c 0
 424 545 377 613 291 613 c 0
 169 613 130 461 126 459 c 1
 93 514 l 1
EndSplineSet
EndChar
StartChar: uF508B
Encoding: 1003659 1003659 183
Width: 1000
Flags: MW
LayerCount: 2
Fore
SplineSet
553 310 m 2
 556 329 l 2
 573 427 614 615 761 666 c 0
 780 673 801 678 826 678 c 0
 878 678 924 655 951 616 c 0
 999 548 990 433 979 360 c 0
 977 347 975 335 973 325 c 0
 937 122 868 24 767 -11 c 0
 749 -18 728 -22 702 -22 c 0
 619 -22 504 26 553 310 c 2
631 308 m 2
 602 143 629 77 667 52 c 4
 682 42 699 39 714 39 c 0
 734 39 760 45 786 66 c 0
 826 99 867 168 892 309 c 2
 902 370 l 2
 919 468 915 528 898 564 c 0
 879 607 844 616 815 616 c 0
 763 616 679 583 641 370 c 2
 631 308 l 2
13 81 m 1
 34 142 l 1
 59 97 93 72 125 58 c 0
 160 42 193 40 208 40 c 0
 246 40 279 56 306 82 c 0
 331 107 349 142 356 182 c 0xe8
 358 192 360 202 360 212 c 0
 361 246 349 276 329 296 c 0
 312 313 287 323 253 323 c 2
 180 323 l 1
 191 385 l 1
 250 389 257 390 264 391 c 0
 332 403 386 464 397 525 c 0
 402 552 396 576 382 592 c 0
 367 609 343 618 312 618 c 0
 284 618 255 610 229 597 c 0
 204 584 179 566 160 543 c 0
 152 534 146 524 139 514 c 1
 113 569 l 1
 146 609 180 635 212 651 c 0
 259 675 302 678 325 678 c 0
 369 678 409 664 438 640 c 0
 470 613 487 573 479 525 c 0xf0
 474 497 459 455 420 414 c 0
 399 393 373 372 338 354 c 1
 375 340 401 320 419 296 c 0
 445 262 453 221 446 180 c 0
 437 127 403 71 351 31 c 4
 309 -1 257 -22 198 -22 c 0
 180 -22 139 -20 96 2 c 0
 67 17 37 42 13 81 c 1
EndSplineSet
EndChar
StartChar: uF508C
Encoding: 1003660 1003660 184
Width: 1000
Flags: MW
LayerCount: 2
Fore
SplineSet
692 554 m 1
 703 612 l 1
 818 612 874 653 905 678 c 1
 924 678 l 1
 815 59 l 1
 940 59 l 1
 930 0 l 1
 600 0 l 1
 610 59 l 1
 735 59 l 1
 826 577 l 1
 789 563 752 554 692 554 c 1
60 81 m 1
 82 142 l 1
 107 97 141 72 173 58 c 0
 208 42 241 40 256 40 c 0
 294 40 326 56 353 82 c 0
 378 107 397 142 404 182 c 0xe8
 406 192 407 202 407 212 c 0
 408 246 397 276 377 296 c 0
 360 313 335 323 301 323 c 2
 228 323 l 1
 239 385 l 1
 298 389 305 390 312 391 c 0
 380 403 433 464 444 525 c 0
 449 552 443 576 429 592 c 0
 414 609 391 618 360 618 c 0
 332 618 302 610 276 597 c 0
 251 584 226 566 207 543 c 0
 199 534 193 524 186 514 c 1
 160 569 l 1
 193 609 227 635 259 651 c 0
 306 675 349 678 372 678 c 0
 416 678 457 664 486 640 c 0
 518 613 534 573 526 525 c 0xf0
 521 497 507 455 468 414 c 0
 447 393 420 372 385 354 c 1
 422 340 449 320 467 296 c 0
 493 262 500 221 493 180 c 0
 484 127 450 71 398 31 c 4
 356 -1 305 -22 246 -22 c 0
 228 -22 186 -20 143 2 c 0
 114 17 84 42 60 81 c 1
EndSplineSet
EndChar
StartChar: uF508D
Encoding: 1003661 1003661 185
Width: 1000
Flags: MW
LayerCount: 2
Fore
SplineSet
587 514 m 1
 627 598 694 678 810 678 c 0
 943 678 1006 577 986 464 c 0
 969 367 896 313 776 221 c 0
 738 192 681 146 588 70 c 1
 917 71 l 1
 904 0 l 1
 504 0 l 1
 516 65 l 1
 668 194 l 2
 780 283 883 354 902 461 c 0
 917 545 871 613 785 613 c 0
 663 613 624 461 620 459 c 1
 587 514 l 1
10 81 m 1
 32 142 l 1
 57 97 91 72 123 58 c 0
 158 42 191 40 206 40 c 0
 244 40 277 56 304 82 c 0
 329 107 347 142 354 182 c 0xe8
 356 192 358 202 358 212 c 0
 359 246 347 276 327 296 c 0
 310 313 285 323 251 323 c 2
 178 323 l 1
 189 385 l 1
 248 389 255 390 262 391 c 0
 330 403 384 464 395 525 c 0
 400 552 394 576 380 592 c 0
 365 609 341 618 310 618 c 0
 282 618 252 610 226 597 c 0
 201 584 177 566 158 543 c 0
 150 534 144 524 137 514 c 1
 110 569 l 1
 143 609 178 635 210 651 c 0
 257 675 300 678 323 678 c 0
 367 678 407 664 436 640 c 0
 468 613 485 573 477 525 c 0xf0
 472 497 457 455 418 414 c 0
 397 393 371 372 336 354 c 1
 373 340 399 320 417 296 c 0
 443 262 451 221 444 180 c 0
 435 127 401 71 349 31 c 4
 307 -1 255 -22 196 -22 c 0
 178 -22 137 -20 94 2 c 0
 65 17 34 42 10 81 c 1
EndSplineSet
EndChar
StartChar: uF508E
Encoding: 1003662 1003662 186
Width: 1000
Flags: MW
LayerCount: 2
Fore
SplineSet
516 81 m 1
 538 142 l 1
 563 97 597 72 629 58 c 0
 664 42 697 40 712 40 c 0
 750 40 782 56 809 82 c 0
 834 107 853 142 860 182 c 0xe8
 862 192 863 202 863 212 c 0
 864 246 853 276 833 296 c 0
 816 313 790 323 756 323 c 2
 683 323 l 1
 694 385 l 1
 753 389 760 390 767 391 c 0
 835 403 889 464 900 525 c 0
 905 552 899 576 885 592 c 0
 870 609 846 618 815 618 c 0
 787 618 758 610 732 597 c 0
 707 584 682 566 663 543 c 0
 655 534 649 524 642 514 c 1
 616 569 l 1
 649 609 683 635 715 651 c 0
 762 675 805 678 828 678 c 0
 872 678 912 664 941 640 c 0
 973 613 990 573 982 525 c 0xf0
 977 497 962 455 923 414 c 0
 902 393 876 372 841 354 c 1
 878 340 905 320 923 296 c 0
 949 262 956 221 949 180 c 0
 940 127 906 71 854 31 c 4
 812 -1 761 -22 702 -22 c 0
 684 -22 642 -20 599 2 c 0
 570 17 540 42 516 81 c 1
16 81 m 1
 38 142 l 1
 63 97 97 72 129 58 c 0
 164 42 197 40 212 40 c 0
 250 40 282 56 309 82 c 0
 334 107 353 142 360 182 c 0xe8
 362 192 363 202 363 212 c 0
 364 246 353 276 333 296 c 0
 316 313 290 323 256 323 c 2
 183 323 l 1
 194 385 l 1
 253 389 260 390 267 391 c 0
 335 403 389 464 400 525 c 0
 405 552 399 576 385 592 c 0
 370 609 346 618 315 618 c 0
 287 618 258 610 232 597 c 0
 207 584 182 566 163 543 c 0
 155 534 149 524 142 514 c 1
 116 569 l 1
 149 609 183 635 215 651 c 0
 262 675 305 678 328 678 c 0
 372 678 412 664 441 640 c 0
 473 613 490 573 482 525 c 0xf0
 477 497 462 455 423 414 c 0
 402 393 376 372 341 354 c 1
 378 340 405 320 423 296 c 0
 449 262 456 221 449 180 c 0
 440 127 406 71 354 31 c 4
 312 -1 261 -22 202 -22 c 0
 184 -22 142 -20 99 2 c 0
 70 17 40 42 16 81 c 1
EndSplineSet
EndChar
StartChar: uF508F
Encoding: 1003663 1003663 187
Width: 1000
Flags: MW
LayerCount: 2
Fore
SplineSet
524 171 m 1
 532 219 l 0
 534 232 535 234 548 250 c 2
 862 655 l 1
 954 655 l 1
 879 232 l 1xe8
 978 232 l 1
 968 171 l 1
 869 171 l 1
 838 0 l 1
 758 0 l 1
 789 171 l 1xf0
 524 171 l 1
612 232 m 1
 805 232 l 1xe8
 873 618 l 1
 846 538 778 449 612 232 c 1
22 81 m 1
 43 142 l 1
 68 97 103 72 135 58 c 0
 170 42 202 40 217 40 c 0
 255 40 288 56 315 82 c 0
 340 107 358 142 365 182 c 0xe8
 367 192 369 202 369 212 c 0
 370 246 359 276 339 296 c 0
 322 313 296 323 262 323 c 2
 189 323 l 1
 200 385 l 1
 259 389 266 390 273 391 c 0
 341 403 395 464 406 525 c 0
 411 552 405 576 391 592 c 0
 376 609 352 618 321 618 c 0
 293 618 264 610 238 597 c 0
 213 584 188 566 169 543 c 0
 161 534 155 524 148 514 c 1
 122 569 l 1
 155 609 189 635 221 651 c 0
 268 675 311 678 334 678 c 0
 378 678 418 664 447 640 c 0
 479 613 496 573 488 525 c 0xf0
 483 497 468 455 429 414 c 0
 408 393 382 372 347 354 c 1
 384 340 411 320 429 296 c 0
 455 262 462 221 455 180 c 0
 446 127 412 71 360 31 c 4
 318 -1 267 -22 208 -22 c 0
 190 -22 148 -20 105 2 c 0
 76 17 46 42 22 81 c 1
EndSplineSet
EndChar
StartChar: uF5090
Encoding: 1003664 1003664 188
Width: 1000
Flags: MW
LayerCount: 2
Fore
SplineSet
508 76 m 1
 552 132 l 1
 555 125 559 119 562 113 c 0
 576 89 593 72 611 61 c 0
 641 43 674 40 692 40 c 0
 722 40 763 52 797 87 c 0
 821 112 842 150 852 205 c 0
 854 216 855 227 856 237 c 0
 860 284 851 315 838 335 c 0
 822 358 798 366 778 366 c 0
 699 366 654 286 654 286 c 1
 586 286 l 1
 651 655 l 1
 988 655 l 1
 977 591 l 1
 713 591 l 1
 677 386 l 1
 714 411 744 427 791 427 c 0
 840 427 881 405 909 367 c 4
 939 327 954 270 942 204 c 0
 931 140 895 82 846 41 c 0
 800 2 742 -22 682 -22 c 0
 640 -22 601 -11 570 9 c 0
 544 26 522 49 508 76 c 1
12 81 m 1
 34 142 l 1
 59 97 93 72 125 58 c 0
 160 42 193 40 208 40 c 0
 246 40 278 56 305 82 c 0
 330 107 349 142 356 182 c 0xe8
 358 192 359 202 359 212 c 0
 360 246 349 276 329 296 c 0
 312 313 287 323 253 323 c 2
 180 323 l 1
 190 385 l 1
 249 389 257 390 264 391 c 0
 332 403 385 464 396 525 c 0
 401 552 395 576 381 592 c 0
 366 609 343 618 312 618 c 0
 284 618 254 610 228 597 c 0
 203 584 178 566 159 543 c 0
 151 534 145 524 138 514 c 1
 112 569 l 1
 145 609 179 635 211 651 c 0
 258 675 301 678 324 678 c 0
 368 678 408 664 437 640 c 0
 469 613 486 573 478 525 c 0xf0
 473 497 459 455 420 414 c 0
 399 393 372 372 337 354 c 1
 374 340 401 320 419 296 c 0
 445 262 452 221 445 180 c 0
 436 127 402 71 350 31 c 4
 308 -1 257 -22 198 -22 c 0
 180 -22 138 -20 95 2 c 0
 66 17 36 42 12 81 c 1
EndSplineSet
EndChar
StartChar: uF5091
Encoding: 1003665 1003665 189
Width: 1000
Flags: MW
LayerCount: 2
Fore
SplineSet
599 323 m 0
 617 423 661 513 721 577 c 0
 779 640 853 678 929 678 c 0
 979 678 1008 667 1032 658 c 1
 1021 598 l 1
 996 607 968 619 918 619 c 0
 863 619 817 591 780 551 c 0
 736 503 706 436 693 380 c 1
 744 433 813 462 876 462 c 0
 927 462 954 439 975 401 c 0
 1003 349 1007 299 999 241 c 0
 998 235 997 230 996 224 c 0
 982 146 954 93 895 40 c 0
 847 -3 802 -22 748 -22 c 0
 700 -22 642 -3 610 65 c 0
 585 117 577 199 599 323 c 0
672 247 m 0
 670 238 669 229 668 220 c 0
 663 146 665 40 758 40 c 0
 834 40 879 107 897 151 c 0
 905 173 909 195 913 218 c 0
 915 232 918 244 919 255 c 0
 924 294 922 320 909 349 c 0
 887 396 850 401 827 401 c 0
 760 401 704 348 680 280 c 4
 676 269 674 258 672 247 c 0
55 81 m 1
 77 142 l 1
 102 97 136 72 168 58 c 0
 203 42 236 40 251 40 c 0
 289 40 321 56 348 82 c 0
 373 107 392 142 399 182 c 0xe8
 401 192 402 202 402 212 c 0
 403 246 392 276 372 296 c 0
 355 313 330 323 296 323 c 2
 223 323 l 1
 234 385 l 1
 293 389 300 390 307 391 c 0
 375 403 429 464 440 525 c 0
 445 552 438 576 424 592 c 0
 409 609 386 618 355 618 c 0
 327 618 297 610 271 597 c 0
 246 584 222 566 203 543 c 0
 195 534 189 524 182 514 c 1
 155 569 l 1
 188 609 223 635 255 651 c 0
 302 675 345 678 368 678 c 0
 412 678 452 664 481 640 c 0
 513 613 530 573 522 525 c 0xf0
 517 497 502 455 463 414 c 0
 442 393 415 372 380 354 c 1
 417 340 444 320 462 296 c 0
 488 262 496 221 489 180 c 0
 480 127 445 71 393 31 c 4
 351 -1 300 -22 241 -22 c 0
 223 -22 181 -20 138 2 c 0
 109 17 79 42 55 81 c 1
EndSplineSet
EndChar
StartChar: uF5092
Encoding: 1003666 1003666 190
Width: 1000
Flags: MW
LayerCount: 2
Fore
SplineSet
580 585 m 1
 593 656 l 1
 1009 655 l 1
 997 590 l 1
 827 428 709 208 670 -11 c 1
 585 -11 l 1
 620 188 726 404 928 585 c 1
 580 585 l 1
-9 81 m 1
 13 142 l 1
 38 97 72 72 104 58 c 0
 139 42 172 40 187 40 c 0
 225 40 258 56 285 82 c 0
 310 107 328 142 335 182 c 0xe8
 337 192 338 202 338 212 c 0
 339 246 328 276 308 296 c 0
 291 313 266 323 232 323 c 2
 159 323 l 1
 170 385 l 1
 229 389 236 390 243 391 c 0
 311 403 365 464 376 525 c 0
 381 552 374 576 360 592 c 0
 345 609 322 618 291 618 c 0
 263 618 233 610 207 597 c 0
 182 584 158 566 139 543 c 0
 131 534 125 524 118 514 c 1
 91 569 l 1
 124 609 159 635 191 651 c 0
 238 675 281 678 304 678 c 0
 348 678 388 664 417 640 c 0
 449 613 466 573 458 525 c 0xf0
 453 497 438 455 399 414 c 0
 378 393 352 372 317 354 c 1
 354 340 380 320 398 296 c 0
 424 262 432 221 425 180 c 0
 416 127 382 71 330 31 c 4
 288 -1 236 -22 177 -22 c 0
 159 -22 117 -20 74 2 c 0
 45 17 15 42 -9 81 c 1
EndSplineSet
EndChar
StartChar: uF5093
Encoding: 1003667 1003667 191
Width: 1000
Flags: MW
LayerCount: 2
Fore
SplineSet
573 180 m 0xf2
 585 249 638 319 742 354 c 1
 668 377 633 438 644 502 c 0
 660 595 758 678 869 678 c 0
 871 678 872 678 874 678 c 4
 977 676 1049 598 1032 503 c 0xec
 1021 443 973 385 880 354 c 1
 940 334 1006 276 989 179 c 0
 970 74 863 -22 745 -22 c 0
 627 -22 554 73 573 180 c 0xf2
654 181 m 0
 645 131 655 91 681 67 c 0
 699 50 724 40 756 40 c 0
 784 40 815 49 843 69 c 0
 873 91 898 128 908 182 c 0xf2
 910 191 910 200 911 209 c 0
 912 243 902 271 885 291 c 0
 867 312 840 323 805 323 c 0
 781 323 750 315 724 297 c 0
 697 278 672 249 659 205 c 0
 657 197 655 189 654 181 c 0
714 502 m 0
 707 465 716 435 735 415 c 0
 754 396 782 385 816 385 c 0
 850 385 881 395 905 412 c 0
 935 433 955 464 962 502 c 0
 964 512 964 522 964 531 c 0
 963 558 951 581 933 596 c 0
 915 611 889 619 858 619 c 0xec
 825 619 795 610 771 593 c 0
 746 575 727 550 718 519 c 0
 716 514 715 508 714 502 c 0
55 81 m 1
 77 142 l 1
 102 97 136 72 168 58 c 0
 203 42 236 40 251 40 c 0
 289 40 321 56 348 82 c 0
 373 107 392 142 399 182 c 0xe8
 401 192 402 202 402 212 c 0
 403 246 392 276 372 296 c 0
 355 313 330 323 296 323 c 2
 223 323 l 1
 234 385 l 1
 293 389 300 390 307 391 c 0
 375 403 429 464 440 525 c 0
 445 552 438 576 424 592 c 0
 409 609 386 618 355 618 c 0
 327 618 297 610 271 597 c 0
 246 584 222 566 203 543 c 0
 195 534 189 524 182 514 c 1
 155 569 l 1
 188 609 223 635 255 651 c 0
 302 675 345 678 368 678 c 0
 412 678 452 664 481 640 c 0
 513 613 530 573 522 525 c 0xf0
 517 497 502 455 463 414 c 0
 442 393 415 372 380 354 c 1
 417 340 444 320 462 296 c 0
 488 262 496 221 489 180 c 0
 480 127 445 71 393 31 c 4
 351 -1 300 -22 241 -22 c 0
 223 -22 181 -20 138 2 c 0
 109 17 79 42 55 81 c 1
EndSplineSet
EndChar
StartChar: uF5094
Encoding: 1003668 1003668 192
Width: 1000
Flags: MW
LayerCount: 2
Fore
SplineSet
577 435 m 0
 590 508 618 563 681 618 c 0
 730 660 775 678 830 678 c 0
 869 678 915 665 947 621 c 0
 982 572 1001 485 974 333 c 0
 954 220 902 124 838 61 c 0
 785 8 721 -22 659 -22 c 0
 597 -22 565 -3 534 24 c 1
 575 78 l 1
 595 62 616 40 672 40 c 0
 720 40 768 67 808 119 c 0
 833 152 855 194 871 245 c 0
 874 255 877 265 880 276 c 1
 827 224 764 193 696 193 c 0
 644 193 619 216 599 254 c 0
 567 312 565 366 577 435 c 0
659 435 m 0
 649 381 645 343 667 301 c 0
 681 274 704 255 746 255 c 0
 784 255 820 273 847 301 c 4
 874 329 894 368 901 410 c 0
 913 476 919 618 820 618 c 0
 792 618 767 609 747 595 c 0
 712 571 689 534 678 507 c 0
 668 483 663 460 659 435 c 0
13 81 m 1
 35 142 l 1
 60 97 94 72 126 58 c 0
 161 42 194 40 209 40 c 0
 247 40 280 56 307 82 c 0
 332 107 350 142 357 182 c 0xe8
 359 192 361 202 361 212 c 0
 362 246 350 276 330 296 c 0
 313 313 288 323 254 323 c 2
 181 323 l 1
 192 385 l 1
 251 389 258 390 265 391 c 0
 333 403 387 464 398 525 c 0
 403 552 397 576 383 592 c 0
 368 609 344 618 313 618 c 0
 285 618 255 610 229 597 c 0
 204 584 180 566 161 543 c 0
 153 534 147 524 140 514 c 1
 113 569 l 1
 146 609 181 635 213 651 c 0
 260 675 303 678 326 678 c 0
 370 678 410 664 439 640 c 0
 471 613 488 573 480 525 c 0xf0
 475 497 460 455 421 414 c 0
 400 393 374 372 339 354 c 1
 376 340 402 320 420 296 c 0
 446 262 454 221 447 180 c 0
 438 127 404 71 352 31 c 4
 310 -1 258 -22 199 -22 c 0
 181 -22 139 -20 96 2 c 0
 67 17 37 42 13 81 c 1
EndSplineSet
EndChar
StartChar: uF5095
Encoding: 1003669 1003669 193
Width: 1000
Flags: MW
LayerCount: 2
Fore
SplineSet
596 310 m 2
 599 329 l 2
 616 427 656 615 803 666 c 0
 822 673 844 678 869 678 c 0
 921 678 967 655 994 616 c 0
 1042 548 1032 433 1021 360 c 0
 1019 347 1017 335 1015 325 c 0
 979 122 911 24 810 -11 c 0
 792 -18 771 -22 745 -22 c 0
 662 -22 547 26 596 310 c 2
673 308 m 2
 644 143 672 77 710 52 c 0
 725 42 742 39 757 39 c 0
 777 39 803 45 829 66 c 0
 869 99 909 168 934 309 c 2
 945 370 l 2
 962 468 957 528 940 564 c 0
 921 607 887 616 858 616 c 0
 806 616 722 583 684 370 c 2
 673 308 l 2
57 171 m 1
 66 219 l 0
 68 232 69 234 82 250 c 2
 395 655 l 1
 487 655 l 1
 413 232 l 1xe8
 512 232 l 1
 501 171 l 1
 402 171 l 1
 372 0 l 1
 292 0 l 1
 322 171 l 1xf0
 57 171 l 1
146 232 m 1
 339 232 l 1xe8
 407 618 l 1
 380 538 312 449 146 232 c 1
EndSplineSet
EndChar
StartChar: uF5096
Encoding: 1003670 1003670 194
Width: 1000
Flags: MW
LayerCount: 2
Fore
SplineSet
688 554 m 1
 698 612 l 1
 813 612 870 653 901 678 c 1
 920 678 l 1
 810 59 l 1
 935 59 l 1
 925 0 l 1
 595 0 l 1
 605 59 l 1
 730 59 l 1
 822 577 l 1
 785 563 748 554 688 554 c 1
57 171 m 1
 66 219 l 0
 68 232 69 234 82 250 c 2
 395 655 l 1
 487 655 l 1
 413 232 l 1xe8
 512 232 l 1
 501 171 l 1
 402 171 l 1
 372 0 l 1
 292 0 l 1
 322 171 l 1xf0
 57 171 l 1
146 232 m 1
 339 232 l 1xe8
 407 618 l 1
 380 538 312 449 146 232 c 1
EndSplineSet
EndChar
StartChar: uF5097
Encoding: 1003671 1003671 195
Width: 1000
Flags: MW
LayerCount: 2
Fore
SplineSet
632 514 m 1
 672 598 739 678 855 678 c 0
 988 678 1051 577 1031 464 c 0
 1014 367 941 313 821 221 c 0
 783 192 726 146 633 70 c 1
 962 71 l 1
 949 0 l 1
 549 0 l 1
 560 65 l 1
 713 194 l 2
 825 283 928 354 947 461 c 0
 962 545 916 613 830 613 c 0
 708 613 669 461 665 459 c 1
 632 514 l 1
57 171 m 1
 66 219 l 0
 68 232 69 234 82 250 c 2
 395 655 l 1
 487 655 l 1
 413 232 l 1xe8
 512 232 l 1
 501 171 l 1
 402 171 l 1
 372 0 l 1
 292 0 l 1
 322 171 l 1xf0
 57 171 l 1
146 232 m 1
 339 232 l 1xe8
 407 618 l 1
 380 538 312 449 146 232 c 1
EndSplineSet
EndChar
StartChar: uF5098
Encoding: 1003672 1003672 196
Width: 1000
Flags: MW
LayerCount: 2
Fore
SplineSet
555 81 m 1
 577 142 l 1
 602 97 636 72 668 58 c 0
 703 42 736 40 751 40 c 0
 789 40 821 56 848 82 c 0
 873 107 892 142 899 182 c 0xe8
 901 192 902 202 902 212 c 0
 903 246 892 276 872 296 c 0
 855 313 830 323 796 323 c 2
 723 323 l 1
 734 385 l 1
 793 389 800 390 807 391 c 0
 875 403 929 464 940 525 c 0
 945 552 938 576 924 592 c 0
 909 609 886 618 855 618 c 0
 827 618 797 610 771 597 c 0
 746 584 722 566 703 543 c 0
 695 534 689 524 682 514 c 1
 655 569 l 1
 688 609 723 635 755 651 c 0
 802 675 845 678 868 678 c 0
 912 678 952 664 981 640 c 0
 1013 613 1030 573 1022 525 c 0xf0
 1017 497 1002 455 963 414 c 0
 942 393 915 372 880 354 c 1
 917 340 944 320 962 296 c 0
 988 262 996 221 989 180 c 0
 980 127 945 71 893 31 c 4
 851 -1 800 -22 741 -22 c 0
 723 -22 681 -20 638 2 c 0
 609 17 579 42 555 81 c 1
57 171 m 1
 66 219 l 0
 68 232 69 234 82 250 c 2
 395 655 l 1
 487 655 l 1
 413 232 l 1xe8
 512 232 l 1
 501 171 l 1
 402 171 l 1
 372 0 l 1
 292 0 l 1
 322 171 l 1xf0
 57 171 l 1
146 232 m 1
 339 232 l 1xe8
 407 618 l 1
 380 538 312 449 146 232 c 1
EndSplineSet
EndChar
StartChar: uF5099
Encoding: 1003673 1003673 197
Width: 1000
Flags: MW
LayerCount: 2
Fore
SplineSet
523 171 m 1
 531 219 l 0
 533 232 535 234 548 250 c 2
 861 655 l 1
 953 655 l 1
 878 232 l 1xe8
 977 232 l 1
 967 171 l 1
 868 171 l 1
 837 0 l 1
 757 0 l 1
 788 171 l 1xf0
 523 171 l 1
611 232 m 1
 804 232 l 1xe8
 872 618 l 1
 845 538 777 449 611 232 c 1
23 171 m 1
 31 219 l 0
 33 232 35 234 48 250 c 2
 361 655 l 1
 453 655 l 1
 378 232 l 1xe8
 477 232 l 1
 467 171 l 1
 368 171 l 1
 337 0 l 1
 257 0 l 1
 288 171 l 1xf0
 23 171 l 1
111 232 m 1
 304 232 l 1xe8
 372 618 l 1
 345 538 277 449 111 232 c 1
EndSplineSet
EndChar
StartChar: uF509A
Encoding: 1003674 1003674 198
Width: 1000
Flags: MW
LayerCount: 2
Fore
SplineSet
551 76 m 1
 595 132 l 1
 598 125 602 119 605 113 c 0
 619 89 637 72 655 61 c 0
 685 43 717 40 735 40 c 0
 765 40 806 52 840 87 c 0
 864 112 885 150 895 205 c 0
 897 216 899 227 900 237 c 0
 904 284 894 315 881 335 c 0
 865 358 842 366 822 366 c 0
 743 366 697 286 697 286 c 1
 629 286 l 1
 694 655 l 1
 1031 655 l 1
 1020 591 l 1
 756 591 l 1
 720 386 l 1
 757 411 787 427 834 427 c 0
 883 427 925 405 953 367 c 4
 983 327 997 270 985 204 c 0
 974 140 938 82 889 41 c 0
 843 2 785 -22 725 -22 c 0
 683 -22 645 -11 614 9 c 0
 588 26 565 49 551 76 c 1
57 171 m 1
 66 219 l 0
 68 232 69 234 82 250 c 2
 395 655 l 1
 487 655 l 1
 413 232 l 1xe8
 512 232 l 1
 501 171 l 1
 402 171 l 1
 372 0 l 1
 292 0 l 1
 322 171 l 1xf0
 57 171 l 1
146 232 m 1
 339 232 l 1xe8
 407 618 l 1
 380 538 312 449 146 232 c 1
EndSplineSet
EndChar
StartChar: uF509B
Encoding: 1003675 1003675 199
Width: 1000
Flags: MW
LayerCount: 2
Fore
SplineSet
599 323 m 0
 617 423 661 513 721 577 c 0
 779 640 853 678 929 678 c 0
 979 678 1008 667 1032 658 c 1
 1021 598 l 1
 996 607 968 619 918 619 c 0
 863 619 817 591 780 551 c 0
 736 503 706 436 693 380 c 1
 744 433 813 462 876 462 c 0
 927 462 954 439 975 401 c 0
 1003 349 1007 299 999 241 c 0
 998 235 997 230 996 224 c 0
 982 146 954 93 895 40 c 0
 847 -3 802 -22 748 -22 c 0
 700 -22 642 -3 610 65 c 0
 585 117 577 199 599 323 c 0
672 247 m 0
 670 238 669 229 668 220 c 0
 663 146 665 40 758 40 c 0
 834 40 879 107 897 151 c 0
 905 173 909 195 913 218 c 0
 915 232 918 244 919 255 c 0
 924 294 922 320 909 349 c 0
 887 396 850 401 827 401 c 0
 760 401 704 348 680 280 c 4
 676 269 674 258 672 247 c 0
57 171 m 1
 66 219 l 0
 68 232 69 234 82 250 c 2
 395 655 l 1
 487 655 l 1
 413 232 l 1xe8
 512 232 l 1
 501 171 l 1
 402 171 l 1
 372 0 l 1
 292 0 l 1
 322 171 l 1xf0
 57 171 l 1
146 232 m 1
 339 232 l 1xe8
 407 618 l 1
 380 538 312 449 146 232 c 1
EndSplineSet
EndChar
StartChar: uF509C
Encoding: 1003676 1003676 200
Width: 1000
Flags: MW
LayerCount: 2
Fore
SplineSet
579 585 m 1
 592 656 l 1
 1008 655 l 1
 996 590 l 1
 826 428 708 208 669 -11 c 1
 584 -11 l 1
 619 188 725 404 927 585 c 1
 579 585 l 1
-8 171 m 1
 1 219 l 0
 3 232 4 234 17 250 c 2
 331 655 l 1
 423 655 l 1
 348 232 l 1xe8
 447 232 l 1
 436 171 l 1
 337 171 l 1
 307 0 l 1
 227 0 l 1
 257 171 l 1xf0
 -8 171 l 1
81 232 m 1
 274 232 l 1xe8
 342 618 l 1
 315 538 247 449 81 232 c 1
EndSplineSet
EndChar
StartChar: uF509D
Encoding: 1003677 1003677 201
Width: 1000
Flags: MW
LayerCount: 2
Fore
SplineSet
527 180 m 0xf2
 539 249 593 319 697 354 c 1
 623 377 587 438 598 502 c 0
 614 595 712 678 823 678 c 0
 825 678 826 678 828 678 c 4
 931 676 1003 598 986 503 c 0xec
 975 443 928 385 835 354 c 1
 895 334 960 276 943 179 c 0
 924 74 817 -22 699 -22 c 0
 581 -22 508 73 527 180 c 0xf2
608 181 m 0
 599 131 609 91 635 67 c 0
 653 50 678 40 710 40 c 0
 738 40 770 49 798 69 c 0
 828 91 852 128 862 182 c 0xf2
 864 191 864 200 865 209 c 0
 866 243 857 271 840 291 c 0
 822 312 794 323 759 323 c 0
 735 323 705 315 679 297 c 0
 652 278 627 249 614 205 c 0
 612 197 609 189 608 181 c 0
668 502 m 0
 661 465 671 435 690 415 c 0
 709 396 736 385 770 385 c 0
 804 385 835 395 859 412 c 0
 889 433 909 464 916 502 c 0
 918 512 918 522 918 531 c 0
 917 558 905 581 887 596 c 0
 869 611 844 619 813 619 c 0xec
 780 619 749 610 725 593 c 0
 700 575 681 550 672 519 c 0
 670 514 669 508 668 502 c 0
12 171 m 1
 20 219 l 0
 22 232 23 234 36 250 c 2
 350 655 l 1
 442 655 l 1
 367 232 l 1xe8
 466 232 l 1
 456 171 l 1
 357 171 l 1
 326 0 l 1
 246 0 l 1
 277 171 l 1xf0
 12 171 l 1
100 232 m 1
 293 232 l 1xe8
 361 618 l 1
 334 538 266 449 100 232 c 1
EndSplineSet
EndChar
StartChar: uF509E
Encoding: 1003678 1003678 202
Width: 1000
Flags: MW
LayerCount: 2
Fore
SplineSet
576 435 m 0
 589 508 617 563 680 618 c 0
 729 660 774 678 829 678 c 0
 868 678 914 665 946 621 c 0
 981 572 1000 485 973 333 c 0
 953 220 901 124 837 61 c 0
 784 8 720 -22 658 -22 c 0
 596 -22 564 -3 533 24 c 1
 574 78 l 1
 594 62 615 40 671 40 c 0
 719 40 767 67 807 119 c 0
 832 152 854 194 870 245 c 0
 873 255 876 265 879 276 c 1
 826 224 763 193 695 193 c 0
 643 193 618 216 598 254 c 0
 566 312 564 366 576 435 c 0
658 435 m 0
 648 381 644 343 666 301 c 0
 680 274 703 255 745 255 c 0
 783 255 819 273 846 301 c 4
 873 329 894 368 901 410 c 0
 913 476 918 618 819 618 c 0
 791 618 766 609 746 595 c 0
 711 571 688 534 677 507 c 0
 667 483 662 460 658 435 c 0
14 171 m 1
 23 219 l 0
 25 232 26 234 39 250 c 2
 353 655 l 1
 445 655 l 1
 370 232 l 1xe8
 469 232 l 1
 458 171 l 1
 359 171 l 1
 329 0 l 1
 249 0 l 1
 279 171 l 1xf0
 14 171 l 1
103 232 m 1
 296 232 l 1xe8
 364 618 l 1
 337 538 269 449 103 232 c 1
EndSplineSet
EndChar
StartChar: uF509F
Encoding: 1003679 1003679 203
Width: 1000
Flags: MW
LayerCount: 2
Fore
SplineSet
596 310 m 2
 599 329 l 2
 616 427 656 615 803 666 c 0
 822 673 844 678 869 678 c 0
 921 678 967 655 994 616 c 0
 1042 548 1032 433 1021 360 c 0
 1019 347 1017 335 1015 325 c 0
 979 122 911 24 810 -11 c 0
 792 -18 771 -22 745 -22 c 0
 662 -22 547 26 596 310 c 2
673 308 m 2
 644 143 672 77 710 52 c 0
 725 42 742 39 757 39 c 0
 777 39 803 45 829 66 c 0
 869 99 909 168 934 309 c 2
 945 370 l 2
 962 468 957 528 940 564 c 0
 921 607 887 616 858 616 c 0
 806 616 722 583 684 370 c 2
 673 308 l 2
51 76 m 1
 95 132 l 1
 98 125 102 119 105 113 c 0
 119 89 137 72 155 61 c 0
 185 43 217 40 235 40 c 0
 265 40 306 52 340 87 c 0
 364 112 385 150 395 205 c 0
 397 216 399 227 400 237 c 0
 404 284 394 315 381 335 c 0
 365 358 342 366 322 366 c 0
 243 366 197 286 197 286 c 1
 129 286 l 1
 194 655 l 1
 531 655 l 1
 520 591 l 1
 256 591 l 1
 220 386 l 1
 257 411 287 427 334 427 c 0
 383 427 425 405 453 367 c 4
 483 327 497 270 485 204 c 0
 474 140 438 82 389 41 c 0
 343 2 285 -22 225 -22 c 0
 183 -22 145 -11 114 9 c 0
 88 26 65 49 51 76 c 1
EndSplineSet
EndChar
StartChar: uF50A0
Encoding: 1003680 1003680 204
Width: 1000
Flags: MW
LayerCount: 2
Fore
SplineSet
694 554 m 1
 705 612 l 1
 820 612 876 653 907 678 c 1
 926 678 l 1
 817 59 l 1
 942 59 l 1
 932 0 l 1
 602 0 l 1
 612 59 l 1
 737 59 l 1
 828 577 l 1
 791 563 754 554 694 554 c 1
58 76 m 1
 102 132 l 1
 105 125 109 119 112 113 c 0
 126 89 143 72 161 61 c 0
 191 43 224 40 242 40 c 0
 272 40 313 52 347 87 c 0
 371 112 392 150 402 205 c 0
 404 216 405 227 406 237 c 0
 410 284 401 315 388 335 c 0
 372 358 348 366 328 366 c 0
 249 366 204 286 204 286 c 1
 136 286 l 1
 201 655 l 1
 538 655 l 1
 527 591 l 1
 263 591 l 1
 227 386 l 1
 264 411 294 427 341 427 c 0
 390 427 431 405 459 367 c 4
 489 327 504 270 492 204 c 0
 481 140 445 82 396 41 c 0
 350 2 292 -22 232 -22 c 0
 190 -22 151 -11 120 9 c 0
 94 26 72 49 58 76 c 1
EndSplineSet
EndChar
StartChar: uF50A1
Encoding: 1003681 1003681 205
Width: 1000
Flags: MW
LayerCount: 2
Fore
SplineSet
589 514 m 1
 629 598 696 678 812 678 c 0
 945 678 1008 577 988 464 c 0
 971 367 898 313 778 221 c 0
 740 192 683 146 590 70 c 1
 919 71 l 1
 906 0 l 1
 506 0 l 1
 518 65 l 1
 670 194 l 2
 782 283 885 354 904 461 c 0
 919 545 873 613 787 613 c 0
 665 613 626 461 622 459 c 1
 589 514 l 1
8 76 m 1
 52 132 l 1
 55 125 59 119 62 113 c 0
 76 89 94 72 112 61 c 0
 142 43 174 40 192 40 c 0
 222 40 263 52 297 87 c 0
 321 112 342 150 352 205 c 0
 354 216 356 227 357 237 c 0
 361 284 351 315 338 335 c 0
 322 358 299 366 279 366 c 0
 200 366 155 286 155 286 c 1
 87 286 l 1
 152 655 l 1
 489 655 l 1
 477 591 l 1
 213 591 l 1
 177 386 l 1
 214 411 244 427 291 427 c 0
 340 427 382 405 410 367 c 4
 440 327 454 270 442 204 c 0
 431 140 395 82 346 41 c 0
 300 2 242 -22 182 -22 c 0
 140 -22 102 -11 71 9 c 0
 45 26 22 49 8 76 c 1
EndSplineSet
EndChar
StartChar: uF50A2
Encoding: 1003682 1003682 206
Width: 1000
Flags: MW
LayerCount: 2
Fore
SplineSet
518 81 m 1
 539 142 l 1
 564 97 599 72 631 58 c 0
 666 42 698 40 713 40 c 0
 751 40 784 56 811 82 c 0
 836 107 855 142 862 182 c 0xe8
 864 192 865 202 865 212 c 0
 866 246 855 276 835 296 c 0
 818 313 792 323 758 323 c 2
 685 323 l 1
 696 385 l 1
 755 389 762 390 769 391 c 0
 837 403 891 464 902 525 c 0
 907 552 901 576 887 592 c 0
 872 609 848 618 817 618 c 0
 789 618 760 610 734 597 c 0
 709 584 684 566 665 543 c 0
 657 534 651 524 644 514 c 1
 618 569 l 1
 651 609 685 635 717 651 c 0
 764 675 807 678 830 678 c 0
 874 678 914 664 943 640 c 0
 975 613 992 573 984 525 c 0xf0
 979 497 964 455 925 414 c 0
 904 393 878 372 843 354 c 1
 880 340 907 320 925 296 c 0
 951 262 958 221 951 180 c 0
 942 127 908 71 856 31 c 4
 814 -1 763 -22 704 -22 c 0
 686 -22 644 -20 601 2 c 0
 572 17 542 42 518 81 c 1
14 76 m 1
 58 132 l 1
 61 125 64 119 67 113 c 0
 81 89 99 72 117 61 c 0
 147 43 179 40 197 40 c 0
 227 40 269 52 303 87 c 0
 327 112 348 150 358 205 c 0
 360 216 361 227 362 237 c 0
 366 284 357 315 344 335 c 0
 328 358 304 366 284 366 c 0
 205 366 160 286 160 286 c 1
 92 286 l 1
 157 655 l 1
 494 655 l 1
 483 591 l 1
 219 591 l 1
 182 386 l 1
 219 411 250 427 297 427 c 0
 346 427 387 405 415 367 c 4
 445 327 459 270 447 204 c 0
 436 140 401 82 352 41 c 0
 306 2 248 -22 188 -22 c 0
 146 -22 107 -11 76 9 c 0
 50 26 28 49 14 76 c 1
EndSplineSet
EndChar
StartChar: uF50A3
Encoding: 1003683 1003683 207
Width: 1000
Flags: MW
LayerCount: 2
Fore
SplineSet
525 171 m 1
 534 219 l 0
 536 232 537 234 550 250 c 2
 864 655 l 1
 956 655 l 1
 881 232 l 1xe8
 980 232 l 1
 969 171 l 1
 870 171 l 1
 840 0 l 1
 760 0 l 1
 790 171 l 1xf0
 525 171 l 1
614 232 m 1
 807 232 l 1xe8
 875 618 l 1
 848 538 780 449 614 232 c 1
20 76 m 1
 64 132 l 1
 67 125 70 119 73 113 c 0
 87 89 105 72 123 61 c 0
 153 43 185 40 203 40 c 0
 233 40 275 52 309 87 c 0
 333 112 353 150 363 205 c 0
 365 216 367 227 368 237 c 0
 372 284 362 315 349 335 c 0
 333 358 310 366 290 366 c 0
 211 366 166 286 166 286 c 1
 98 286 l 1
 163 655 l 1
 500 655 l 1
 489 591 l 1
 225 591 l 1
 188 386 l 1
 225 411 256 427 303 427 c 0
 352 427 393 405 421 367 c 4
 451 327 465 270 453 204 c 0
 442 140 407 82 358 41 c 0
 312 2 253 -22 193 -22 c 0
 151 -22 113 -11 82 9 c 0
 56 26 34 49 20 76 c 1
EndSplineSet
EndChar
StartChar: uF50A4
Encoding: 1003684 1003684 208
Width: 1000
Flags: MW
LayerCount: 2
Fore
SplineSet
551 76 m 1
 595 132 l 1
 598 125 602 119 605 113 c 0
 619 89 637 72 655 61 c 0
 685 43 717 40 735 40 c 0
 765 40 806 52 840 87 c 0
 864 112 885 150 895 205 c 0
 897 216 899 227 900 237 c 0
 904 284 894 315 881 335 c 0
 865 358 842 366 822 366 c 0
 743 366 697 286 697 286 c 1
 629 286 l 1
 694 655 l 1
 1031 655 l 1
 1020 591 l 1
 756 591 l 1
 720 386 l 1
 757 411 787 427 834 427 c 0
 883 427 925 405 953 367 c 4
 983 327 997 270 985 204 c 0
 974 140 938 82 889 41 c 0
 843 2 785 -22 725 -22 c 0
 683 -22 645 -11 614 9 c 0
 588 26 565 49 551 76 c 1
51 76 m 1
 95 132 l 1
 98 125 102 119 105 113 c 0
 119 89 137 72 155 61 c 0
 185 43 217 40 235 40 c 0
 265 40 306 52 340 87 c 0
 364 112 385 150 395 205 c 0
 397 216 399 227 400 237 c 0
 404 284 394 315 381 335 c 0
 365 358 342 366 322 366 c 0
 243 366 197 286 197 286 c 1
 129 286 l 1
 194 655 l 1
 531 655 l 1
 520 591 l 1
 256 591 l 1
 220 386 l 1
 257 411 287 427 334 427 c 0
 383 427 425 405 453 367 c 4
 483 327 497 270 485 204 c 0
 474 140 438 82 389 41 c 0
 343 2 285 -22 225 -22 c 0
 183 -22 145 -11 114 9 c 0
 88 26 65 49 51 76 c 1
EndSplineSet
EndChar
StartChar: uF50A5
Encoding: 1003685 1003685 209
Width: 1000
Flags: MW
LayerCount: 2
Fore
SplineSet
599 323 m 0
 617 423 661 513 721 577 c 0
 779 640 853 678 929 678 c 0
 979 678 1008 667 1032 658 c 1
 1021 598 l 1
 996 607 968 619 918 619 c 0
 863 619 817 591 780 551 c 0
 736 503 706 436 693 380 c 1
 744 433 813 462 876 462 c 0
 927 462 954 439 975 401 c 0
 1003 349 1007 299 999 241 c 0
 998 235 997 230 996 224 c 0
 982 146 954 93 895 40 c 0
 847 -3 802 -22 748 -22 c 0
 700 -22 642 -3 610 65 c 0
 585 117 577 199 599 323 c 0
672 247 m 0
 670 238 669 229 668 220 c 0
 663 146 665 40 758 40 c 0
 834 40 879 107 897 151 c 0
 905 173 909 195 913 218 c 0
 915 232 918 244 919 255 c 0
 924 294 922 320 909 349 c 0
 887 396 850 401 827 401 c 0
 760 401 704 348 680 280 c 4
 676 269 674 258 672 247 c 0
51 76 m 1
 95 132 l 1
 98 125 102 119 105 113 c 0
 119 89 137 72 155 61 c 0
 185 43 217 40 235 40 c 0
 265 40 306 52 340 87 c 0
 364 112 385 150 395 205 c 0
 397 216 399 227 400 237 c 0
 404 284 394 315 381 335 c 0
 365 358 342 366 322 366 c 0
 243 366 197 286 197 286 c 1
 129 286 l 1
 194 655 l 1
 531 655 l 1
 520 591 l 1
 256 591 l 1
 220 386 l 1
 257 411 287 427 334 427 c 0
 383 427 425 405 453 367 c 4
 483 327 497 270 485 204 c 0
 474 140 438 82 389 41 c 0
 343 2 285 -22 225 -22 c 0
 183 -22 145 -11 114 9 c 0
 88 26 65 49 51 76 c 1
EndSplineSet
EndChar
StartChar: uF50A6
Encoding: 1003686 1003686 210
Width: 1000
Flags: MW
LayerCount: 2
Fore
SplineSet
582 585 m 1
 595 656 l 1
 1011 655 l 1
 999 590 l 1
 829 428 711 208 672 -11 c 1
 587 -11 l 1
 622 188 728 404 930 585 c 1
 582 585 l 1
-11 76 m 1
 33 132 l 1
 36 125 40 119 43 113 c 0
 57 89 75 72 93 61 c 0
 123 43 155 40 173 40 c 0
 203 40 244 52 278 87 c 0
 302 112 323 150 333 205 c 0
 335 216 337 227 338 237 c 0
 342 284 332 315 319 335 c 0
 303 358 280 366 260 366 c 0
 181 366 135 286 135 286 c 1
 67 286 l 1
 133 655 l 1
 470 655 l 1
 458 591 l 1
 194 591 l 1
 158 386 l 1
 195 411 225 427 272 427 c 0
 321 427 363 405 391 367 c 4
 421 327 435 270 423 204 c 0
 412 140 376 82 327 41 c 0
 281 2 223 -22 163 -22 c 0
 121 -22 83 -11 52 9 c 0
 26 26 3 49 -11 76 c 1
EndSplineSet
EndChar
StartChar: uF50A7
Encoding: 1003687 1003687 211
Width: 1000
Flags: MW
LayerCount: 2
Fore
SplineSet
573 180 m 0xf2
 585 249 638 319 742 354 c 1
 668 377 633 438 644 502 c 0
 660 595 758 678 869 678 c 0
 871 678 872 678 874 678 c 4
 977 676 1049 598 1032 503 c 0xec
 1021 443 973 385 880 354 c 1
 940 334 1006 276 989 179 c 0
 970 74 863 -22 745 -22 c 0
 627 -22 554 73 573 180 c 0xf2
654 181 m 0
 645 131 655 91 681 67 c 0
 699 50 724 40 756 40 c 0
 784 40 815 49 843 69 c 0
 873 91 898 128 908 182 c 0xf2
 910 191 910 200 911 209 c 0
 912 243 902 271 885 291 c 0
 867 312 840 323 805 323 c 0
 781 323 750 315 724 297 c 0
 697 278 672 249 659 205 c 0
 657 197 655 189 654 181 c 0
714 502 m 0
 707 465 716 435 735 415 c 0
 754 396 782 385 816 385 c 0
 850 385 881 395 905 412 c 0
 935 433 955 464 962 502 c 0
 964 512 964 522 964 531 c 0
 963 558 951 581 933 596 c 0
 915 611 889 619 858 619 c 0xec
 825 619 795 610 771 593 c 0
 746 575 727 550 718 519 c 0
 716 514 715 508 714 502 c 0
51 76 m 1
 95 132 l 1
 98 125 102 119 105 113 c 0
 119 89 137 72 155 61 c 0
 185 43 217 40 235 40 c 0
 265 40 306 52 340 87 c 0
 364 112 385 150 395 205 c 0
 397 216 399 227 400 237 c 0
 404 284 394 315 381 335 c 0
 365 358 342 366 322 366 c 0
 243 366 197 286 197 286 c 1
 129 286 l 1
 194 655 l 1
 531 655 l 1
 520 591 l 1
 256 591 l 1
 220 386 l 1
 257 411 287 427 334 427 c 0
 383 427 425 405 453 367 c 4
 483 327 497 270 485 204 c 0
 474 140 438 82 389 41 c 0
 343 2 285 -22 225 -22 c 0
 183 -22 145 -11 114 9 c 0
 88 26 65 49 51 76 c 1
EndSplineSet
EndChar
StartChar: uF50A8
Encoding: 1003688 1003688 212
Width: 1000
Flags: MW
LayerCount: 2
Fore
SplineSet
579 435 m 0
 592 508 620 563 683 618 c 0
 732 660 777 678 832 678 c 0
 871 678 917 665 949 621 c 0
 984 572 1003 485 976 333 c 0
 956 220 904 124 840 61 c 0
 787 8 723 -22 661 -22 c 0
 599 -22 567 -3 536 24 c 1
 577 78 l 1
 597 62 618 40 674 40 c 0
 722 40 770 67 810 119 c 0
 835 152 857 194 873 245 c 0
 876 255 879 265 882 276 c 1
 829 224 766 193 698 193 c 0
 646 193 621 216 601 254 c 0
 569 312 567 366 579 435 c 0
661 435 m 0
 651 381 647 343 669 301 c 0
 683 274 706 255 748 255 c 0
 786 255 822 273 849 301 c 4
 876 329 896 368 903 410 c 0
 915 476 921 618 822 618 c 0
 794 618 769 609 749 595 c 0
 714 571 690 534 679 507 c 0
 669 483 665 460 661 435 c 0
11 76 m 1
 55 132 l 1
 58 125 62 119 65 113 c 0
 79 89 97 72 115 61 c 0
 145 43 177 40 195 40 c 0
 225 40 266 52 300 87 c 0
 324 112 345 150 355 205 c 0
 357 216 359 227 360 237 c 0
 364 284 354 315 341 335 c 0
 325 358 302 366 282 366 c 0
 203 366 158 286 158 286 c 1
 90 286 l 1
 155 655 l 1
 492 655 l 1
 480 591 l 1
 216 591 l 1
 180 386 l 1
 217 411 247 427 294 427 c 0
 343 427 385 405 413 367 c 4
 443 327 457 270 445 204 c 0
 434 140 398 82 349 41 c 0
 303 2 245 -22 185 -22 c 0
 143 -22 105 -11 74 9 c 0
 48 26 25 49 11 76 c 1
EndSplineSet
EndChar
StartChar: uF50A9
Encoding: 1003689 1003689 213
Width: 1000
Flags: MW
LayerCount: 2
Fore
SplineSet
583 310 m 2
 583 329 l 2
 583 427 590 615 715 666 c 0
 731 673 749 678 772 678 c 0
 819 678 864 655 895 616 c 0
 950 548 960 433 962 360 c 0
 962 347 962 335 962 325 c 0
 962 122 915 24 829 -11 c 0
 814 -18 796 -22 772 -22 c 0
 697 -22 584 26 583 310 c 2
654 308 m 2
 654 143 690 77 728 52 c 0
 743 42 759 39 773 39 c 0
 791 39 814 45 834 66 c 0
 865 99 891 168 891 309 c 2
 891 370 l 2
 891 468 876 528 855 564 c 0
 830 607 798 616 772 616 c 0
 725 616 654 583 654 370 c 2
 654 308 l 2
128 310 m 2
 128 329 l 2
 128 427 135 615 260 666 c 0
 276 673 294 678 317 678 c 0
 364 678 410 655 441 616 c 0
 496 548 505 433 507 360 c 0
 507 347 507 335 507 325 c 0
 507 122 461 24 375 -11 c 0
 360 -18 341 -22 317 -22 c 0
 242 -22 129 26 128 310 c 2
199 308 m 2
 199 143 236 77 274 52 c 0
 289 42 304 39 318 39 c 0
 336 39 359 45 379 66 c 0
 410 99 436 168 436 309 c 2
 436 370 l 2
 436 468 422 528 401 564 c 0
 376 607 343 616 317 616 c 0
 270 616 199 583 199 370 c 2
 199 308 l 2
42 639 m 1
 42 723 l 1
 118 723 l 1
 118 653 l 1
 117 639 l 1
 80 514 l 1
 42 514 l 1
 65 639 l 1
 42 639 l 1
EndSplineSet
EndChar
StartChar: uF50AA
Encoding: 1003690 1003690 214
Width: 1000
Flags: MW
LayerCount: 2
Fore
SplineSet
640 554 m 1
 640 612 l 1
 745 612 789 653 814 678 c 1
 831 678 l 1
 831 59 l 1
 945 59 l 1
 945 0 l 1
 645 0 l 1
 645 59 l 1
 759 59 l 1
 759 577 l 1
 727 563 695 554 640 554 c 1
141 310 m 2
 141 329 l 2
 141 427 148 615 273 666 c 0
 289 673 307 678 330 678 c 0
 377 678 423 655 454 616 c 0
 509 548 518 433 520 360 c 0
 520 347 520 335 520 325 c 0
 520 122 474 24 388 -11 c 0
 373 -18 354 -22 330 -22 c 0
 255 -22 142 26 141 310 c 2
212 308 m 2
 212 143 249 77 287 52 c 4
 302 42 317 39 331 39 c 0
 349 39 372 45 392 66 c 0
 423 99 450 168 450 309 c 2
 450 370 l 2
 450 468 435 528 414 564 c 0
 389 607 356 616 330 616 c 0
 283 616 212 583 212 370 c 2
 212 308 l 2
55 639 m 5
 55 723 l 5
 131 723 l 5
 131 653 l 5
 130 639 l 5
 93 514 l 5
 55 514 l 5
 79 639 l 5
 55 639 l 5
EndSplineSet
EndChar
StartChar: uF50AB
Encoding: 1003691 1003691 215
Width: 1000
Flags: MW
LayerCount: 2
Fore
SplineSet
583 514 m 1
 606 598 654 678 759 678 c 0
 880 678 954 577 954 464 c 0
 954 367 897 313 802 221 c 0
 772 192 728 146 655 70 c 1
 954 71 l 1
 954 0 l 1
 590 0 l 1
 590 65 l 1
 708 194 l 2
 795 283 878 354 878 461 c 0
 878 545 825 613 747 613 c 0
 636 613 626 461 622 459 c 1
 583 514 l 1
128 310 m 2
 128 329 l 2
 128 427 135 615 260 666 c 0
 276 673 294 678 317 678 c 0
 364 678 410 655 441 616 c 0
 496 548 505 433 507 360 c 0
 507 347 507 335 507 325 c 0
 507 122 461 24 375 -11 c 0
 360 -18 341 -22 317 -22 c 0
 242 -22 129 26 128 310 c 2
199 308 m 2
 199 143 236 77 274 52 c 0
 289 42 304 39 318 39 c 0
 336 39 359 45 379 66 c 0
 410 99 436 168 436 309 c 2
 436 370 l 2
 436 468 422 528 401 564 c 0
 376 607 343 616 317 616 c 0
 270 616 199 583 199 370 c 2
 199 308 l 2
42 639 m 1
 42 723 l 1
 118 723 l 1
 118 653 l 1
 117 639 l 1
 80 514 l 1
 42 514 l 1
 65 639 l 1
 42 639 l 1
EndSplineSet
EndChar
StartChar: uF50AC
Encoding: 1003692 1003692 216
Width: 1000
Flags: MW
LayerCount: 2
Fore
SplineSet
583 81 m 1
 593 142 l 1
 623 97 658 72 689 58 c 0
 724 42 753 40 767 40 c 0
 802 40 829 56 849 82 c 0
 868 107 879 142 879 182 c 0xe8
 879 192 879 202 877 212 c 0
 872 246 858 276 836 296 c 0
 818 313 794 323 763 323 c 2
 696 323 l 1
 696 385 l 1
 749 389 756 390 762 391 c 0
 822 403 861 464 861 525 c 0
 861 552 851 576 836 592 c 0
 820 609 797 618 769 618 c 0
 744 618 718 610 696 597 c 0
 675 584 657 566 643 543 c 0
 638 534 633 524 628 514 c 1
 595 569 l 1
 619 609 647 635 673 651 c 0
 712 675 750 678 771 678 c 0
 811 678 850 664 880 640 c 0
 914 613 935 573 935 525 c 0xf0
 935 497 929 455 900 414 c 0
 885 393 864 372 835 354 c 1
 870 340 898 320 918 296 c 0
 947 262 961 221 961 180 c 0
 961 127 939 71 898 31 c 4
 865 -1 822 -22 768 -22 c 0
 752 -22 714 -20 671 2 c 0
 642 17 611 42 583 81 c 1
128 310 m 2
 128 329 l 2
 128 427 135 615 260 666 c 0
 276 673 294 678 317 678 c 0
 364 678 410 655 441 616 c 0
 496 548 505 433 507 360 c 0
 507 347 507 335 507 325 c 0
 507 122 461 24 375 -11 c 0
 360 -18 341 -22 317 -22 c 0
 242 -22 129 26 128 310 c 2
199 308 m 2
 199 143 236 77 274 52 c 0
 289 42 304 39 318 39 c 0
 336 39 359 45 379 66 c 0
 410 99 436 168 436 309 c 2
 436 370 l 2
 436 468 422 528 401 564 c 0
 376 607 343 616 317 616 c 0
 270 616 199 583 199 370 c 2
 199 308 l 2
42 639 m 1
 42 723 l 1
 118 723 l 1
 118 653 l 1
 117 639 l 1
 80 514 l 1
 42 514 l 1
 65 639 l 1
 42 639 l 1
EndSplineSet
EndChar
StartChar: uF50AD
Encoding: 1003693 1003693 217
Width: 1000
Flags: MW
LayerCount: 2
Fore
SplineSet
570 171 m 1
 570 219 l 0
 570 232 571 234 580 250 c 2
 800 655 l 1
 884 655 l 1
 884 232 l 1xe8
 974 232 l 1
 974 171 l 1
 884 171 l 1
 884 0 l 1
 811 0 l 1
 811 171 l 1xf0
 570 171 l 1
641 232 m 1
 816 232 l 1xe8
 816 618 l 1
 804 538 757 449 641 232 c 1
128 310 m 2
 128 329 l 2
 128 427 135 615 260 666 c 0
 276 673 294 678 317 678 c 0
 364 678 410 655 441 616 c 0
 496 548 505 433 507 360 c 0
 507 347 507 335 507 325 c 0
 507 122 461 24 375 -11 c 0
 360 -18 341 -22 317 -22 c 0
 242 -22 129 26 128 310 c 2
199 308 m 2
 199 143 236 77 274 52 c 0
 289 42 304 39 318 39 c 0
 336 39 359 45 379 66 c 0
 410 99 436 168 436 309 c 2
 436 370 l 2
 436 468 422 528 401 564 c 0
 376 607 343 616 317 616 c 0
 270 616 199 583 199 370 c 2
 199 308 l 2
42 639 m 1
 42 723 l 1
 118 723 l 1
 118 653 l 1
 117 639 l 1
 80 514 l 1
 42 514 l 1
 65 639 l 1
 42 639 l 1
EndSplineSet
EndChar
StartChar: uF50AE
Encoding: 1003694 1003694 218
Width: 1000
Flags: MW
LayerCount: 2
Fore
SplineSet
582 76 m 1
 613 132 l 1
 617 125 621 119 625 113 c 0
 641 89 661 72 679 61 c 0
 709 43 739 40 755 40 c 0
 782 40 818 52 843 87 c 0
 861 112 874 150 874 205 c 0
 874 216 874 227 873 237 c 0
 869 284 855 315 840 335 c 0
 822 358 799 366 781 366 c 0
 709 366 681 286 681 286 c 1
 620 286 l 1
 620 655 l 1
 926 655 l 1
 926 591 l 1
 686 591 l 1
 686 386 l 1
 716 411 740 427 783 427 c 0
 828 427 868 405 900 367 c 4
 934 327 956 270 956 204 c 0
 956 140 933 82 895 41 c 0
 860 2 811 -22 756 -22 c 0
 718 -22 682 -11 650 9 c 0
 624 26 599 49 582 76 c 1
130 310 m 2
 130 329 l 2
 130 427 137 615 262 666 c 0
 278 673 297 678 320 678 c 0
 367 678 412 655 443 616 c 0
 498 548 508 433 510 360 c 0
 510 347 510 335 510 325 c 0
 510 122 463 24 377 -11 c 0
 362 -18 344 -22 320 -22 c 0
 245 -22 131 26 130 310 c 2
201 308 m 2
 201 143 238 77 276 52 c 4
 291 42 306 39 320 39 c 0
 338 39 361 45 381 66 c 0
 412 99 439 168 439 309 c 2
 439 370 l 2
 439 468 424 528 403 564 c 0
 378 607 346 616 320 616 c 0
 273 616 201 583 201 370 c 2
 201 308 l 2
44 639 m 5
 44 723 l 5
 120 723 l 5
 120 653 l 5
 120 639 l 5
 82 514 l 5
 44 514 l 5
 68 639 l 5
 44 639 l 5
EndSplineSet
EndChar
StartChar: uF50AF
Encoding: 1003695 1003695 219
Width: 1000
Flags: MW
LayerCount: 2
Fore
SplineSet
582 323 m 0
 582 423 607 513 652 577 c 0
 695 640 756 678 825 678 c 0
 870 678 898 667 922 658 c 1
 922 598 l 1
 897 607 870 619 825 619 c 0
 775 619 737 591 710 551 c 0
 677 503 662 436 659 380 c 1
 697 433 755 462 812 462 c 0
 858 462 886 439 911 401 c 0
 945 349 958 299 960 241 c 0
 960 235 960 230 960 224 c 0
 960 146 942 93 897 40 c 0
 861 -3 822 -22 773 -22 c 0
 729 -22 674 -3 634 65 c 0
 603 117 582 199 582 323 c 0
660 247 m 0
 660 238 660 229 661 220 c 0
 668 146 687 40 772 40 c 0
 841 40 871 107 880 151 c 0
 884 173 885 195 885 218 c 0
 885 232 885 244 884 255 c 0
 882 294 876 320 860 349 c 0
 833 396 798 401 777 401 c 0
 716 401 674 348 663 280 c 4
 661 269 660 258 660 247 c 0
127 310 m 2
 127 329 l 2
 127 427 134 615 259 666 c 0
 275 673 293 678 316 678 c 0
 363 678 409 655 440 616 c 0
 495 548 504 433 506 360 c 0
 506 347 506 335 506 325 c 0
 506 122 459 24 373 -11 c 0
 358 -18 340 -22 316 -22 c 0
 241 -22 128 26 127 310 c 2
198 308 m 2
 198 143 234 77 272 52 c 4
 287 42 303 39 317 39 c 0
 335 39 358 45 378 66 c 0
 409 99 435 168 435 309 c 2
 435 370 l 2
 435 468 421 528 400 564 c 0
 375 607 342 616 316 616 c 0
 269 616 198 583 198 370 c 2
 198 308 l 2
40 639 m 5
 40 723 l 5
 117 723 l 5
 117 653 l 5
 116 639 l 5
 79 514 l 5
 40 514 l 5
 64 639 l 5
 40 639 l 5
EndSplineSet
EndChar
StartChar: uF50B0
Encoding: 1003696 1003696 220
Width: 1000
Flags: MW
LayerCount: 2
Fore
SplineSet
581 585 m 1
 581 656 l 1
 960 655 l 1
 960 590 l 1
 832 428 759 208 759 -11 c 1
 681 -11 l 1
 681 188 743 404 898 585 c 1
 581 585 l 1
127 310 m 2
 127 329 l 2
 127 427 134 615 259 666 c 0
 275 673 293 678 316 678 c 0
 363 678 409 655 440 616 c 0
 495 548 504 433 506 360 c 0
 506 347 506 335 506 325 c 0
 506 122 459 24 373 -11 c 0
 358 -18 340 -22 316 -22 c 0
 241 -22 128 26 127 310 c 2
198 308 m 2
 198 143 234 77 272 52 c 4
 287 42 303 39 317 39 c 0
 335 39 358 45 378 66 c 0
 409 99 435 168 435 309 c 2
 435 370 l 2
 435 468 421 528 400 564 c 0
 375 607 342 616 316 616 c 0
 269 616 198 583 198 370 c 2
 198 308 l 2
40 639 m 5
 40 723 l 5
 117 723 l 5
 117 653 l 5
 116 639 l 5
 79 514 l 5
 40 514 l 5
 64 639 l 5
 40 639 l 5
EndSplineSet
EndChar
StartChar: uF50B1
Encoding: 1003697 1003697 221
Width: 1000
Flags: MW
LayerCount: 2
Fore
SplineSet
581 180 m 0xf2
 581 249 619 319 708 354 c 1
 637 377 594 438 594 502 c 0
 594 595 669 678 770 678 c 0
 772 678 773 678 775 678 c 4
 869 676 947 598 947 503 c 0xec
 947 443 913 385 833 354 c 1
 891 334 960 276 960 179 c 0
 960 74 877 -22 770 -22 c 0
 663 -22 581 73 581 180 c 0xf2
655 181 m 0
 655 131 671 91 698 67 c 0
 717 50 741 40 770 40 c 0
 795 40 823 49 845 69 c 0
 869 91 886 128 886 182 c 0xf2
 886 191 885 200 884 209 c 0
 879 243 867 271 848 291 c 0
 828 312 802 323 770 323 c 0
 748 323 721 315 700 297 c 0
 678 278 661 249 656 205 c 0
 655 197 655 189 655 181 c 0
658 502 m 0
 658 465 670 435 691 415 c 0
 711 396 739 385 770 385 c 0
 801 385 827 395 846 412 c 0
 870 433 883 464 883 502 c 0
 883 512 882 522 880 531 c 0
 875 558 861 581 842 596 c 0
 823 611 798 619 770 619 c 0xec
 740 619 714 610 695 593 c 0
 675 575 663 550 659 519 c 0
 658 514 658 508 658 502 c 0
127 310 m 2
 127 329 l 2
 127 427 134 615 259 666 c 0
 275 673 293 678 316 678 c 0
 363 678 409 655 440 616 c 0
 495 548 504 433 506 360 c 0
 506 347 506 335 506 325 c 0
 506 122 459 24 373 -11 c 0
 358 -18 340 -22 316 -22 c 0
 241 -22 128 26 127 310 c 2
198 308 m 2
 198 143 234 77 272 52 c 4
 287 42 303 39 317 39 c 0
 335 39 358 45 378 66 c 0
 409 99 435 168 435 309 c 2
 435 370 l 2
 435 468 421 528 400 564 c 0
 375 607 342 616 316 616 c 0
 269 616 198 583 198 370 c 2
 198 308 l 2
40 639 m 5
 40 723 l 5
 117 723 l 5
 117 653 l 5
 116 639 l 5
 79 514 l 5
 40 514 l 5
 64 639 l 5
 40 639 l 5
EndSplineSet
EndChar
StartChar: uF50B2
Encoding: 1003698 1003698 222
Width: 1000
Flags: MW
LayerCount: 2
Fore
SplineSet
584 435 m 0
 584 508 601 563 649 618 c 0
 687 660 725 678 775 678 c 0
 810 678 854 665 890 621 c 0
 930 572 961 485 961 333 c 0
 961 220 929 124 881 61 c 0
 841 8 788 -22 732 -22 c 0
 676 -22 644 -3 611 24 c 1
 639 78 l 1
 660 62 683 40 734 40 c 0
 778 40 817 67 845 119 c 0
 862 152 876 194 882 245 c 0
 883 255 884 265 885 276 c 1
 845 224 793 193 731 193 c 0
 684 193 658 216 633 254 c 0
 595 312 584 366 584 435 c 0
658 435 m 0
 658 381 661 343 687 301 c 0
 704 274 728 255 766 255 c 0
 801 255 831 273 851 301 c 4
 871 329 883 368 883 410 c 0
 883 476 865 618 775 618 c 0
 750 618 729 609 713 595 c 0
 685 571 669 534 664 507 c 0
 659 483 658 460 658 435 c 0
128 310 m 2
 128 329 l 2
 128 427 135 615 260 666 c 0
 276 673 294 678 317 678 c 0
 364 678 410 655 441 616 c 0
 496 548 505 433 507 360 c 0
 507 347 507 335 507 325 c 0
 507 122 461 24 375 -11 c 0
 360 -18 341 -22 317 -22 c 0
 242 -22 129 26 128 310 c 2
199 308 m 2
 199 143 236 77 274 52 c 0
 289 42 304 39 318 39 c 0
 336 39 359 45 379 66 c 0
 410 99 436 168 436 309 c 2
 436 370 l 2
 436 468 422 528 401 564 c 0
 376 607 343 616 317 616 c 0
 270 616 199 583 199 370 c 2
 199 308 l 2
42 639 m 1
 42 723 l 1
 118 723 l 1
 118 653 l 1
 117 639 l 1
 80 514 l 1
 42 514 l 1
 65 639 l 1
 42 639 l 1
EndSplineSet
EndChar
StartChar: uF50B3
Encoding: 1003699 1003699 223
Width: 1000
Flags: MW
LayerCount: 2
Fore
SplineSet
583 310 m 2
 583 329 l 2
 583 427 590 615 715 666 c 0
 731 673 749 678 772 678 c 0
 819 678 864 655 895 616 c 0
 950 548 960 433 962 360 c 0
 962 347 962 335 962 325 c 0
 962 122 915 24 829 -11 c 0
 814 -18 796 -22 772 -22 c 0
 697 -22 584 26 583 310 c 2
654 308 m 2
 654 143 690 77 728 52 c 0
 743 42 759 39 773 39 c 0
 791 39 814 45 834 66 c 0
 865 99 891 168 891 309 c 2
 891 370 l 2
 891 468 876 528 855 564 c 0
 830 607 798 616 772 616 c 0
 725 616 654 583 654 370 c 2
 654 308 l 2
173 554 m 1
 173 612 l 1
 278 612 321 653 346 678 c 1
 364 678 l 1
 364 59 l 1
 477 59 l 1
 477 0 l 1
 177 0 l 1
 177 59 l 1
 291 59 l 1
 291 577 l 1
 259 563 228 554 173 554 c 1
42 639 m 1
 42 723 l 1
 118 723 l 1
 118 653 l 1
 117 639 l 1
 80 514 l 1
 42 514 l 1
 65 639 l 1
 42 639 l 1
EndSplineSet
EndChar
StartChar: uF50B4
Encoding: 1003700 1003700 224
Width: 1000
Flags: MW
LayerCount: 2
Fore
SplineSet
627 554 m 1
 627 612 l 1
 732 612 776 653 801 678 c 1
 818 678 l 1
 818 59 l 1
 932 59 l 1
 932 0 l 1
 632 0 l 1
 632 59 l 1
 745 59 l 1
 745 577 l 1
 713 563 682 554 627 554 c 1
173 554 m 1
 173 612 l 1
 278 612 321 653 346 678 c 1
 364 678 l 1
 364 59 l 1
 477 59 l 1
 477 0 l 1
 177 0 l 1
 177 59 l 1
 291 59 l 1
 291 577 l 1
 259 563 228 554 173 554 c 1
42 639 m 1
 42 723 l 1
 118 723 l 1
 118 653 l 1
 117 639 l 1
 80 514 l 1
 42 514 l 1
 65 639 l 1
 42 639 l 1
EndSplineSet
EndChar
StartChar: uF50B5
Encoding: 1003701 1003701 225
Width: 1000
Flags: MW
LayerCount: 2
Fore
SplineSet
585 514 m 1
 608 598 656 678 761 678 c 0
 882 678 956 577 956 464 c 0
 956 367 899 313 804 221 c 0
 774 192 731 146 658 70 c 1
 956 71 l 1
 956 0 l 1
 592 0 l 1
 592 65 l 1
 710 194 l 2
 797 283 880 354 880 461 c 0
 880 545 828 613 750 613 c 0
 639 613 628 461 624 459 c 1
 585 514 l 1
175 554 m 1
 175 612 l 1
 280 612 324 653 349 678 c 1
 366 678 l 1
 366 59 l 1
 480 59 l 1
 480 0 l 1
 180 0 l 1
 180 59 l 1
 293 59 l 1
 293 577 l 1
 261 563 230 554 175 554 c 1
44 639 m 5
 44 723 l 5
 120 723 l 5
 120 653 l 5
 120 639 l 5
 82 514 l 5
 44 514 l 5
 68 639 l 5
 44 639 l 5
EndSplineSet
EndChar
StartChar: uF50B6
Encoding: 1003702 1003702 226
Width: 1000
Flags: MW
LayerCount: 2
Fore
SplineSet
581 81 m 1
 591 142 l 1
 621 97 657 72 688 58 c 0
 723 42 752 40 766 40 c 0
 801 40 828 56 848 82 c 0
 867 107 878 142 878 182 c 0xe8
 878 192 878 202 876 212 c 0
 871 246 857 276 835 296 c 0
 817 313 792 323 761 323 c 2
 695 323 l 1
 695 385 l 1
 748 389 754 390 760 391 c 0
 820 403 860 464 860 525 c 0
 860 552 850 576 835 592 c 0
 819 609 796 618 768 618 c 0
 743 618 717 610 695 597 c 0
 674 584 655 566 641 543 c 0
 636 534 632 524 627 514 c 1
 594 569 l 1
 618 609 645 635 671 651 c 0
 710 675 749 678 770 678 c 0
 810 678 849 664 879 640 c 0
 913 613 934 573 934 525 c 0xf0
 934 497 928 455 899 414 c 0
 884 393 862 372 833 354 c 1
 868 340 897 320 917 296 c 0
 946 262 960 221 960 180 c 0
 960 127 938 71 897 31 c 4
 864 -1 821 -22 767 -22 c 0
 751 -22 713 -20 670 2 c 0
 641 17 609 42 581 81 c 1
171 554 m 1
 171 612 l 1
 276 612 320 653 345 678 c 1
 362 678 l 1
 362 59 l 1
 476 59 l 1
 476 0 l 1
 176 0 l 1
 176 59 l 1
 290 59 l 1
 290 577 l 1
 258 563 226 554 171 554 c 1
40 639 m 5
 40 723 l 5
 117 723 l 5
 117 653 l 5
 116 639 l 5
 79 514 l 5
 40 514 l 5
 64 639 l 5
 40 639 l 5
EndSplineSet
EndChar
StartChar: uF50B7
Encoding: 1003703 1003703 227
Width: 1000
Flags: MW
LayerCount: 2
Fore
SplineSet
570 171 m 1
 570 219 l 0
 570 232 571 234 580 250 c 2
 800 655 l 1
 884 655 l 1
 884 232 l 1xe8
 974 232 l 1
 974 171 l 1
 884 171 l 1
 884 0 l 1
 811 0 l 1
 811 171 l 1xf0
 570 171 l 1
641 232 m 1
 816 232 l 1xe8
 816 618 l 1
 804 538 757 449 641 232 c 1
173 554 m 1
 173 612 l 1
 278 612 321 653 346 678 c 1
 364 678 l 1
 364 59 l 1
 477 59 l 1
 477 0 l 1
 177 0 l 1
 177 59 l 1
 291 59 l 1
 291 577 l 1
 259 563 228 554 173 554 c 1
42 639 m 1
 42 723 l 1
 118 723 l 1
 118 653 l 1
 117 639 l 1
 80 514 l 1
 42 514 l 1
 65 639 l 1
 42 639 l 1
EndSplineSet
EndChar
StartChar: uF50B9
Encoding: 1003705 1003705 229
Width: 1000
Flags: MW
LayerCount: 2
Fore
SplineSet
584 323 m 0
 584 423 609 513 654 577 c 0
 697 640 757 678 826 678 c 0
 871 678 900 667 924 658 c 1
 924 598 l 1
 899 607 871 619 826 619 c 0
 776 619 739 591 712 551 c 0
 679 503 663 436 660 380 c 1
 698 433 757 462 814 462 c 0
 860 462 888 439 913 401 c 0
 947 349 959 299 961 241 c 0
 961 235 961 230 961 224 c 0
 961 146 943 93 898 40 c 0
 862 -3 824 -22 775 -22 c 0
 731 -22 675 -3 635 65 c 0
 604 117 584 199 584 323 c 0
662 247 m 0
 662 238 662 229 663 220 c 0
 670 146 689 40 774 40 c 0
 843 40 873 107 882 151 c 0
 886 173 886 195 886 218 c 0
 886 232 886 244 885 255 c 0
 883 294 877 320 861 349 c 0
 834 396 799 401 778 401 c 0
 717 401 676 348 665 280 c 4
 663 269 662 258 662 247 c 0
173 554 m 1
 173 612 l 1
 278 612 321 653 346 678 c 1
 364 678 l 1
 364 59 l 1
 477 59 l 1
 477 0 l 1
 177 0 l 1
 177 59 l 1
 291 59 l 1
 291 577 l 1
 259 563 228 554 173 554 c 1
42 639 m 1
 42 723 l 1
 118 723 l 1
 118 653 l 1
 117 639 l 1
 80 514 l 1
 42 514 l 1
 65 639 l 1
 42 639 l 1
EndSplineSet
EndChar
StartChar: uF50BA
Encoding: 1003706 1003706 230
Width: 1000
Flags: MW
LayerCount: 2
Fore
SplineSet
581 585 m 1
 581 656 l 1
 960 655 l 1
 960 590 l 1
 832 428 759 208 759 -11 c 1
 681 -11 l 1
 681 188 743 404 898 585 c 1
 581 585 l 1
171 554 m 1
 171 612 l 1
 276 612 320 653 345 678 c 1
 362 678 l 1
 362 59 l 1
 476 59 l 1
 476 0 l 1
 176 0 l 1
 176 59 l 1
 290 59 l 1
 290 577 l 1
 258 563 226 554 171 554 c 1
40 639 m 5
 40 723 l 5
 117 723 l 5
 117 653 l 5
 116 639 l 5
 79 514 l 5
 40 514 l 5
 64 639 l 5
 40 639 l 5
EndSplineSet
EndChar
StartChar: uF50BD
Encoding: 1003709 1003709 233
Width: 1000
Flags: MW
LayerCount: 2
Fore
SplineSet
583 310 m 2
 583 329 l 2
 583 427 590 615 715 666 c 0
 731 673 749 678 772 678 c 0
 819 678 864 655 895 616 c 0
 950 548 960 433 962 360 c 0
 962 347 962 335 962 325 c 0
 962 122 915 24 829 -11 c 0
 814 -18 796 -22 772 -22 c 0
 697 -22 584 26 583 310 c 2
654 308 m 2
 654 143 690 77 728 52 c 0
 743 42 759 39 773 39 c 0
 791 39 814 45 834 66 c 0
 865 99 891 168 891 309 c 2
 891 370 l 2
 891 468 876 528 855 564 c 0
 830 607 798 616 772 616 c 0
 725 616 654 583 654 370 c 2
 654 308 l 2
128 514 m 1
 151 598 200 678 305 678 c 0
 426 678 499 577 499 464 c 0
 499 367 442 313 347 221 c 0
 317 192 274 146 201 70 c 1
 499 71 l 1
 499 0 l 1
 135 0 l 1
 135 65 l 1
 254 194 l 2
 341 283 424 354 424 461 c 0
 424 545 371 613 293 613 c 0
 182 613 171 461 167 459 c 1
 128 514 l 1
42 639 m 1
 42 723 l 1
 118 723 l 1
 118 653 l 1
 117 639 l 1
 80 514 l 1
 42 514 l 1
 65 639 l 1
 42 639 l 1
EndSplineSet
EndChar
StartChar: uF50BE
Encoding: 1003710 1003710 234
Width: 1000
Flags: MW
LayerCount: 2
Fore
SplineSet
627 554 m 1
 627 612 l 1
 732 612 776 653 801 678 c 1
 818 678 l 1
 818 59 l 1
 932 59 l 1
 932 0 l 1
 632 0 l 1
 632 59 l 1
 745 59 l 1
 745 577 l 1
 713 563 682 554 627 554 c 1
128 514 m 1
 151 598 200 678 305 678 c 0
 426 678 499 577 499 464 c 0
 499 367 442 313 347 221 c 0
 317 192 274 146 201 70 c 1
 499 71 l 1
 499 0 l 1
 135 0 l 1
 135 65 l 1
 254 194 l 2
 341 283 424 354 424 461 c 0
 424 545 371 613 293 613 c 0
 182 613 171 461 167 459 c 1
 128 514 l 1
42 639 m 1
 42 723 l 1
 118 723 l 1
 118 653 l 1
 117 639 l 1
 80 514 l 1
 42 514 l 1
 65 639 l 1
 42 639 l 1
EndSplineSet
EndChar
StartChar: uF50BF
Encoding: 1003711 1003711 235
Width: 1000
Flags: MW
LayerCount: 2
Fore
SplineSet
583 514 m 1
 606 598 654 678 759 678 c 0
 880 678 954 577 954 464 c 0
 954 367 897 313 802 221 c 0
 772 192 728 146 655 70 c 1
 954 71 l 1
 954 0 l 1
 590 0 l 1
 590 65 l 1
 708 194 l 2
 795 283 878 354 878 461 c 0
 878 545 825 613 747 613 c 0
 636 613 626 461 622 459 c 1
 583 514 l 1
128 514 m 1
 151 598 200 678 305 678 c 0
 426 678 499 577 499 464 c 0
 499 367 442 313 347 221 c 0
 317 192 274 146 201 70 c 1
 499 71 l 1
 499 0 l 1
 135 0 l 1
 135 65 l 1
 254 194 l 2
 341 283 424 354 424 461 c 0
 424 545 371 613 293 613 c 0
 182 613 171 461 167 459 c 1
 128 514 l 1
42 639 m 1
 42 723 l 1
 118 723 l 1
 118 653 l 1
 117 639 l 1
 80 514 l 1
 42 514 l 1
 65 639 l 1
 42 639 l 1
EndSplineSet
EndChar
StartChar: uF50C0
Encoding: 1003712 1003712 236
Width: 1000
Flags: MW
LayerCount: 2
Fore
SplineSet
583 81 m 1
 593 142 l 1
 623 97 658 72 689 58 c 0
 724 42 753 40 767 40 c 0
 802 40 829 56 849 82 c 0
 868 107 879 142 879 182 c 0xe8
 879 192 879 202 877 212 c 0
 872 246 858 276 836 296 c 0
 818 313 794 323 763 323 c 2
 696 323 l 1
 696 385 l 1
 749 389 756 390 762 391 c 0
 822 403 861 464 861 525 c 0
 861 552 851 576 836 592 c 0
 820 609 797 618 769 618 c 0
 744 618 718 610 696 597 c 0
 675 584 657 566 643 543 c 0
 638 534 633 524 628 514 c 1
 595 569 l 1
 619 609 647 635 673 651 c 0
 712 675 750 678 771 678 c 0
 811 678 850 664 880 640 c 0
 914 613 935 573 935 525 c 0xf0
 935 497 929 455 900 414 c 0
 885 393 864 372 835 354 c 1
 870 340 898 320 918 296 c 0
 947 262 961 221 961 180 c 0
 961 127 939 71 898 31 c 4
 865 -1 822 -22 768 -22 c 0
 752 -22 714 -20 671 2 c 0
 642 17 611 42 583 81 c 1
128 514 m 1
 151 598 200 678 305 678 c 0
 426 678 499 577 499 464 c 0
 499 367 442 313 347 221 c 0
 317 192 274 146 201 70 c 1
 499 71 l 1
 499 0 l 1
 135 0 l 1
 135 65 l 1
 254 194 l 2
 341 283 424 354 424 461 c 0
 424 545 371 613 293 613 c 0
 182 613 171 461 167 459 c 1
 128 514 l 1
42 639 m 1
 42 723 l 1
 118 723 l 1
 118 653 l 1
 117 639 l 1
 80 514 l 1
 42 514 l 1
 65 639 l 1
 42 639 l 1
EndSplineSet
EndChar
StartChar: uF50C1
Encoding: 1003713 1003713 237
Width: 1000
Flags: MW
LayerCount: 2
Fore
SplineSet
562 171 m 1
 562 219 l 0
 562 232 563 234 572 250 c 2
 792 655 l 1
 876 655 l 1
 876 232 l 1xe8
 966 232 l 1
 966 171 l 1
 876 171 l 1
 876 0 l 1
 803 0 l 1
 803 171 l 1xf0
 562 171 l 1
633 232 m 1
 809 232 l 1xe8
 809 618 l 1
 797 538 749 449 633 232 c 1
120 514 m 1
 143 598 192 678 297 678 c 0
 418 678 491 577 491 464 c 0
 491 367 435 313 340 221 c 0
 310 192 266 146 193 70 c 1
 491 71 l 1
 491 0 l 1
 128 0 l 1
 128 65 l 1
 246 194 l 2
 333 283 416 354 416 461 c 0
 416 545 363 613 285 613 c 0
 174 613 164 461 160 459 c 1
 120 514 l 1
34 639 m 5
 34 723 l 5
 110 723 l 5
 110 653 l 5
 110 639 l 5
 72 514 l 5
 34 514 l 5
 58 639 l 5
 34 639 l 5
EndSplineSet
EndChar
StartChar: uF50C2
Encoding: 1003714 1003714 238
Width: 1000
Flags: MW
LayerCount: 2
Fore
SplineSet
580 76 m 1
 611 132 l 1
 615 125 619 119 623 113 c 0
 639 89 658 72 676 61 c 0
 706 43 737 40 753 40 c 0
 780 40 816 52 841 87 c 0
 859 112 872 150 872 205 c 0
 872 216 872 227 871 237 c 0
 867 284 853 315 838 335 c 0
 820 358 797 366 779 366 c 0
 707 366 679 286 679 286 c 1
 617 286 l 1
 617 655 l 1
 924 655 l 1
 924 591 l 1
 684 591 l 1
 684 386 l 1
 714 411 738 427 781 427 c 0
 826 427 866 405 898 367 c 4
 932 327 954 270 954 204 c 0
 954 140 931 82 893 41 c 0
 858 2 809 -22 754 -22 c 0
 716 -22 679 -11 647 9 c 0
 621 26 597 49 580 76 c 1
128 514 m 1
 151 598 200 678 305 678 c 0
 426 678 499 577 499 464 c 0
 499 367 442 313 347 221 c 0
 317 192 274 146 201 70 c 1
 499 71 l 1
 499 0 l 1
 135 0 l 1
 135 65 l 1
 254 194 l 2
 341 283 424 354 424 461 c 0
 424 545 371 613 293 613 c 0
 182 613 171 461 167 459 c 1
 128 514 l 1
42 639 m 1
 42 723 l 1
 118 723 l 1
 118 653 l 1
 117 639 l 1
 80 514 l 1
 42 514 l 1
 65 639 l 1
 42 639 l 1
EndSplineSet
EndChar
StartChar: uF50C3
Encoding: 1003715 1003715 239
Width: 1000
Flags: MW
LayerCount: 2
Fore
SplineSet
582 323 m 0
 582 423 607 513 652 577 c 0
 695 640 756 678 825 678 c 0
 870 678 898 667 922 658 c 1
 922 598 l 1
 897 607 870 619 825 619 c 0
 775 619 737 591 710 551 c 0
 677 503 662 436 659 380 c 1
 697 433 755 462 812 462 c 0
 858 462 886 439 911 401 c 0
 945 349 958 299 960 241 c 0
 960 235 960 230 960 224 c 0
 960 146 942 93 897 40 c 0
 861 -3 822 -22 773 -22 c 0
 729 -22 674 -3 634 65 c 0
 603 117 582 199 582 323 c 0
660 247 m 0
 660 238 660 229 661 220 c 0
 668 146 687 40 772 40 c 0
 841 40 871 107 880 151 c 0
 884 173 885 195 885 218 c 0
 885 232 885 244 884 255 c 0
 882 294 876 320 860 349 c 0
 833 396 798 401 777 401 c 0
 716 401 674 348 663 280 c 4
 661 269 660 258 660 247 c 0
127 514 m 1
 150 598 198 678 303 678 c 0
 424 678 498 577 498 464 c 0
 498 367 441 313 346 221 c 0
 316 192 273 146 200 70 c 1
 498 71 l 1
 498 0 l 1
 134 0 l 1
 134 65 l 1
 252 194 l 2
 339 283 422 354 422 461 c 0
 422 545 369 613 291 613 c 0
 180 613 170 461 166 459 c 1
 127 514 l 1
40 639 m 5
 40 723 l 5
 117 723 l 5
 117 653 l 5
 116 639 l 5
 79 514 l 5
 40 514 l 5
 64 639 l 5
 40 639 l 5
EndSplineSet
EndChar
StartChar: uF50C4
Encoding: 1003716 1003716 240
Width: 1000
Flags: MW
LayerCount: 2
Fore
SplineSet
583 585 m 1
 583 656 l 1
 961 655 l 1
 961 590 l 1
 833 428 760 208 760 -11 c 1
 683 -11 l 1
 683 188 744 404 899 585 c 1
 583 585 l 1
128 514 m 1
 151 598 200 678 305 678 c 0
 426 678 499 577 499 464 c 0
 499 367 442 313 347 221 c 0
 317 192 274 146 201 70 c 1
 499 71 l 1
 499 0 l 1
 135 0 l 1
 135 65 l 1
 254 194 l 2
 341 283 424 354 424 461 c 0
 424 545 371 613 293 613 c 0
 182 613 171 461 167 459 c 1
 128 514 l 1
42 639 m 1
 42 723 l 1
 118 723 l 1
 118 653 l 1
 117 639 l 1
 80 514 l 1
 42 514 l 1
 65 639 l 1
 42 639 l 1
EndSplineSet
EndChar
StartChar: uF50C5
Encoding: 1003717 1003717 241
Width: 1000
Flags: MW
LayerCount: 2
Fore
SplineSet
581 180 m 0xf2
 581 249 619 319 708 354 c 1
 637 377 594 438 594 502 c 0
 594 595 669 678 770 678 c 0
 772 678 773 678 775 678 c 4
 869 676 947 598 947 503 c 0xec
 947 443 913 385 833 354 c 1
 891 334 960 276 960 179 c 0
 960 74 877 -22 770 -22 c 0
 663 -22 581 73 581 180 c 0xf2
655 181 m 0
 655 131 671 91 698 67 c 0
 717 50 741 40 770 40 c 0
 795 40 823 49 845 69 c 0
 869 91 886 128 886 182 c 0xf2
 886 191 885 200 884 209 c 0
 879 243 867 271 848 291 c 0
 828 312 802 323 770 323 c 0
 748 323 721 315 700 297 c 0
 678 278 661 249 656 205 c 0
 655 197 655 189 655 181 c 0
658 502 m 0
 658 465 670 435 691 415 c 0
 711 396 739 385 770 385 c 0
 801 385 827 395 846 412 c 0
 870 433 883 464 883 502 c 0
 883 512 882 522 880 531 c 0
 875 558 861 581 842 596 c 0
 823 611 798 619 770 619 c 0xec
 740 619 714 610 695 593 c 0
 675 575 663 550 659 519 c 0
 658 514 658 508 658 502 c 0
127 514 m 1
 150 598 198 678 303 678 c 0
 424 678 498 577 498 464 c 0
 498 367 441 313 346 221 c 0
 316 192 273 146 200 70 c 1
 498 71 l 1
 498 0 l 1
 134 0 l 1
 134 65 l 1
 252 194 l 2
 339 283 422 354 422 461 c 0
 422 545 369 613 291 613 c 0
 180 613 170 461 166 459 c 1
 127 514 l 1
40 639 m 5
 40 723 l 5
 117 723 l 5
 117 653 l 5
 116 639 l 5
 79 514 l 5
 40 514 l 5
 64 639 l 5
 40 639 l 5
EndSplineSet
EndChar
StartChar: uF50C6
Encoding: 1003718 1003718 242
Width: 1000
Flags: MW
LayerCount: 2
Fore
SplineSet
584 435 m 0
 584 508 601 563 649 618 c 0
 687 660 725 678 775 678 c 0
 810 678 854 665 890 621 c 0
 930 572 961 485 961 333 c 0
 961 220 929 124 881 61 c 0
 841 8 788 -22 732 -22 c 0
 676 -22 644 -3 611 24 c 1
 639 78 l 1
 660 62 683 40 734 40 c 0
 778 40 817 67 845 119 c 0
 862 152 876 194 882 245 c 0
 883 255 884 265 885 276 c 1
 845 224 793 193 731 193 c 0
 684 193 658 216 633 254 c 0
 595 312 584 366 584 435 c 0
658 435 m 0
 658 381 661 343 687 301 c 0
 704 274 728 255 766 255 c 0
 801 255 831 273 851 301 c 4
 871 329 883 368 883 410 c 0
 883 476 865 618 775 618 c 0
 750 618 729 609 713 595 c 0
 685 571 669 534 664 507 c 0
 659 483 658 460 658 435 c 0
128 514 m 1
 151 598 200 678 305 678 c 0
 426 678 499 577 499 464 c 0
 499 367 442 313 347 221 c 0
 317 192 274 146 201 70 c 1
 499 71 l 1
 499 0 l 1
 135 0 l 1
 135 65 l 1
 254 194 l 2
 341 283 424 354 424 461 c 0
 424 545 371 613 293 613 c 0
 182 613 171 461 167 459 c 1
 128 514 l 1
42 639 m 1
 42 723 l 1
 118 723 l 1
 118 653 l 1
 117 639 l 1
 80 514 l 1
 42 514 l 1
 65 639 l 1
 42 639 l 1
EndSplineSet
EndChar
StartChar: uF50C7
Encoding: 1003719 1003719 243
Width: 1000
Flags: MW
LayerCount: 2
Fore
SplineSet
581 310 m 2
 581 329 l 2
 581 427 588 615 713 666 c 0
 729 673 747 678 770 678 c 0
 817 678 863 655 894 616 c 0
 949 548 958 433 960 360 c 0
 960 347 960 335 960 325 c 0
 960 122 913 24 827 -11 c 0
 812 -18 794 -22 770 -22 c 0
 695 -22 582 26 581 310 c 2
652 308 m 2
 652 143 688 77 726 52 c 4
 741 42 757 39 771 39 c 0
 789 39 812 45 832 66 c 0
 863 99 889 168 889 309 c 2
 889 370 l 2
 889 468 875 528 854 564 c 0
 829 607 796 616 770 616 c 0
 723 616 652 583 652 370 c 2
 652 308 l 2
126 81 m 1
 136 142 l 1
 166 97 202 72 233 58 c 0
 268 42 297 40 311 40 c 0
 346 40 373 56 393 82 c 0
 412 107 423 142 423 182 c 0xe8
 423 192 423 202 421 212 c 0
 416 246 402 276 380 296 c 0
 362 313 337 323 306 323 c 2
 240 323 l 1
 240 385 l 1
 293 389 299 390 305 391 c 0
 365 403 405 464 405 525 c 0
 405 552 395 576 380 592 c 0
 364 609 341 618 313 618 c 0
 288 618 262 610 240 597 c 0
 219 584 200 566 186 543 c 0
 181 534 177 524 172 514 c 1
 139 569 l 1
 163 609 190 635 216 651 c 0
 255 675 294 678 315 678 c 0
 355 678 394 664 424 640 c 0
 458 613 479 573 479 525 c 0xf0
 479 497 473 455 444 414 c 0
 429 393 407 372 378 354 c 1
 413 340 442 320 462 296 c 0
 491 262 505 221 505 180 c 0
 505 127 483 71 442 31 c 4
 409 -1 366 -22 312 -22 c 0
 296 -22 258 -20 215 2 c 0
 186 17 154 42 126 81 c 1
40 639 m 5
 40 723 l 5
 116 723 l 5
 116 653 l 5
 115 639 l 5
 78 514 l 5
 40 514 l 5
 64 639 l 5
 40 639 l 5
EndSplineSet
EndChar
StartChar: uF50C8
Encoding: 1003720 1003720 244
Width: 1000
Flags: MW
LayerCount: 2
Fore
SplineSet
640 554 m 1
 640 612 l 1
 745 612 789 653 814 678 c 1
 831 678 l 1
 831 59 l 1
 945 59 l 1
 945 0 l 1
 645 0 l 1
 645 59 l 1
 759 59 l 1
 759 577 l 1
 727 563 695 554 640 554 c 1
141 81 m 1
 151 142 l 1
 181 97 217 72 248 58 c 0
 283 42 312 40 326 40 c 0
 361 40 388 56 408 82 c 0
 427 107 438 142 438 182 c 0xe8
 438 192 438 202 436 212 c 0
 431 246 417 276 395 296 c 0
 377 313 352 323 321 323 c 2
 255 323 l 1
 255 385 l 1
 308 389 314 390 320 391 c 0
 380 403 420 464 420 525 c 0
 420 552 410 576 395 592 c 0
 379 609 356 618 328 618 c 0
 303 618 277 610 255 597 c 0
 234 584 215 566 201 543 c 0
 196 534 192 524 187 514 c 1
 154 569 l 1
 178 609 205 635 231 651 c 0
 270 675 309 678 330 678 c 0
 370 678 409 664 439 640 c 0
 473 613 494 573 494 525 c 0xf0
 494 497 488 455 459 414 c 0
 444 393 422 372 393 354 c 1
 428 340 457 320 477 296 c 0
 506 262 520 221 520 180 c 0
 520 127 498 71 457 31 c 4
 424 -1 381 -22 327 -22 c 0
 311 -22 273 -20 230 2 c 0
 201 17 169 42 141 81 c 1
55 639 m 5
 55 723 l 5
 131 723 l 5
 131 653 l 5
 130 639 l 5
 93 514 l 5
 55 514 l 5
 79 639 l 5
 55 639 l 5
EndSplineSet
EndChar
StartChar: uF50C9
Encoding: 1003721 1003721 245
Width: 1000
Flags: MW
LayerCount: 2
Fore
SplineSet
585 514 m 1
 608 598 656 678 761 678 c 0
 882 678 956 577 956 464 c 0
 956 367 899 313 804 221 c 0
 774 192 731 146 658 70 c 1
 956 71 l 1
 956 0 l 1
 592 0 l 1
 592 65 l 1
 710 194 l 2
 797 283 880 354 880 461 c 0
 880 545 828 613 750 613 c 0
 639 613 628 461 624 459 c 1
 585 514 l 1
130 81 m 1
 140 142 l 1
 170 97 206 72 237 58 c 0
 272 42 301 40 315 40 c 0
 350 40 377 56 397 82 c 0
 416 107 427 142 427 182 c 0xe8
 427 192 427 202 425 212 c 0
 420 246 406 276 384 296 c 0
 366 313 341 323 310 323 c 2
 244 323 l 1
 244 385 l 1
 297 389 304 390 310 391 c 0
 370 403 409 464 409 525 c 0
 409 552 399 576 384 592 c 0
 368 609 345 618 317 618 c 0
 292 618 266 610 244 597 c 0
 223 584 204 566 190 543 c 0
 185 534 181 524 176 514 c 1
 143 569 l 1
 167 609 194 635 220 651 c 0
 259 675 298 678 319 678 c 0
 359 678 398 664 428 640 c 0
 462 613 483 573 483 525 c 0xf0
 483 497 477 455 448 414 c 0
 433 393 411 372 382 354 c 1
 417 340 446 320 466 296 c 0
 495 262 509 221 509 180 c 0
 509 127 487 71 446 31 c 4
 413 -1 370 -22 316 -22 c 0
 300 -22 262 -20 219 2 c 0
 190 17 158 42 130 81 c 1
44 639 m 5
 44 723 l 5
 120 723 l 5
 120 653 l 5
 120 639 l 5
 82 514 l 5
 44 514 l 5
 68 639 l 5
 44 639 l 5
EndSplineSet
EndChar
StartChar: uF50CA
Encoding: 1003722 1003722 246
Width: 1000
Flags: MW
LayerCount: 2
Fore
SplineSet
581 81 m 1
 591 142 l 1
 621 97 657 72 688 58 c 0
 723 42 752 40 766 40 c 0
 801 40 828 56 848 82 c 0
 867 107 878 142 878 182 c 0xe8
 878 192 878 202 876 212 c 0
 871 246 857 276 835 296 c 0
 817 313 792 323 761 323 c 2
 695 323 l 1
 695 385 l 1
 748 389 754 390 760 391 c 0
 820 403 860 464 860 525 c 0
 860 552 850 576 835 592 c 0
 819 609 796 618 768 618 c 0
 743 618 717 610 695 597 c 0
 674 584 655 566 641 543 c 0
 636 534 632 524 627 514 c 1
 594 569 l 1
 618 609 645 635 671 651 c 0
 710 675 749 678 770 678 c 0
 810 678 849 664 879 640 c 0
 913 613 934 573 934 525 c 0xf0
 934 497 928 455 899 414 c 0
 884 393 862 372 833 354 c 1
 868 340 897 320 917 296 c 0
 946 262 960 221 960 180 c 0
 960 127 938 71 897 31 c 4
 864 -1 821 -22 767 -22 c 0
 751 -22 713 -20 670 2 c 0
 641 17 609 42 581 81 c 1
127 81 m 1
 137 142 l 1
 167 97 202 72 233 58 c 0
 268 42 297 40 311 40 c 0
 346 40 373 56 393 82 c 0
 412 107 423 142 423 182 c 0xe8
 423 192 423 202 421 212 c 0
 416 246 402 276 380 296 c 0
 362 313 338 323 307 323 c 2
 240 323 l 1
 240 385 l 1
 293 389 300 390 306 391 c 0
 366 403 405 464 405 525 c 0
 405 552 395 576 380 592 c 0
 364 609 341 618 313 618 c 0
 288 618 262 610 240 597 c 0
 219 584 201 566 187 543 c 0
 182 534 177 524 172 514 c 1
 140 569 l 1
 164 609 191 635 217 651 c 0
 256 675 294 678 315 678 c 0
 355 678 394 664 424 640 c 0
 458 613 480 573 480 525 c 0xf0
 480 497 473 455 444 414 c 0
 429 393 408 372 379 354 c 1
 414 340 442 320 462 296 c 0
 491 262 505 221 505 180 c 0
 505 127 483 71 442 31 c 4
 409 -1 366 -22 312 -22 c 0
 296 -22 258 -20 215 2 c 0
 186 17 155 42 127 81 c 1
40 639 m 5
 40 723 l 5
 117 723 l 5
 117 653 l 5
 116 639 l 5
 79 514 l 5
 40 514 l 5
 64 639 l 5
 40 639 l 5
EndSplineSet
EndChar
StartChar: uF50CB
Encoding: 1003723 1003723 247
Width: 1000
Flags: MW
LayerCount: 2
Fore
SplineSet
570 171 m 1
 570 219 l 0
 570 232 571 234 580 250 c 2
 800 655 l 1
 884 655 l 1
 884 232 l 1xe8
 974 232 l 1
 974 171 l 1
 884 171 l 1
 884 0 l 1
 811 0 l 1
 811 171 l 1xf0
 570 171 l 1
641 232 m 1
 816 232 l 1xe8
 816 618 l 1
 804 538 757 449 641 232 c 1
128 81 m 1
 138 142 l 1
 168 97 204 72 235 58 c 0
 270 42 299 40 313 40 c 0
 348 40 375 56 395 82 c 0
 414 107 425 142 425 182 c 0xe8
 425 192 425 202 423 212 c 0
 418 246 404 276 382 296 c 0
 364 313 339 323 308 323 c 2
 242 323 l 1
 242 385 l 1
 295 389 301 390 307 391 c 0
 367 403 406 464 406 525 c 0
 406 552 397 576 382 592 c 0
 366 609 343 618 315 618 c 0
 290 618 264 610 242 597 c 0
 221 584 202 566 188 543 c 0
 183 534 179 524 174 514 c 1
 141 569 l 1
 165 609 192 635 218 651 c 0
 257 675 295 678 316 678 c 0
 356 678 395 664 425 640 c 0
 459 613 481 573 481 525 c 0xf0
 481 497 474 455 445 414 c 0
 430 393 409 372 380 354 c 1
 415 340 444 320 464 296 c 0
 493 262 506 221 506 180 c 0
 506 127 485 71 444 31 c 4
 411 -1 368 -22 314 -22 c 0
 298 -22 259 -20 216 2 c 0
 187 17 156 42 128 81 c 1
42 639 m 1
 42 723 l 1
 118 723 l 1
 118 653 l 1
 117 639 l 1
 80 514 l 1
 42 514 l 1
 65 639 l 1
 42 639 l 1
EndSplineSet
EndChar
